<?xml version="1.0" encoding="UTF-8" standalone="no"?>
<svg
   height="26.0px"
   width="26.0px"
   version="1.1"
   id="svg2528"
   sodipodi:docname="132.svg"
   inkscape:version="1.1 (c68e22c387, 2021-05-23)"
   xmlns:inkscape="http://www.inkscape.org/namespaces/inkscape"
   xmlns:sodipodi="http://sodipodi.sourceforge.net/DTD/sodipodi-0.dtd"
   xmlns="http://www.w3.org/2000/svg"
   xmlns:svg="http://www.w3.org/2000/svg">
  <defs
     id="defs2532" />
  <sodipodi:namedview
     id="namedview2530"
     pagecolor="#505050"
     bordercolor="#eeeeee"
     borderopacity="1"
     inkscape:pageshadow="0"
     inkscape:pageopacity="0"
     inkscape:pagecheckerboard="0"
     showgrid="false"
     inkscape:zoom="32"
     inkscape:cx="-2.546875"
     inkscape:cy="5.65625"
     inkscape:window-width="3840"
     inkscape:window-height="2067"
     inkscape:window-x="-12"
     inkscape:window-y="40"
     inkscape:window-maximized="1"
     inkscape:current-layer="g2526" />
  <g
     transform="translate(-0.05,-0.05)"
     id="g2526">
    <path
       d="M 22.077801,22.027801 C 19.541689,24.52606 16.532422,25.77519 13.05,25.77519 c -3.5202745,0 -6.5295415,-1.24913 -9.0278008,-3.747389 -2.4982593,-2.498259 -3.74738899,-5.4886 -3.74738899,-8.971022 0,-3.5202748 1.24912969,-6.5484681 3.74738899,-9.0845798 C 6.5204585,1.4739399 9.5297255,0.22481021 13.05,0.22481021 c 3.520275,0 6.529542,1.24912969 9.027801,3.74738899 2.498259,2.5361117 3.747389,5.564305 3.747389,9.0845798 0,2.000527 -0.412224,3.838662 -1.236672,5.514406 -0.04775,0.09705 -0.803912,0.0959 -1.061456,0.01608 -0.06515,-0.02019 0.1685,0.162996 0.437866,0.195394 0.108201,0.01301 0.225173,0.04516 0.247628,0.124594 0.03992,0.141203 0.109391,0.180091 0.09252,0.209813 -0.57084,1.00564 -1.344512,2.027969 -2.227274,2.910731 M 13.05,1.4046086 c -2.952488,0 -5.4886002,1.1391962 -7.6083353,3.4175889 C 5.0502691,5.2428882 4.5504767,5.929204 4.2313497,6.3925965 4.2063878,6.4288429 3.9108104,6.4777035 3.6718633,6.4528679 3.4951844,6.4345044 3.2931384,6.5012236 3.2021226,6.5008811 2.8792727,6.4996663 2.7299497,6.5909024 2.1323346,6.4837029 2.0105202,6.461852 2.6259321,6.7432347 3.1498793,6.7623429 3.5524678,6.7770252 3.7951579,7.0449385 3.765625,7.0951706 2.6564786,8.9816989 2.262062,10.89369 2.262062,13.056779 c 0,2.990341 1.0598676,5.924002 3.1796027,8.121023 2.1197352,2.278393 4.6558473,3.417589 7.6083353,3.417589 2.990341,0 5.526452,-1.139196 7.608335,-3.417589 2.119735,-2.197021 3.179603,-5.130682 3.179603,-8.121023 0,-2.990341 -1.059868,-5.9561887 -3.179603,-8.2345815 C 18.576452,2.5438049 16.040341,1.4046086 13.05,1.4046086"
       fill="#a6a8ab"
       fill-rule="evenodd"
       stroke="none"
       id="path2522"
       style="fill:#f1edf8;fill-opacity:1;stroke-width:1.13557"
       sodipodi:nodetypes="cssscscssssssccsssssssscscscc" />
  </g>
</svg>
