<?xml version="1.0" encoding="UTF-8" standalone="no"?>
<svg
   height="26.0px"
   width="26.0px"
   version="1.1"
   id="svg10050"
   sodipodi:docname="35.svg"
   inkscape:version="1.1 (c68e22c387, 2021-05-23)"
   xmlns:inkscape="http://www.inkscape.org/namespaces/inkscape"
   xmlns:sodipodi="http://sodipodi.sourceforge.net/DTD/sodipodi-0.dtd"
   xmlns="http://www.w3.org/2000/svg"
   xmlns:svg="http://www.w3.org/2000/svg">
  <defs
     id="defs10054">
    <rect
       x="20.461902"
       y="33.322407"
       width="58.601474"
       height="43.884815"
       id="rect62841" />
    <rect
       x="22.185475"
       y="31.863999"
       width="60.899571"
       height="47.464543"
       id="rect54537" />
    <rect
       x="22.273864"
       y="44.901281"
       width="27.577164"
       height="20.064155"
       id="rect51159" />
    <rect
       x="7.9107571"
       y="11.424194"
       width="21.412077"
       height="13.766485"
       id="rect39710" />
    <rect
       x="-24.041631"
       y="-11.313708"
       width="105.53569"
       height="62.57895"
       id="rect36404" />
    <rect
       x="-0.015625"
       y="0.015625"
       width="25.9375"
       height="25.984375"
       id="rect3373" />
  </defs>
  <sodipodi:namedview
     id="namedview10052"
     pagecolor="#505050"
     bordercolor="#eeeeee"
     borderopacity="1"
     inkscape:pageshadow="0"
     inkscape:pageopacity="0"
     inkscape:pagecheckerboard="0"
     showgrid="false"
     inkscape:zoom="22.627417"
     inkscape:cx="26.31763"
     inkscape:cy="13.633903"
     inkscape:window-width="1918"
     inkscape:window-height="2054"
     inkscape:window-x="1909"
     inkscape:window-y="52"
     inkscape:window-maximized="0"
     inkscape:current-layer="svg10050" />
  <path
     d="M 15.927775,5.2579983 V 6.125997 c 0.756019,0.3079937 -0.447987,2.4079975 -0.447987,2.4079975 L 13.323794,12.313995 H 13.099668 L 10.691693,8.5339945 c -0.8680062,-1.68 0.02646,-2.4079975 0.02646,-2.4079975 V 5.2579983 H 6.5741622 V 6.125997 c 0.224126,0 1.176,1.68 1.176,1.68 l 4.2560128,6.747995 v 2.688 l 0.139843,0.08398 h 0.84 l 0.139842,0.139994 0.475994,0.05601 -0.05594,0.139993 -1.259981,-0.08398 -0.280063,0.224013 c -0.08391,1.820001 -0.868007,2.016 -0.868007,2.016 v 0.924 h 3.696 v -1.008 c -0.643993,-0.168 -0.643993,-1.596 -0.643993,-1.596 v -3.527993 l 4.087975,-6.8599981 c 0.756019,-1.428 1.147993,-1.596 1.147993,-1.596 V 5.2579983 Z"
     style="font-size:7.40833px;line-height:1.25;font-family:Sovngarde;-inkscape-font-specification:Sovngarde;letter-spacing:3.57188px;fill:#f1edf8;stroke-width:0.999999"
     id="path167363" />
</svg>
