<?xml version="1.0" encoding="UTF-8" standalone="no"?>
<svg
   height="26.0px"
   width="26.0px"
   version="1.1"
   id="svg10050"
   sodipodi:docname="44.svg"
   inkscape:version="1.1 (c68e22c387, 2021-05-23)"
   xmlns:inkscape="http://www.inkscape.org/namespaces/inkscape"
   xmlns:sodipodi="http://sodipodi.sourceforge.net/DTD/sodipodi-0.dtd"
   xmlns="http://www.w3.org/2000/svg"
   xmlns:svg="http://www.w3.org/2000/svg">
  <defs
     id="defs10054">
    <rect
       x="20.461902"
       y="33.322407"
       width="58.601474"
       height="43.884815"
       id="rect62841" />
    <rect
       x="22.185475"
       y="31.863999"
       width="60.899571"
       height="47.464543"
       id="rect54537" />
    <rect
       x="22.273864"
       y="44.901281"
       width="27.577164"
       height="20.064155"
       id="rect51159" />
    <rect
       x="7.9107571"
       y="11.424194"
       width="21.412077"
       height="13.766485"
       id="rect39710" />
    <rect
       x="-24.041631"
       y="-11.313708"
       width="105.53569"
       height="62.57895"
       id="rect36404" />
    <rect
       x="-0.015625"
       y="0.015625"
       width="25.9375"
       height="25.984375"
       id="rect3373" />
  </defs>
  <sodipodi:namedview
     id="namedview10052"
     pagecolor="#505050"
     bordercolor="#eeeeee"
     borderopacity="1"
     inkscape:pageshadow="0"
     inkscape:pageopacity="0"
     inkscape:pagecheckerboard="0"
     showgrid="false"
     inkscape:zoom="22.627417"
     inkscape:cx="26.31763"
     inkscape:cy="13.633903"
     inkscape:window-width="1918"
     inkscape:window-height="2054"
     inkscape:window-x="1909"
     inkscape:window-y="52"
     inkscape:window-maximized="0"
     inkscape:current-layer="svg10050" />
  <path
     d="M 19.439958,18.543992 18.99197,17.731991 12.859951,5.243997 6.3079885,19.075991 c -0.196157,0.336 -0.363968,0.644001 -0.504,0.756 v 0.924 h 2.715969 0.504 V 19.85999 c 0,0 -0.224126,-0.05601 -0.05594,-0.672 l 0.924019,-1.903998 4.0600065,-0.111987 c 0,0 0.979994,0.05601 1.819994,-0.168 l 0.783987,1.035999 c 0.84,1.035998 0.447988,1.819997 0.447988,1.819997 v 0.896002 h 0.616025 2.575975 v -0.924001 c -0.196158,-0.168 -0.504,-0.812001 -0.755982,-1.287998 z m -4.003994,-3.696 h -0.363212 -0.183686 -0.209007 l -0.167811,0.279988 -0.448026,-0.391998 c -0.672,0.02797 -0.111874,0 -1.315993,-0.05601 0,0 -0.700007,0.756 -2.099981,0.924 l 1.399974,-3.444 -0.05594,-0.251981 -0.111874,-0.08402 v -0.08398 l -0.05594,-0.08398 c 0.111874,-0.392001 0.196158,-0.02797 0.280063,0.02797 0.05594,0.05601 0.08391,0.111987 0.111874,0.139994 l 0.728013,-1.763997 1.904013,4.339998 0.250204,0.0514 c -0.03024,0.246085 -0.209386,0.396616 -0.209386,0.396616 h 0.174993 l 0.370393,-0.324359 c -0.04309,0.222651 0.169701,0.212296 0.169701,0.212296 z"
     style="font-size:7.40833px;line-height:1.25;font-family:Sovngarde;-inkscape-font-specification:Sovngarde;letter-spacing:3.57188px;fill:#f1edf8;stroke-width:0.999999"
     id="path167315"
     sodipodi:nodetypes="cccccccccccccccccccscccccccccccccccccccccccc" />
</svg>
