<?xml version="1.0" encoding="UTF-8" standalone="no"?>
<svg
   height="26.0px"
   width="26.0px"
   version="1.1"
   id="svg10050"
   sodipodi:docname="64.svg"
   inkscape:version="1.1 (c68e22c387, 2021-05-23)"
   xmlns:inkscape="http://www.inkscape.org/namespaces/inkscape"
   xmlns:sodipodi="http://sodipodi.sourceforge.net/DTD/sodipodi-0.dtd"
   xmlns="http://www.w3.org/2000/svg"
   xmlns:svg="http://www.w3.org/2000/svg">
  <defs
     id="defs10054">
    <rect
       x="-39.75"
       y="-23.625"
       width="118.125"
       height="77.125"
       id="rect78098" />
    <rect
       x="-21.25"
       y="-13.125"
       width="134"
       height="88.375"
       id="rect75738" />
    <rect
       x="20.461902"
       y="33.322407"
       width="58.601474"
       height="43.884815"
       id="rect62841" />
    <rect
       x="22.185475"
       y="31.863999"
       width="60.899571"
       height="47.464543"
       id="rect54537" />
    <rect
       x="22.273864"
       y="44.901281"
       width="27.577164"
       height="20.064155"
       id="rect51159" />
    <rect
       x="7.9107571"
       y="11.424194"
       width="21.412077"
       height="13.766485"
       id="rect39710" />
    <rect
       x="-24.041631"
       y="-11.313708"
       width="105.53569"
       height="62.57895"
       id="rect36404" />
    <rect
       x="-0.015625"
       y="0.015625"
       width="25.9375"
       height="25.984375"
       id="rect3373" />
  </defs>
  <sodipodi:namedview
     id="namedview10052"
     pagecolor="#505050"
     bordercolor="#eeeeee"
     borderopacity="1"
     inkscape:pageshadow="0"
     inkscape:pageopacity="0"
     inkscape:pagecheckerboard="0"
     showgrid="false"
     inkscape:zoom="45.254834"
     inkscape:cx="14.075844"
     inkscape:cy="17.545087"
     inkscape:window-width="3840"
     inkscape:window-height="2067"
     inkscape:window-x="-12"
     inkscape:window-y="40"
     inkscape:window-maximized="1"
     inkscape:current-layer="g10048" />
  <g
     transform="matrix(1.0868056,0,0,1.0868056,-1.1284722,-1.1284722)"
     id="g10048">
    <text
       xml:space="preserve"
       transform="matrix(0.92012776,0,0,0.92012776,1.0383386,1.0383386)"
       id="text3371"
       style="font-size:23.99999995px;line-height:1.25;font-family:Sovngarde;-inkscape-font-specification:Sovngarde;text-align:center;letter-spacing:0px;white-space:pre;shape-inside:url(#rect3373)"
       x="1.3706659"
       y="0"><tspan
         x="-0.015625"
         y="48.2"
         id="tspan147961">E</tspan></text>
    <text
       xml:space="preserve"
       transform="matrix(0.92012776,0,0,0.92012776,1.0383386,1.0383386)"
       id="text36402"
       style="line-height:1.25;font-family:Sovngarde;font-size:5.33333333px;-inkscape-font-specification:Sovngarde;letter-spacing:0px;white-space:pre;shape-inside:url(#rect36404)" />
    <text
       xml:space="preserve"
       transform="matrix(0.92012776,0,0,0.92012776,1.0383386,1.0383386)"
       id="text39708"
       style="line-height:1.25;font-family:Sovngarde;font-size:5.33333333px;-inkscape-font-specification:Sovngarde;letter-spacing:0px;white-space:pre;shape-inside:url(#rect39710)" />
    <text
       xml:space="preserve"
       transform="matrix(0.92012776,0,0,0.92012776,1.0383386,1.0383386)"
       id="text51157"
       style="line-height:1.25;font-family:Sovngarde;font-size:5.33333333px;-inkscape-font-specification:Sovngarde;letter-spacing:0px;white-space:pre;shape-inside:url(#rect51159)" />
    <text
       xml:space="preserve"
       style="font-size:4.90735px;line-height:1.25;font-family:Sovngarde;-inkscape-font-specification:Sovngarde;letter-spacing:0px;stroke-width:0.920128"
       x="33.895081"
       y="52.681984"
       id="text51539"><tspan
         sodipodi:role="line"
         id="tspan51537"
         style="stroke-width:0.920128"
         x="33.895081"
         y="52.681984" /></text>
    <text
       xml:space="preserve"
       transform="matrix(0.92012776,0,0,0.92012776,1.0383386,1.0383386)"
       id="text54535"
       style="line-height:1.25;font-family:Sovngarde;font-size:5.33333333px;-inkscape-font-specification:Sovngarde;letter-spacing:0px;white-space:pre;shape-inside:url(#rect54537)" />
    <text
       xml:space="preserve"
       transform="matrix(0.92012776,0,0,0.92012776,1.0383386,1.0383386)"
       id="text62839"
       style="line-height:1.25;font-family:Sovngarde;font-size:5.33333333px;-inkscape-font-specification:Sovngarde;letter-spacing:0px;white-space:pre;shape-inside:url(#rect62841)" />
    <text
       xml:space="preserve"
       transform="matrix(0.92012776,0,0,0.92012776,1.0383386,1.0383386)"
       id="text75736"
       style="line-height:1.25;font-family:Sovngarde;font-size:5.33333333px;-inkscape-font-specification:Sovngarde;letter-spacing:0px;white-space:pre;shape-inside:url(#rect75738)" />
    <g
       aria-label="B"
       transform="matrix(0.92012776,0,0,0.92012776,44.299963,18.040503)"
       id="text78096"
       style="font-size:28px;line-height:1.25;font-family:Sovngarde;-inkscape-font-specification:Sovngarde;letter-spacing:0px;white-space:pre;shape-inside:url(#rect78098);fill:#f1edf8">
      <path
         d="m -34.374,-6.685 h -1.68 v 0 l -0.196,-0.168 0.056,-0.112 0.112,-0.028 v -1.904 l -0.056,-0.168 -0.112,-0.224 0.028,-0.28 0.056,-0.168 0.084,0.112 v -0.14 -1.456 h 2.128 c 0,0 2.324,0.14 2.324,2.38 0,0 0.168,2.156 -2.744,2.156 z m 3.136,0.924 c 0.896,-0.504 1.652,-1.4 1.736,-2.884 0.28,-5.04 -4.172,-4.564 -4.172,-4.564 h -5.6 v 0.112 1.176 l 0.532,0.56 v 0.42 l 0.112,0.084 v 1.428 h 0.14 v 0.28 l 0.448,0.112 0.476,0.084 -0.112,0.14 h -0.756 l -0.084,0.224 -0.056,0.28 v 7.504 c 0,0 -0.028,1.82 -0.7,2.016 v 1.036 h 2.94 3.528 c 0,0 3.472,0.448 3.976,-3.136 0.364,-2.492 -0.728,-4.34 -2.408,-4.872 z m -4.788,6.048 c -0.028,-0.168 -0.028,-0.14 -0.028,-0.336 v -4.48 h 0.168 2.408 c 0,0 2.016,-0.056 2.044,2.268 0,0 0.14,3.668 -4.592,2.548 z"
         style="font-size:28px;line-height:1.25;font-family:Sovngarde;-inkscape-font-specification:Sovngarde;letter-spacing:0px;white-space:pre;shape-inside:url(#rect78098);fill:#f1edf8"
         id="path147910" />
    </g>
  </g>
</svg>
