<?xml version="1.0" encoding="UTF-8" standalone="no"?>
<svg
   height="26.0px"
   width="26.0px"
   version="1.1"
   id="svg10050"
   sodipodi:docname="lefttrig.svg"
   inkscape:version="1.1 (c68e22c387, 2021-05-23)"
   xmlns:inkscape="http://www.inkscape.org/namespaces/inkscape"
   xmlns:sodipodi="http://sodipodi.sourceforge.net/DTD/sodipodi-0.dtd"
   xmlns="http://www.w3.org/2000/svg"
   xmlns:svg="http://www.w3.org/2000/svg">
  <defs
     id="defs10054">
    <rect
       x="20.461902"
       y="33.322407"
       width="58.601474"
       height="43.884815"
       id="rect62841" />
    <rect
       x="22.185475"
       y="31.863999"
       width="60.899571"
       height="47.464543"
       id="rect54537" />
    <rect
       x="22.273864"
       y="44.901281"
       width="27.577164"
       height="20.064155"
       id="rect51159" />
    <rect
       x="7.9107571"
       y="11.424194"
       width="21.412077"
       height="13.766485"
       id="rect39710" />
    <rect
       x="-24.041631"
       y="-11.313708"
       width="105.53569"
       height="62.57895"
       id="rect36404" />
    <rect
       x="-0.015625"
       y="0.015625"
       width="25.9375"
       height="25.984375"
       id="rect3373" />
    <rect
       x="20.461902"
       y="33.322407"
       width="58.601474"
       height="43.884815"
       id="rect62841-1" />
    <rect
       x="22.185475"
       y="31.863999"
       width="60.899571"
       height="47.464543"
       id="rect54537-5" />
    <rect
       x="22.273864"
       y="44.901281"
       width="27.577164"
       height="20.064155"
       id="rect51159-0" />
    <rect
       x="7.9107571"
       y="11.424194"
       width="21.412077"
       height="13.766485"
       id="rect39710-3" />
    <rect
       x="-24.041631"
       y="-11.313708"
       width="105.53569"
       height="62.57895"
       id="rect36404-7" />
    <rect
       x="-0.015625"
       y="0.015625"
       width="25.9375"
       height="25.984375"
       id="rect3373-1" />
    <rect
       x="20.461902"
       y="33.322407"
       width="58.601474"
       height="43.884815"
       id="rect62841-8" />
    <rect
       x="22.185475"
       y="31.863999"
       width="60.899571"
       height="47.464543"
       id="rect54537-4" />
    <rect
       x="22.273864"
       y="44.901281"
       width="27.577164"
       height="20.064155"
       id="rect51159-7" />
    <rect
       x="7.9107571"
       y="11.424194"
       width="21.412077"
       height="13.766485"
       id="rect39710-4" />
    <rect
       x="-24.041631"
       y="-11.313708"
       width="105.53569"
       height="62.57895"
       id="rect36404-6" />
    <rect
       x="-0.015625"
       y="0.015625"
       width="25.9375"
       height="25.984375"
       id="rect3373-4" />
    <rect
       x="20.461902"
       y="33.322407"
       width="58.601474"
       height="43.884815"
       id="rect62841-3" />
    <rect
       x="22.185475"
       y="31.863999"
       width="60.899571"
       height="47.464543"
       id="rect54537-1" />
    <rect
       x="22.273864"
       y="44.901281"
       width="27.577164"
       height="20.064155"
       id="rect51159-3" />
    <rect
       x="7.9107571"
       y="11.424194"
       width="21.412077"
       height="13.766485"
       id="rect39710-6" />
    <rect
       x="-24.041631"
       y="-11.313708"
       width="105.53569"
       height="62.57895"
       id="rect36404-3" />
    <rect
       x="-0.015625"
       y="0.015625"
       width="25.9375"
       height="25.984375"
       id="rect3373-0" />
  </defs>
  <sodipodi:namedview
     id="namedview10052"
     pagecolor="#505050"
     bordercolor="#eeeeee"
     borderopacity="1"
     inkscape:pageshadow="0"
     inkscape:pageopacity="0"
     inkscape:pagecheckerboard="0"
     showgrid="false"
     inkscape:zoom="45.254834"
     inkscape:cx="1.3921165"
     inkscape:cy="14.56198"
     inkscape:window-width="3840"
     inkscape:window-height="2067"
     inkscape:window-x="-12"
     inkscape:window-y="40"
     inkscape:window-maximized="1"
     inkscape:current-layer="svg10050"
     showguides="true"
     inkscape:guide-bbox="true"
     inkscape:snap-global="true"
     inkscape:snap-bbox="true"
     inkscape:bbox-paths="true"
     inkscape:bbox-nodes="true"
     inkscape:snap-bbox-midpoints="true">
    <sodipodi:guide
       position="6.7353713,18.641564"
       orientation="0,-1"
       id="guide14698" />
    <sodipodi:guide
       position="28.180938,9.8624362"
       orientation="0,-1"
       id="guide14700" />
    <sodipodi:guide
       position="2.0751949,23.924805"
       orientation="0,-1"
       id="guide41587" />
    <sodipodi:guide
       position="2.0751949,2.075195"
       orientation="0,-1"
       id="guide41589" />
  </sodipodi:namedview>
  <path
     d="m 20.451902,7.358436 h -7.38208 v 1.524041 h 0.396882 c 0,0 0.190506,-0.4762627 1.111278,-0.4762627 0.317514,0 0.49215,0 0.984284,0 0.508021,0 0.508021,0.3968864 0.508021,0.3968864 v 5.6834013 c -0.0318,1.079528 -0.349271,1.095405 -0.349271,1.095405 l 0.0159,0.555639 H 17.72134 V 15.56603 c -0.333384,-0.07938 -0.349255,-1.063653 -0.349255,-1.063653 v -4.064108 l -0.07935,0.04763 -0.06345,0.07938 -0.06345,-0.04763 h -0.07935 l -0.0159,-0.07938 0.04755,0.03176 0.0159,-0.04763 0.0318,-0.04763 h 0.111153 l 0.0159,-0.0635 0.111154,-0.0635 V 8.7078628 c 0,-0.285757 0.365141,-0.3016335 0.365141,-0.3016335 h 1.19066 c 0,0 1.00014,-0.015871 1.111278,0.4762627 h 0.381012 z"
     id="path77441"
     style="font-size:10.5833px;line-height:1.25;font-family:Sovngarde;-inkscape-font-specification:Sovngarde;letter-spacing:0px;fill:#f1edf8;fill-opacity:1;stroke-width:0.396886" />
  <path
     d="m 12.561665,14.692878 c 0,0 -1.25416,0.381011 -2.413067,0.381011 -0.95253,0 -0.920774,-1.492293 -0.920774,-1.492293 v -3.397347 l -0.07935,0.04763 -0.07935,0.07938 -0.063452,-0.04763 H 8.92632 v -0.07938 l 0.047551,0.03176 v -0.0635 l 0.031801,-0.04763 h 0.1270541 v -0.0635 L 9.259775,9.977882 V 8.7395995 c 0,-0.6826434 0.30163,-0.809648 0.30163,-0.809648 V 7.358436 H 7.5293496 v 0.5238902 c 0.3651267,0.1746311 0.3333857,0.7937729 0.3333857,0.7937729 v 4.7943879 c 0,1.476418 -0.3968977,1.809802 -0.3968977,1.809802 l -0.031801,0.857275 H 9.799477 v -0.01587 l 2.159064,0.01587 c 0,0 0.587389,-0.01587 1.111281,0 v -1.444667 z"
     id="path77443"
     style="font-size:10.5833px;line-height:1.25;font-family:Sovngarde;-inkscape-font-specification:Sovngarde;letter-spacing:0px;fill:#f1edf8;fill-opacity:1;stroke-width:0.396887" />
</svg>
