<?xml version="1.0" encoding="UTF-8" standalone="no"?>
<svg
   height="26.0px"
   width="26.0px"
   version="1.1"
   id="svg10050"
   sodipodi:docname="Lone.svg"
   inkscape:version="1.1 (c68e22c387, 2021-05-23)"
   xmlns:inkscape="http://www.inkscape.org/namespaces/inkscape"
   xmlns:sodipodi="http://sodipodi.sourceforge.net/DTD/sodipodi-0.dtd"
   xmlns="http://www.w3.org/2000/svg"
   xmlns:svg="http://www.w3.org/2000/svg">
  <defs
     id="defs10054">
    <rect
       x="20.461902"
       y="33.322407"
       width="58.601474"
       height="43.884815"
       id="rect62841" />
    <rect
       x="22.185475"
       y="31.863999"
       width="60.899571"
       height="47.464543"
       id="rect54537" />
    <rect
       x="22.273864"
       y="44.901281"
       width="27.577164"
       height="20.064155"
       id="rect51159" />
    <rect
       x="7.9107571"
       y="11.424194"
       width="21.412077"
       height="13.766485"
       id="rect39710" />
    <rect
       x="-24.041631"
       y="-11.313708"
       width="105.53569"
       height="62.57895"
       id="rect36404" />
    <rect
       x="-0.015625"
       y="0.015625"
       width="25.9375"
       height="25.984375"
       id="rect3373" />
  </defs>
  <sodipodi:namedview
     id="namedview10052"
     pagecolor="#505050"
     bordercolor="#eeeeee"
     borderopacity="1"
     inkscape:pageshadow="0"
     inkscape:pageopacity="0"
     inkscape:pagecheckerboard="0"
     showgrid="false"
     inkscape:zoom="45.254834"
     inkscape:cx="11.899281"
     inkscape:cy="5.8999222"
     inkscape:window-width="3840"
     inkscape:window-height="2067"
     inkscape:window-x="-12"
     inkscape:window-y="40"
     inkscape:window-maximized="1"
     inkscape:current-layer="svg10050"
     inkscape:snap-bbox="true" />
  <g
     id="g20041">
    <path
       d="m 12.721441,16.345499 c 0,0 -1.421814,0.431944 -2.7356431,0.431944 -1.0798636,0 -1.0438623,-1.69178 -1.0438623,-1.69178 v -3.851501 l -0.08996,0.05399 -0.08996,0.09 -0.071934,-0.05399 h -0.08996 v -0.09 l 0.053908,0.03601 v -0.07198 l 0.036054,-0.05399 h 0.1440385 v -0.07198 l 0.1440385,-0.07198 V 9.5963946 c 0,-0.7738983 0.3419509,-0.9178807 0.3419509,-0.9178807 V 8.0305976 H 7.0164113 v 0.5939232 c 0.4139364,0.1979755 0.3779523,0.8998835 0.3779523,0.8998835 v 5.4352967 c 0,1.673784 -0.4499545,2.051734 -0.4499545,2.051734 l -0.036054,0.971874 h 2.6816498 v -0.01799 l 2.4476851,0.01799 c 0,0 0.66591,-0.01799 1.259835,0 v -1.637788 z"
       id="path77403"
       style="font-size:10.5833px;line-height:1.25;font-family:Sovngarde;-inkscape-font-specification:Sovngarde;letter-spacing:0px;fill:#f1edf8;fill-opacity:1;stroke-width:0.449943" />
    <path
       d="m 16.146953,8.7864782 c -0.827907,0 -0.215974,1.1518505 -0.215974,1.1518505 0,-0.3239573 0.521924,-0.3419562 0.521924,-0.3419562 0.503947,0 0.575932,0.4139465 0.575932,1.2238425 v 4.427427 c 0,0.791897 -0.179972,1.709778 -0.575932,1.709778 h -0.215974 v 1.00787 h 2.861639 v -1.00787 h -0.215973 c -0.341951,0 -0.557924,-0.917881 -0.557924,-1.709778 V 8.0485743 h -0.485938 c -0.647918,0.4859369 -0.917884,0.7379039 -1.655796,0.7379039 z"
       id="path77405"
       style="font-size:10.5833px;line-height:1.25;font-family:Sovngarde;-inkscape-font-specification:Sovngarde;letter-spacing:0px;fill:#f1edf8;fill-opacity:1;stroke-width:0.449943" />
  </g>
</svg>
