<?xml version="1.0" encoding="UTF-8" standalone="no"?>
<svg
   height="26.0px"
   width="26.0px"
   version="1.1"
   id="svg10050"
   sodipodi:docname="ltwo.svg"
   inkscape:version="1.1 (c68e22c387, 2021-05-23)"
   xmlns:inkscape="http://www.inkscape.org/namespaces/inkscape"
   xmlns:sodipodi="http://sodipodi.sourceforge.net/DTD/sodipodi-0.dtd"
   xmlns="http://www.w3.org/2000/svg"
   xmlns:svg="http://www.w3.org/2000/svg">
  <defs
     id="defs10054">
    <rect
       x="20.461902"
       y="33.322407"
       width="58.601474"
       height="43.884815"
       id="rect62841" />
    <rect
       x="22.185475"
       y="31.863999"
       width="60.899571"
       height="47.464543"
       id="rect54537" />
    <rect
       x="22.273864"
       y="44.901281"
       width="27.577164"
       height="20.064155"
       id="rect51159" />
    <rect
       x="7.9107571"
       y="11.424194"
       width="21.412077"
       height="13.766485"
       id="rect39710" />
    <rect
       x="-24.041631"
       y="-11.313708"
       width="105.53569"
       height="62.57895"
       id="rect36404" />
    <rect
       x="-0.015625"
       y="0.015625"
       width="25.9375"
       height="25.984375"
       id="rect3373" />
    <rect
       x="20.461902"
       y="33.322407"
       width="58.601474"
       height="43.884815"
       id="rect62841-1" />
    <rect
       x="22.185475"
       y="31.863999"
       width="60.899571"
       height="47.464543"
       id="rect54537-5" />
    <rect
       x="22.273864"
       y="44.901281"
       width="27.577164"
       height="20.064155"
       id="rect51159-0" />
    <rect
       x="7.9107571"
       y="11.424194"
       width="21.412077"
       height="13.766485"
       id="rect39710-3" />
    <rect
       x="-24.041631"
       y="-11.313708"
       width="105.53569"
       height="62.57895"
       id="rect36404-7" />
    <rect
       x="-0.015625"
       y="0.015625"
       width="25.9375"
       height="25.984375"
       id="rect3373-1" />
    <rect
       x="20.461902"
       y="33.322407"
       width="58.601474"
       height="43.884815"
       id="rect62841-8" />
    <rect
       x="22.185475"
       y="31.863999"
       width="60.899571"
       height="47.464543"
       id="rect54537-4" />
    <rect
       x="22.273864"
       y="44.901281"
       width="27.577164"
       height="20.064155"
       id="rect51159-7" />
    <rect
       x="7.9107571"
       y="11.424194"
       width="21.412077"
       height="13.766485"
       id="rect39710-4" />
    <rect
       x="-24.041631"
       y="-11.313708"
       width="105.53569"
       height="62.57895"
       id="rect36404-6" />
    <rect
       x="-0.015625"
       y="0.015625"
       width="25.9375"
       height="25.984375"
       id="rect3373-4" />
    <rect
       x="20.461902"
       y="33.322407"
       width="58.601474"
       height="43.884815"
       id="rect62841-3" />
    <rect
       x="22.185475"
       y="31.863999"
       width="60.899571"
       height="47.464543"
       id="rect54537-1" />
    <rect
       x="22.273864"
       y="44.901281"
       width="27.577164"
       height="20.064155"
       id="rect51159-3" />
    <rect
       x="7.9107571"
       y="11.424194"
       width="21.412077"
       height="13.766485"
       id="rect39710-6" />
    <rect
       x="-24.041631"
       y="-11.313708"
       width="105.53569"
       height="62.57895"
       id="rect36404-3" />
    <rect
       x="-0.015625"
       y="0.015625"
       width="25.9375"
       height="25.984375"
       id="rect3373-0" />
  </defs>
  <sodipodi:namedview
     id="namedview10052"
     pagecolor="#505050"
     bordercolor="#eeeeee"
     borderopacity="1"
     inkscape:pageshadow="0"
     inkscape:pageopacity="0"
     inkscape:pagecheckerboard="0"
     showgrid="false"
     inkscape:zoom="45.254834"
     inkscape:cx="11.877184"
     inkscape:cy="9.4796503"
     inkscape:window-width="3840"
     inkscape:window-height="2067"
     inkscape:window-x="-12"
     inkscape:window-y="40"
     inkscape:window-maximized="1"
     inkscape:current-layer="svg10050"
     showguides="true"
     inkscape:guide-bbox="true"
     inkscape:snap-global="true"
     inkscape:snap-bbox="true"
     inkscape:bbox-paths="true"
     inkscape:bbox-nodes="true"
     inkscape:snap-bbox-midpoints="true">
    <sodipodi:guide
       position="4.2644576,19.829033"
       orientation="0,-1"
       id="guide14698" />
    <sodipodi:guide
       position="28.180938,9.8624362"
       orientation="0,-1"
       id="guide14700" />
    <sodipodi:guide
       position="2.0751949,23.924805"
       orientation="0,-1"
       id="guide41587" />
    <sodipodi:guide
       position="2.0751949,2.075195"
       orientation="0,-1"
       id="guide41589" />
  </sodipodi:namedview>
  <path
     id="path77409"
     style="font-size:10.5833px;line-height:1.25;font-family:Sovngarde;-inkscape-font-specification:Sovngarde;letter-spacing:0px;fill:#f1edf8;fill-opacity:1;stroke-width:0.451387"
     d="m 16.919922,6.2070312 c -1.55276,-2e-7 -2.330763,0.7585159 -2.673828,1.9140626 h 0.002 c -0.397215,1.3541559 1.173258,1.6972213 1.046875,1.625 -0.198616,-0.1263825 -0.03711,-0.578125 -0.03711,-0.578125 0.415282,-1.6249882 1.535157,-1.6425782 1.535157,-1.6425782 0.722213,0 0.97479,0.1798628 1.263672,0.46875 0.469448,0.4874962 0.451561,1.3187118 0.289062,1.8964844 -0.180549,0.595829 -0.559685,1.009941 -0.740234,1.298828 -0.144501,0.216664 -0.614405,0.777521 -0.867188,1.066406 -0.559714,0.613886 -0.684915,0.704431 -1.226562,1.246094 -0.938897,0.938883 -1.228696,1.227736 -1.517578,1.552735 l -0.01758,1.082031 h 5.191407 c -0.621702,-0.67821 -0.228867,-0.23813 -0.859375,-0.947266 -0.09626,-0.108262 -0.193046,-0.215845 -0.289063,-0.324219 -0.233355,0.07652 -0.558552,0.117188 -0.847656,0.117188 h -1.011719 c 0.433332,-0.505553 0.09164,-0.107817 0.6875,-0.757813 l 1.408203,-1.625 C 18.418398,12.401 19.572886,11.100425 19.771484,10.035156 19.897901,9.2948828 19.935054,7.801297 18.960938,6.984375 L 18.422633,7.1309347 18.815059,6.8558265 C 18.108028,6.379264 17.579099,6.2070313 16.919922,6.2070312 Z m 1.894531,7.6914068 c -0.198616,0.487495 -0.415626,0.722744 -0.578125,0.867187 -0.03798,0.02762 -0.08719,0.05188 -0.142578,0.07422 0.215041,0.251615 0.381633,0.439123 0.626953,0.71289 0.174658,0.194912 0.350015,0.389497 0.525391,0.583985 H 19.375 l 0.396484,-2.238281 z"
     sodipodi:nodetypes="scccccccccccccscscccccccscccscccc" />
  <path
     d="m 11.990827,14.515534 c 0,0 -1.4238,0.432547 -2.7394603,0.432547 -1.08137,0 -1.045336,-1.694141 -1.045336,-1.694141 V 9.3970661 l -0.09009,0.054069 -0.09009,0.09012 -0.07203,-0.054068 h -0.09009 v -0.09012 l 0.05398,0.03605 v -0.072086 l 0.0361,-0.054069 h 0.14424 v -0.072086 l 0.144239,-0.072086 v -1.405776 c 0,-0.774978 0.342429,-0.9191612 0.342429,-0.9191612 V 6.1890325 h -2.306897 v 0.5947519 c 0.414531,0.1982517 0.37848,0.9011389 0.37848,0.9011389 V 8.796875 c 0,0 0.1835937,0.1328125 0.5390625,0.2851563 C 6.8867704,9.0546875 6.6563017,8.9414063 6.6563017,8.9414063 l 0,4.1863957 c 0,1.676119 -0.450566,2.054597 -0.450566,2.054597 l -0.0361,0.973231 h 2.685391 v -0.01802 l 2.4510993,0.01802 c 0,0 0.666841,-0.01802 1.261594,0 v -1.640074 z"
     id="path77411"
     style="font-size:10.5833px;line-height:1.25;font-family:Sovngarde;-inkscape-font-specification:Sovngarde;letter-spacing:0px;fill:#f1edf8;fill-opacity:1;stroke-width:0.45057"
     sodipodi:nodetypes="cscccccccccccccsccccccccscccccccc" />
</svg>
