<?xml version="1.0" encoding="UTF-8" standalone="no"?>
<svg
   height="26.0px"
   width="35.75px"
   version="1.1"
   id="svg10"
   sodipodi:docname="optspaced.svg"
   inkscape:version="1.1 (c68e22c387, 2021-05-23)"
   xmlns:inkscape="http://www.inkscape.org/namespaces/inkscape"
   xmlns:sodipodi="http://sodipodi.sourceforge.net/DTD/sodipodi-0.dtd"
   xmlns="http://www.w3.org/2000/svg"
   xmlns:svg="http://www.w3.org/2000/svg">
  <defs
     id="defs14" />
  <sodipodi:namedview
     id="namedview12"
     pagecolor="#505050"
     bordercolor="#eeeeee"
     borderopacity="1"
     inkscape:pageshadow="0"
     inkscape:pageopacity="0"
     inkscape:pagecheckerboard="0"
     showgrid="true"
     inkscape:snap-global="true"
     inkscape:zoom="32"
     inkscape:cx="5.21875"
     inkscape:cy="19.53125"
     inkscape:window-width="3840"
     inkscape:window-height="2067"
     inkscape:window-x="-12"
     inkscape:window-y="40"
     inkscape:window-maximized="1"
     inkscape:current-layer="g8">
    <inkscape:grid
       type="xygrid"
       id="grid138" />
  </sodipodi:namedview>
  <g
     transform="matrix(1.0, 0.0, 0.0, 1.0, 0.0, 0.0)"
     id="g8">
    <g
       id="g15760"
       transform="translate(-1.1250003,2.9999994)">
      <path
         id="path10046"
         style="fill:#f1edf8;fill-opacity:1;stroke-width:1.08681"
         d="m 18.90625,-2.7148438 c -1.593982,0 -2.9716,0.5421006 -4.130859,1.6289062 -1.086806,1.1592593 -1.628907,2.5368778 -1.628907,4.1308594 v 2.2714843 c 0.08204,0.056503 0.168973,0.1200504 0.386719,0.2792969 0.0904,0.066111 0.180672,0.1305362 0.267578,0.2011719 0.287492,0.2336667 0.284264,0.2442435 0.513672,0.4589844 0.09119,0.085356 0.183711,0.1710338 0.275391,0.2558594 -0.183547,0.073666 -0.03727,0.1082641 0.09961,0.1445312 9.23e-4,-0.00178 0.001,-0.00409 0.0019,-0.00586 0.0073,-0.013746 0.02523,0.00356 0.04102,0.015625 V 4.1542968 L 13.410156,2.4921874 c -0.0628,-0.078892 1.337555,0.6849585 1.34375,0.5859375 0.06245,-0.9932281 0.4243,-2.4016684 1.136719,-3.1386719 0.801446,-0.8291043 1.769337,-1.2285156 2.875,-1.2285156 h 0.429687 c 1.105668,0 2.064183,0.4087788 2.875,1.2285156 0.773969,0.8197368 1.160157,1.7903801 1.160157,2.9082031 v 1.8164063 c 0.04328,-0.00982 0.08665,-0.020451 0.130859,-0.025391 0.284027,-0.031753 0.566821,-0.019169 0.851563,-0.011719 0.245585,0.00955 0.206407,0.011432 0.466797,0 0.04992,-0.00219 0.09896,-0.00283 0.148437,-0.00977 l 0.02539,-0.00586 V 3.0449218 c 0,-1.1230324 -0.271048,-2.1188368 -0.814454,-2.9882813 l -0.869139,-1.1425781 c -1.15926,-1.0868056 -2.518418,-1.6289062 -4.076172,-1.6289062 z m 5.882812,10.2382817 c -0.01811,0.0036 -0.03148,0.02104 -0.04883,0.02734 -0.110008,0.04014 -0.131548,0.03922 -0.230468,0.04102 -0.05965,0.0098 -0.118625,0.0167 -0.177735,0.0293 -0.48716,0.103848 0.06749,0.01309 -0.554687,0.126953 -0.140208,0.02566 -0.283943,0.02128 -0.421875,0.0625 -0.04211,0.0081 -0.08348,0.01869 -0.125,0.0293 v 9.3144531 c 0,1.080562 -0.348496,2.085665 -1.160157,2.90625 -0.811656,0.820582 -1.806188,1.173828 -2.875,1.173828 h -0.429687 c -1.105667,0 -2.082395,-0.372507 -2.875,-1.173828 -0.792604,-0.80133 -1.162421,-1.788434 -1.162107,-2.906257 l 0.0019,-3.449219 c -0.0481,0.02533 -0.09587,0.05061 -0.144532,0.07422 -0.395223,0.191773 -0.09201,0.01423 -0.613281,0.296875 -0.108766,0.05898 -0.213609,0.12487 -0.320312,0.1875 -0.319114,0.187307 -0.388775,0.229124 -0.50586,0.298828 v 2.392578 c 0,1.557754 0.542101,2.916912 1.628906,4.076172 1.15926,1.123032 2.536878,1.683594 4.13086,1.683594 h 0.1875 c 1.557754,0 2.916912,-0.560562 4.076172,-1.683594 l 0.86914,-1.087891 c 0.543406,-0.905671 0.814454,-1.901475 0.814454,-2.988281 V 7.5292979 c -0.0019,8.6e-5 -0.0039,-5.3e-5 -0.0059,0 -0.01964,5e-4 -0.03931,-0.0097 -0.05859,-0.0059 z"
         sodipodi:nodetypes="scscssscccccccssscscccsccsccsscccssccsssscccccscscssccscccc" />
      <g
         aria-label="OPT"
         transform="matrix(1.3758475,0,0,1.3758475,6.0435571,-0.75291355)"
         id="text4302"
         style="font-size:12px;line-height:1.25;font-family:Sovngarde;-inkscape-font-specification:Sovngarde;letter-spacing:0px;white-space:pre;shape-inside:url(#rect4304);fill:#f1edf8;fill-opacity:1">
        <path
           id="path8004"
           style="fill:#f1edf8;fill-opacity:1;stroke-width:1.37585"
           transform="matrix(0.72682472,0,0,0.72682472,-0.03165838,-1.6332381)"
           d="m 4.8847656,8.4355469 c -2.4765255,0 -4.49023435,2.0968081 -4.49023435,4.5898441 0,2.476525 2.01370885,4.523437 4.49023435,4.523437 2.4765256,0 4.4921875,-2.046912 4.4921875,-4.523437 0,-2.493036 -2.0156619,-4.5898441 -4.4921875,-4.5898441 z m 0,1.4355469 c 1.8326289,0 2.6757813,1.6847092 2.6757813,3.1210942 0,1.766587 -0.8429697,3.08789 -2.6425781,3.08789 -1.6675273,0 -2.7402344,-1.156018 -2.7402344,-3.054687 0,-0.247653 0.033386,-0.49542 0.066406,-0.726563 l -0.083984,-0.214844 -0.1152343,-0.06641 0.017578,-0.06641 0.2089844,-0.05664 c 0.018488,0.0167 0.036199,0.03177 0.054687,0.04102 0,-0.693427 0.9571072,-2.0644533 2.5585937,-2.0644532 z" />
        <path
           d="m 9.9150699,8.2894844 c 0,0 2.1120001,0 2.1120001,-1.8 0,-2.004 -2.1360001,-1.992 -2.1360001,-1.992 h -2.436 v 0.06 0.36 l 0.228,0.24 v 0.18 l 0.048,0.036 v 0.624 h 0.06 v 0.132 l 0.192,0.048 0.216,0.036 -0.048,0.06 h -0.324 l -0.048,0.096 -0.024,0.12 v 3.3 c 0,0 0.012,0.6719996 -0.3,0.8759996 v 0.468 h 1.608 v -0.48 c 0,0 -0.324,-0.108 -0.276,-0.7559996 v -2.484 l -0.084,-0.072 0.024,-0.048 0.048,-0.012 v -0.756 l -0.024,-0.072 -0.048,-0.096 0.012,-0.252 0.024,-0.072 0.036,0.048 v -0.06 -0.6 H 10.02307 c 0,0 1.02,0.012 1.056,1.056 0,0 0.132,1.02 -1.6320001,0.924 h -0.048 v 0.6 z"
           id="path8006"
           style="fill:#f1edf8;fill-opacity:1" />
        <path
           id="path8008"
           style="fill:#f1edf8;fill-opacity:1;stroke-width:1.37585"
           transform="matrix(0.72682472,0,0,0.72682472,-0.03165838,-1.6332381)"
           d="m 17.927734,8.4355469 v 1.5839841 h 0.414063 c 0,0 0.196707,-0.4941404 1.154297,-0.4941404 h 1.023437 c 0.528326,0 0.529297,0.4121094 0.529297,0.4121094 v 5.910156 c -0.03302,1.122691 -0.363281,1.138672 -0.363281,1.138672 l 0.01563,0.578125 h 2.064453 v -0.59375 c -0.346714,-0.08255 -0.363281,-1.105469 -0.363281,-1.105469 v -4.226562 l -0.08203,0.04883 -0.06641,0.08203 -0.06641,-0.04883 h -0.08203 l -0.01758,-0.08203 0.05078,0.0332 0.01563,-0.05078 0.0332,-0.04883 h 0.115234 l 0.01758,-0.06641 0.115235,-0.06641 V 9.8378906 c 0,-0.297183 0.378906,-0.3125 0.378906,-0.3125 h 1.238281 c 0,0 1.040679,-0.017675 1.15625,0.4941404 H 25.60547 V 8.4355469 Z" />
      </g>
    </g>
  </g>
</svg>
