<?xml version="1.0" encoding="UTF-8" standalone="no"?>
<svg
   height="26.0px"
   width="26.0px"
   version="1.1"
   id="svg10050"
   sodipodi:docname="pscirclaligned.svg"
   inkscape:version="1.1 (c68e22c387, 2021-05-23)"
   xmlns:inkscape="http://www.inkscape.org/namespaces/inkscape"
   xmlns:sodipodi="http://sodipodi.sourceforge.net/DTD/sodipodi-0.dtd"
   xmlns="http://www.w3.org/2000/svg"
   xmlns:svg="http://www.w3.org/2000/svg">
  <defs
     id="defs10054">
    <rect
       x="20.461902"
       y="33.322407"
       width="58.601474"
       height="43.884815"
       id="rect62841" />
    <rect
       x="22.185475"
       y="31.863999"
       width="60.899571"
       height="47.464543"
       id="rect54537" />
    <rect
       x="22.273864"
       y="44.901281"
       width="27.577164"
       height="20.064155"
       id="rect51159" />
    <rect
       x="7.9107571"
       y="11.424194"
       width="21.412077"
       height="13.766485"
       id="rect39710" />
    <rect
       x="-24.041631"
       y="-11.313708"
       width="105.53569"
       height="62.57895"
       id="rect36404" />
    <rect
       x="-0.015625"
       y="0.015625"
       width="25.9375"
       height="25.984375"
       id="rect3373" />
  </defs>
  <sodipodi:namedview
     id="namedview10052"
     pagecolor="#505050"
     bordercolor="#eeeeee"
     borderopacity="1"
     inkscape:pageshadow="0"
     inkscape:pageopacity="0"
     inkscape:pagecheckerboard="0"
     showgrid="false"
     inkscape:zoom="45.254834"
     inkscape:cx="8.6510095"
     inkscape:cy="14.473592"
     inkscape:window-width="3840"
     inkscape:window-height="2067"
     inkscape:window-x="-12"
     inkscape:window-y="40"
     inkscape:window-maximized="1"
     inkscape:current-layer="svg10050" />
  <path
     d="m 11.923876,5.3199944 c 1.229291,-0.1780157 2.462476,-0.043842 3.699591,0.4025197 1.202759,0.4338898 2.198476,1.0649197 2.987112,1.8931276 l 0.184441,0.2838425 c 0,0 -0.488882,0.3785197 -0.638249,0.8935183 -0.244158,0.676535 -0.67525,0.945373 -0.67525,0.945373 l 1.153587,-0.520176 c 0.571238,-0.322016 0.857537,-0.246425 0.857537,-0.246425 l 0.50434,0.775256 0.131906,0.2804415 c 0.775596,1.83326 0.8225,3.694904 0.140598,5.584933 -0.694224,1.924422 -1.924989,3.344579 -3.692334,4.260472 l -0.280441,0.131906 c -0.79491,0.373417 -1.598022,0.60805 -2.40926,0.703748 -1.135748,0.134173 -2.305021,-0.01512 -3.50778,-0.449802 C 9.1425593,19.812442 8.1076869,19.128423 7.2751325,18.20671 L 6.0389624,16.304398 C 5.1039073,14.374798 5.0020869,12.396253 5.7335766,10.368764 6.4525939,8.3756291 7.7878632,6.934911 9.7394601,6.0466086 L 11.923952,5.3200322 m -1.059893,2.938167 -0.140221,0.065764 C 9.4145341,8.9390435 8.5181436,9.9166935 8.0346664,11.256915 7.5387924,12.631491 7.5984333,13.97345 8.213438,15.282754 l 0.065764,0.140221 c 0.086173,0.166677 0.1791496,0.326173 0.2789292,0.478639 0.026457,0.04233 -0.2271496,0.144 -0.3666142,0.677972 -0.067276,0.258141 -0.5850709,0.839622 -0.646337,0.912831 -0.1995591,0.238488 1.3234016,-1.162847 1.3913575,-1.082721 0.5758488,0.678916 1.3186395,1.182425 2.2283335,1.510601 1.271471,0.458684 2.519887,0.442999 3.745248,-0.04724 l 0.261921,-0.08013 c 1.309342,-0.61508 2.211893,-1.609927 2.707767,-2.984504 0.483477,-1.34022 0.417676,-2.664982 -0.197291,-3.974286 L 17.55061,10.553696 C 16.932658,9.3598935 15.987965,8.5336515 14.716494,8.0749677 13.410629,7.6038874 12.126421,7.6649268 10.863907,8.2578968"
     fill="#cccccc"
     fill-rule="evenodd"
     stroke="none"
     id="path15753-9"
     sodipodi:nodetypes="csccccccccscsssccscccssscsssssccsscsc"
     style="fill:#f1edf8;fill-opacity:1;stroke-width:1.09596" />
</svg>
