<?xml version="1.0" encoding="UTF-8" standalone="no"?>
<svg
   height="26.0px"
   width="35.75px"
   version="1.1"
   id="svg10"
   sodipodi:docname="pspad.svg"
   inkscape:version="1.1 (c68e22c387, 2021-05-23)"
   xmlns:inkscape="http://www.inkscape.org/namespaces/inkscape"
   xmlns:sodipodi="http://sodipodi.sourceforge.net/DTD/sodipodi-0.dtd"
   xmlns="http://www.w3.org/2000/svg"
   xmlns:svg="http://www.w3.org/2000/svg">
  <defs
     id="defs14">
    <rect
       x="-10"
       y="-2"
       width="26"
       height="16"
       id="rect1661" />
  </defs>
  <sodipodi:namedview
     id="namedview12"
     pagecolor="#505050"
     bordercolor="#eeeeee"
     borderopacity="1"
     inkscape:pageshadow="0"
     inkscape:pageopacity="0"
     inkscape:pagecheckerboard="0"
     showgrid="false"
     inkscape:snap-global="true"
     inkscape:zoom="64"
     inkscape:cx="14.1875"
     inkscape:cy="11.78125"
     inkscape:window-width="3840"
     inkscape:window-height="2067"
     inkscape:window-x="-12"
     inkscape:window-y="40"
     inkscape:window-maximized="1"
     inkscape:current-layer="g8"
     showguides="false" />
  <g
     transform="matrix(1.0, 0.0, 0.0, 1.0, 0.0, 0.0)"
     id="g8">
    <path
       d="M 32.519474,2.9403699 C 31.708656,2.1206331 30.750416,1.7107646 29.644751,1.7107646 H 6.0347103 c -1.105663,0 -2.0732771,0.400501 -2.8747239,1.2296053 C 2.4475679,3.6773734 2.0853897,5.0855929 2.0229351,6.0788209 2.0167051,6.1778419 0.61711311,5.4138353 0.6799112,5.4927278 l 1.3227686,1.6617784 -0.00365,13.0003368 c -3.138e-4,1.117821 0.3683402,2.105016 1.1609463,2.90634 0.792606,0.801321 1.7690567,1.173712 2.8747241,1.173712 H 29.644747 c 1.068808,0 2.063067,-0.353132 2.874724,-1.173712 0.811658,-0.820586 1.160947,-1.825778 1.160947,-2.90634 V 5.8467097 c 0,-1.1178231 -0.386982,-2.086603 -1.160947,-2.9063398 M 34.489153,3.05573 c 0.543403,0.8694444 0.815104,1.8656829 0.815104,2.9887154 V 19.955556 c 0,1.086805 -0.271701,2.083045 -0.815104,2.988715 l -0.869445,1.086805 c -1.159259,1.123032 -2.517766,1.684548 -4.075521,1.684548 H 6.1755222 c -1.5939816,0 -2.970602,-0.561516 -4.1298613,-1.684548 C 0.9588553,22.871817 0.4154525,21.513309 0.4154525,19.955556 V 6.0444454 c 0,-1.5939816 0.5434028,-2.970602 1.6302084,-4.1298613 C 3.2049202,0.8277784 4.5815406,0.2843756 6.1755222,0.2843756 H 29.544187 c 1.557755,0 2.916262,0.5434028 4.075521,1.6302085 L 34.489153,3.05573"
       fill="#a6a8ab"
       fill-rule="evenodd"
       stroke="none"
       id="path10046-7"
       sodipodi:nodetypes="cssssscsssssssccssccsscsscsscc"
       style="fill:#f1edf8;fill-opacity:1;stroke-width:1.08681" />
    <g
       id="text1659"
       style="font-size:12px;line-height:1.25;font-family:Sovngarde;-inkscape-font-specification:Sovngarde;letter-spacing:0px;white-space:pre;shape-inside:url(#rect1661)" />
    <g
       aria-label="-"
       transform="matrix(0.66673219,0,0,1.8971562,-1.6128129,-0.81160756)"
       id="text2063"
       style="font-size:13.522px;line-height:1.25;font-family:Sovngarde;-inkscape-font-specification:Sovngarde;letter-spacing:0px;fill:#f1edf8;fill-opacity:1;stroke-width:1.12683"
       inkscape:tile-cx="8.6545606"
       inkscape:tile-cy="7.0398308"
       inkscape:tile-w="2.7821699"
       inkscape:tile-h="1.5393388"
       inkscape:tile-x0="7.2634756"
       inkscape:tile-y0="6.2701614">
      <path
         d="m 12.362334,4.6099643 c 0,0 3.150626,-0.2433961 4.32704,0.081132 0,0 0.121698,-0.5679241 -0.09465,-0.9059741 0,0 -4.516348,-0.081132 -4.502826,0.094654 0.01352,0.027044 0.27044,0.7301881 0.27044,0.7301881 z"
         id="path3201"
         style="fill:#f1edf8;fill-opacity:1" />
    </g>
    <g
       aria-label="-"
       transform="matrix(0.66673219,0,0,1.8971562,-1.6128129,-0.81160756)"
       id="use3338"
       style="font-size:13.522px;line-height:1.25;font-family:Sovngarde;-inkscape-font-specification:Sovngarde;letter-spacing:0px;fill:#f1edf8;fill-opacity:1;stroke-width:1.12683"
       inkscape:tile-x0="7.2634756"
       inkscape:tile-y0="6.2701614">
      <path
         d="m 12.362334,4.6099643 c 0,0 3.150626,-0.2433961 4.32704,0.081132 0,0 0.121698,-0.5679241 -0.09465,-0.9059741 0,0 -4.516348,-0.081132 -4.502826,0.094654 0.01352,0.027044 0.27044,0.7301881 0.27044,0.7301881 z"
         id="path1332"
         style="fill:#f1edf8;fill-opacity:1" />
    </g>
    <g
       aria-label="-"
       transform="matrix(0.66673219,0,0,1.8971562,-1.6128129,3.0477151)"
       id="use3340"
       style="font-size:13.522px;line-height:1.25;font-family:Sovngarde;-inkscape-font-specification:Sovngarde;letter-spacing:0px;fill:#f1edf8;fill-opacity:1;stroke-width:1.12683"
       inkscape:tile-x0="7.2634756"
       inkscape:tile-y0="6.2701614">
      <path
         d="m 12.362334,4.6099643 c 0,0 3.150626,-0.2433961 4.32704,0.081132 0,0 0.121698,-0.5679241 -0.09465,-0.9059741 0,0 -4.516348,-0.081132 -4.502826,0.094654 0.01352,0.027044 0.27044,0.7301881 0.27044,0.7301881 z"
         id="path1328"
         style="fill:#f1edf8;fill-opacity:1" />
    </g>
    <g
       aria-label="-"
       transform="matrix(0.66673219,0,0,1.8971562,-1.6128129,6.9070378)"
       id="use3342"
       style="font-size:13.522px;line-height:1.25;font-family:Sovngarde;-inkscape-font-specification:Sovngarde;letter-spacing:0px;fill:#f1edf8;fill-opacity:1;stroke-width:1.12683"
       inkscape:tile-x0="7.2634756"
       inkscape:tile-y0="6.2701614">
      <path
         d="m 12.362334,4.6099643 c 0,0 3.150626,-0.2433961 4.32704,0.081132 0,0 0.121698,-0.5679241 -0.09465,-0.9059741 0,0 -4.516348,-0.081132 -4.502826,0.094654 0.01352,0.027044 0.27044,0.7301881 0.27044,0.7301881 z"
         id="path1324"
         style="fill:#f1edf8;fill-opacity:1" />
    </g>
    <g
       aria-label="-"
       transform="matrix(0.66673219,0,0,1.8971562,-1.6128129,10.766359)"
       id="use3344"
       style="font-size:13.522px;line-height:1.25;font-family:Sovngarde;-inkscape-font-specification:Sovngarde;letter-spacing:0px;fill:#f1edf8;fill-opacity:1;stroke-width:1.12683"
       inkscape:tile-x0="7.2634756"
       inkscape:tile-y0="6.2701614">
      <path
         d="m 12.362334,4.6099643 c 0,0 3.150626,-0.2433961 4.32704,0.081132 0,0 0.121698,-0.5679241 -0.09465,-0.9059741 0,0 -4.516348,-0.081132 -4.502826,0.094654 0.01352,0.027044 0.27044,0.7301881 0.27044,0.7301881 z"
         id="path1320"
         style="fill:#f1edf8;fill-opacity:1" />
    </g>
    <g
       aria-label="-"
       transform="matrix(0.66673219,0,0,1.8971562,3.3280631,-0.81160756)"
       id="use3346"
       style="font-size:13.522px;line-height:1.25;font-family:Sovngarde;-inkscape-font-specification:Sovngarde;letter-spacing:0px;fill:#f1edf8;fill-opacity:1;stroke-width:1.12683"
       inkscape:tile-x0="7.2634756"
       inkscape:tile-y0="6.2701614">
      <path
         d="m 12.362334,4.6099643 c 0,0 3.150626,-0.2433961 4.32704,0.081132 0,0 0.121698,-0.5679241 -0.09465,-0.9059741 0,0 -4.516348,-0.081132 -4.502826,0.094654 0.01352,0.027044 0.27044,0.7301881 0.27044,0.7301881 z"
         id="path1316"
         style="fill:#f1edf8;fill-opacity:1" />
    </g>
    <g
       aria-label="-"
       transform="matrix(0.66673219,0,0,1.8971562,3.3280631,3.0477151)"
       id="use3348"
       style="font-size:13.522px;line-height:1.25;font-family:Sovngarde;-inkscape-font-specification:Sovngarde;letter-spacing:0px;fill:#f1edf8;fill-opacity:1;stroke-width:1.12683"
       inkscape:tile-x0="7.2634756"
       inkscape:tile-y0="6.2701614">
      <path
         d="m 12.362334,4.6099643 c 0,0 3.150626,-0.2433961 4.32704,0.081132 0,0 0.121698,-0.5679241 -0.09465,-0.9059741 0,0 -4.516348,-0.081132 -4.502826,0.094654 0.01352,0.027044 0.27044,0.7301881 0.27044,0.7301881 z"
         id="path1312"
         style="fill:#f1edf8;fill-opacity:1" />
    </g>
    <g
       aria-label="-"
       transform="matrix(0.66673219,0,0,1.8971562,3.3280631,6.9070378)"
       id="use3350"
       style="font-size:13.522px;line-height:1.25;font-family:Sovngarde;-inkscape-font-specification:Sovngarde;letter-spacing:0px;fill:#f1edf8;fill-opacity:1;stroke-width:1.12683"
       inkscape:tile-x0="7.2634756"
       inkscape:tile-y0="6.2701614">
      <path
         d="m 12.362334,4.6099643 c 0,0 3.150626,-0.2433961 4.32704,0.081132 0,0 0.121698,-0.5679241 -0.09465,-0.9059741 0,0 -4.516348,-0.081132 -4.502826,0.094654 0.01352,0.027044 0.27044,0.7301881 0.27044,0.7301881 z"
         id="path1308"
         style="fill:#f1edf8;fill-opacity:1" />
    </g>
    <g
       aria-label="-"
       transform="matrix(0.66673219,0,0,1.8971562,3.3280631,10.766359)"
       id="use3352"
       style="font-size:13.522px;line-height:1.25;font-family:Sovngarde;-inkscape-font-specification:Sovngarde;letter-spacing:0px;fill:#f1edf8;fill-opacity:1;stroke-width:1.12683"
       inkscape:tile-x0="7.2634756"
       inkscape:tile-y0="6.2701614">
      <path
         d="m 12.362334,4.6099643 c 0,0 3.150626,-0.2433961 4.32704,0.081132 0,0 0.121698,-0.5679241 -0.09465,-0.9059741 0,0 -4.516348,-0.081132 -4.502826,0.094654 0.01352,0.027044 0.27044,0.7301881 0.27044,0.7301881 z"
         id="path1304"
         style="fill:#f1edf8;fill-opacity:1" />
    </g>
    <g
       aria-label="-"
       transform="matrix(0.66673219,0,0,1.8971562,8.268939,-0.81160756)"
       id="use3354"
       style="font-size:13.522px;line-height:1.25;font-family:Sovngarde;-inkscape-font-specification:Sovngarde;letter-spacing:0px;fill:#f1edf8;fill-opacity:1;stroke-width:1.12683"
       inkscape:tile-x0="7.2634756"
       inkscape:tile-y0="6.2701614">
      <path
         d="m 12.362334,4.6099643 c 0,0 3.150626,-0.2433961 4.32704,0.081132 0,0 0.121698,-0.5679241 -0.09465,-0.9059741 0,0 -4.516348,-0.081132 -4.502826,0.094654 0.01352,0.027044 0.27044,0.7301881 0.27044,0.7301881 z"
         id="path1300"
         style="fill:#f1edf8;fill-opacity:1" />
    </g>
    <g
       aria-label="-"
       transform="matrix(0.66673219,0,0,1.8971562,8.268939,3.0477151)"
       id="use3356"
       style="font-size:13.522px;line-height:1.25;font-family:Sovngarde;-inkscape-font-specification:Sovngarde;letter-spacing:0px;fill:#f1edf8;fill-opacity:1;stroke-width:1.12683"
       inkscape:tile-x0="7.2634756"
       inkscape:tile-y0="6.2701614">
      <path
         d="m 12.362334,4.6099643 c 0,0 3.150626,-0.2433961 4.32704,0.081132 0,0 0.121698,-0.5679241 -0.09465,-0.9059741 0,0 -4.516348,-0.081132 -4.502826,0.094654 0.01352,0.027044 0.27044,0.7301881 0.27044,0.7301881 z"
         id="path1296"
         style="fill:#f1edf8;fill-opacity:1" />
    </g>
    <g
       aria-label="-"
       transform="matrix(0.66673219,0,0,1.8971562,8.268939,6.9070378)"
       id="use3358"
       style="font-size:13.522px;line-height:1.25;font-family:Sovngarde;-inkscape-font-specification:Sovngarde;letter-spacing:0px;fill:#f1edf8;fill-opacity:1;stroke-width:1.12683"
       inkscape:tile-x0="7.2634756"
       inkscape:tile-y0="6.2701614">
      <path
         d="m 12.362334,4.6099643 c 0,0 3.150626,-0.2433961 4.32704,0.081132 0,0 0.121698,-0.5679241 -0.09465,-0.9059741 0,0 -4.516348,-0.081132 -4.502826,0.094654 0.01352,0.027044 0.27044,0.7301881 0.27044,0.7301881 z"
         id="path1292"
         style="fill:#f1edf8;fill-opacity:1" />
    </g>
    <g
       aria-label="-"
       transform="matrix(0.66673219,0,0,1.8971562,8.268939,10.766359)"
       id="use3360"
       style="font-size:13.522px;line-height:1.25;font-family:Sovngarde;-inkscape-font-specification:Sovngarde;letter-spacing:0px;fill:#f1edf8;fill-opacity:1;stroke-width:1.12683"
       inkscape:tile-x0="7.2634756"
       inkscape:tile-y0="6.2701614">
      <path
         d="m 12.362334,4.6099643 c 0,0 3.150626,-0.2433961 4.32704,0.081132 0,0 0.121698,-0.5679241 -0.09465,-0.9059741 0,0 -4.516348,-0.081132 -4.502826,0.094654 0.01352,0.027044 0.27044,0.7301881 0.27044,0.7301881 z"
         id="path1288"
         style="fill:#f1edf8;fill-opacity:1" />
    </g>
    <g
       aria-label="-"
       transform="matrix(0.66673219,0,0,1.8971562,13.209815,-0.81160756)"
       id="use3362"
       style="font-size:13.522px;line-height:1.25;font-family:Sovngarde;-inkscape-font-specification:Sovngarde;letter-spacing:0px;fill:#f1edf8;fill-opacity:1;stroke-width:1.12683"
       inkscape:tile-x0="7.2634756"
       inkscape:tile-y0="6.2701614">
      <path
         d="m 12.362334,4.6099643 c 0,0 3.150626,-0.2433961 4.32704,0.081132 0,0 0.121698,-0.5679241 -0.09465,-0.9059741 0,0 -4.516348,-0.081132 -4.502826,0.094654 0.01352,0.027044 0.27044,0.7301881 0.27044,0.7301881 z"
         id="path1284"
         style="fill:#f1edf8;fill-opacity:1" />
    </g>
    <g
       aria-label="-"
       transform="matrix(0.66673219,0,0,1.8971562,13.209815,3.0477151)"
       id="use3364"
       style="font-size:13.522px;line-height:1.25;font-family:Sovngarde;-inkscape-font-specification:Sovngarde;letter-spacing:0px;fill:#f1edf8;fill-opacity:1;stroke-width:1.12683"
       inkscape:tile-x0="7.2634756"
       inkscape:tile-y0="6.2701614">
      <path
         d="m 12.362334,4.6099643 c 0,0 3.150626,-0.2433961 4.32704,0.081132 0,0 0.121698,-0.5679241 -0.09465,-0.9059741 0,0 -4.516348,-0.081132 -4.502826,0.094654 0.01352,0.027044 0.27044,0.7301881 0.27044,0.7301881 z"
         id="path1280"
         style="fill:#f1edf8;fill-opacity:1" />
    </g>
    <g
       aria-label="-"
       transform="matrix(0.66673219,0,0,1.8971562,13.209815,6.9070378)"
       id="use3366"
       style="font-size:13.522px;line-height:1.25;font-family:Sovngarde;-inkscape-font-specification:Sovngarde;letter-spacing:0px;fill:#f1edf8;fill-opacity:1;stroke-width:1.12683"
       inkscape:tile-x0="7.2634756"
       inkscape:tile-y0="6.2701614">
      <path
         d="m 12.362334,4.6099643 c 0,0 3.150626,-0.2433961 4.32704,0.081132 0,0 0.121698,-0.5679241 -0.09465,-0.9059741 0,0 -4.516348,-0.081132 -4.502826,0.094654 0.01352,0.027044 0.27044,0.7301881 0.27044,0.7301881 z"
         id="path1276"
         style="fill:#f1edf8;fill-opacity:1" />
    </g>
    <g
       aria-label="-"
       transform="matrix(0.66673219,0,0,1.8971562,13.209815,10.766359)"
       id="use3368"
       style="font-size:13.522px;line-height:1.25;font-family:Sovngarde;-inkscape-font-specification:Sovngarde;letter-spacing:0px;fill:#f1edf8;fill-opacity:1;stroke-width:1.12683"
       inkscape:tile-x0="7.2634756"
       inkscape:tile-y0="6.2701614">
      <path
         d="m 12.362334,4.6099643 c 0,0 3.150626,-0.2433961 4.32704,0.081132 0,0 0.121698,-0.5679241 -0.09465,-0.9059741 0,0 -4.516348,-0.081132 -4.502826,0.094654 0.01352,0.027044 0.27044,0.7301881 0.27044,0.7301881 z"
         id="path1272"
         style="fill:#f1edf8;fill-opacity:1" />
    </g>
    <g
       aria-label="-"
       transform="matrix(0.66673219,0,0,1.8971562,18.15069,-0.81160756)"
       id="use3370"
       style="font-size:13.522px;line-height:1.25;font-family:Sovngarde;-inkscape-font-specification:Sovngarde;letter-spacing:0px;fill:#f1edf8;fill-opacity:1;stroke-width:1.12683"
       inkscape:tile-x0="7.2634756"
       inkscape:tile-y0="6.2701614">
      <path
         d="m 12.362334,4.6099643 c 0,0 3.150626,-0.2433961 4.32704,0.081132 0,0 0.121698,-0.5679241 -0.09465,-0.9059741 0,0 -4.516348,-0.081132 -4.502826,0.094654 0.01352,0.027044 0.27044,0.7301881 0.27044,0.7301881 z"
         id="path1268"
         style="fill:#f1edf8;fill-opacity:1" />
    </g>
    <g
       aria-label="-"
       transform="matrix(0.66673219,0,0,1.8971562,18.15069,3.0477151)"
       id="use3372"
       style="font-size:13.522px;line-height:1.25;font-family:Sovngarde;-inkscape-font-specification:Sovngarde;letter-spacing:0px;fill:#f1edf8;fill-opacity:1;stroke-width:1.12683"
       inkscape:tile-x0="7.2634756"
       inkscape:tile-y0="6.2701614">
      <path
         d="m 12.362334,4.6099643 c 0,0 3.150626,-0.2433961 4.32704,0.081132 0,0 0.121698,-0.5679241 -0.09465,-0.9059741 0,0 -4.516348,-0.081132 -4.502826,0.094654 0.01352,0.027044 0.27044,0.7301881 0.27044,0.7301881 z"
         id="path1264"
         style="fill:#f1edf8;fill-opacity:1" />
    </g>
    <g
       aria-label="-"
       transform="matrix(0.66673219,0,0,1.8971562,18.15069,6.9070378)"
       id="use3374"
       style="font-size:13.522px;line-height:1.25;font-family:Sovngarde;-inkscape-font-specification:Sovngarde;letter-spacing:0px;fill:#f1edf8;fill-opacity:1;stroke-width:1.12683"
       inkscape:tile-x0="7.2634756"
       inkscape:tile-y0="6.2701614">
      <path
         d="m 12.362334,4.6099643 c 0,0 3.150626,-0.2433961 4.32704,0.081132 0,0 0.121698,-0.5679241 -0.09465,-0.9059741 0,0 -4.516348,-0.081132 -4.502826,0.094654 0.01352,0.027044 0.27044,0.7301881 0.27044,0.7301881 z"
         id="path1260"
         style="fill:#f1edf8;fill-opacity:1" />
    </g>
    <g
       aria-label="-"
       transform="matrix(0.66673219,0,0,1.8971562,18.15069,10.766359)"
       id="use3376"
       style="font-size:13.522px;line-height:1.25;font-family:Sovngarde;-inkscape-font-specification:Sovngarde;letter-spacing:0px;fill:#f1edf8;fill-opacity:1;stroke-width:1.12683"
       inkscape:tile-x0="7.2634756"
       inkscape:tile-y0="6.2701614">
      <path
         d="m 12.362334,4.6099643 c 0,0 3.150626,-0.2433961 4.32704,0.081132 0,0 0.121698,-0.5679241 -0.09465,-0.9059741 0,0 -4.516348,-0.081132 -4.502826,0.094654 0.01352,0.027044 0.27044,0.7301881 0.27044,0.7301881 z"
         id="path1256"
         style="fill:#f1edf8;fill-opacity:1" />
    </g>
  </g>
</svg>
