<?xml version="1.0" encoding="UTF-8" standalone="no"?>
<svg
   height="26.0px"
   width="26.0px"
   version="1.1"
   id="svg2528"
   sodipodi:docname="pstrialigned.svg"
   inkscape:version="1.1 (c68e22c387, 2021-05-23)"
   xmlns:inkscape="http://www.inkscape.org/namespaces/inkscape"
   xmlns:sodipodi="http://sodipodi.sourceforge.net/DTD/sodipodi-0.dtd"
   xmlns="http://www.w3.org/2000/svg"
   xmlns:svg="http://www.w3.org/2000/svg">
  <defs
     id="defs2532">
    <rect
       x="20.461902"
       y="33.322407"
       width="58.601474"
       height="43.884815"
       id="rect62841" />
    <rect
       x="22.185475"
       y="31.863999"
       width="60.899571"
       height="47.464543"
       id="rect54537" />
    <rect
       x="22.273864"
       y="44.901281"
       width="27.577164"
       height="20.064155"
       id="rect51159" />
    <rect
       x="7.9107571"
       y="11.424194"
       width="21.412077"
       height="13.766485"
       id="rect39710" />
    <rect
       x="-24.041631"
       y="-11.313708"
       width="105.53569"
       height="62.57895"
       id="rect36404" />
    <rect
       x="-0.015625"
       y="0.015625"
       width="25.9375"
       height="25.984375"
       id="rect3373" />
    <rect
       x="-0.24430642"
       y="-0.18730159"
       width="8.2331264"
       height="12.915666"
       id="rect19852" />
    <rect
       x="-0.24430642"
       y="-0.18730159"
       width="8.2331264"
       height="12.915666"
       id="rect23144" />
    <rect
       x="-3.5405108"
       y="-2.2559007"
       width="34.778469"
       height="24.783576"
       id="rect7061" />
    <rect
       x="20.461902"
       y="33.322407"
       width="58.601474"
       height="43.884815"
       id="rect62841-0" />
    <rect
       x="22.185475"
       y="31.863999"
       width="60.899571"
       height="47.464543"
       id="rect54537-4" />
    <rect
       x="22.273864"
       y="44.901281"
       width="27.577164"
       height="20.064155"
       id="rect51159-0" />
    <rect
       x="7.9107571"
       y="11.424194"
       width="21.412077"
       height="13.766485"
       id="rect39710-5" />
    <rect
       x="-24.041631"
       y="-11.313708"
       width="105.53569"
       height="62.57895"
       id="rect36404-3" />
    <rect
       x="-0.015625"
       y="0.015625"
       width="25.9375"
       height="25.984375"
       id="rect3373-5" />
    <rect
       x="-39.75"
       y="-23.625"
       width="118.125"
       height="77.125"
       id="rect78098" />
    <rect
       x="-21.25"
       y="-13.125"
       width="134"
       height="88.375"
       id="rect75738" />
    <rect
       x="20.461902"
       y="33.322407"
       width="58.601474"
       height="43.884815"
       id="rect62841-3" />
    <rect
       x="22.185475"
       y="31.863999"
       width="60.899571"
       height="47.464543"
       id="rect54537-1" />
    <rect
       x="22.273864"
       y="44.901281"
       width="27.577164"
       height="20.064155"
       id="rect51159-8" />
    <rect
       x="7.9107571"
       y="11.424194"
       width="21.412077"
       height="13.766485"
       id="rect39710-6" />
    <rect
       x="-24.041631"
       y="-11.313708"
       width="105.53569"
       height="62.57895"
       id="rect36404-9" />
    <rect
       x="-0.015625"
       y="0.015625"
       width="25.9375"
       height="25.984375"
       id="rect3373-8" />
    <rect
       x="-0.24430642"
       y="-0.18730159"
       width="8.2331264"
       height="12.915666"
       id="rect19852-2" />
    <rect
       x="-0.24430642"
       y="-0.18730159"
       width="8.2331264"
       height="12.915666"
       id="rect23144-2" />
    <rect
       x="-0.24430642"
       y="-0.18730159"
       width="8.2331264"
       height="12.915666"
       id="rect19852-9" />
    <rect
       x="-0.24430642"
       y="-0.18730159"
       width="8.2331264"
       height="12.915666"
       id="rect23144-5" />
    <rect
       x="-3.5405108"
       y="-2.2559007"
       width="34.778469"
       height="24.783576"
       id="rect7061-1" />
    <rect
       x="-0.24430642"
       y="-0.18730159"
       width="8.2331264"
       height="12.915666"
       id="rect19852-23" />
    <rect
       x="-0.24430642"
       y="-0.18730159"
       width="8.2331264"
       height="12.915666"
       id="rect23144-4" />
    <rect
       x="-0.24430642"
       y="-0.18730159"
       width="8.2331264"
       height="12.915666"
       id="rect19852-3" />
    <rect
       x="-0.24430642"
       y="-0.18730159"
       width="8.2331264"
       height="12.915666"
       id="rect23144-1" />
    <rect
       x="-39.75"
       y="-23.625"
       width="118.125"
       height="77.125"
       id="rect78098-6" />
    <rect
       x="-21.25"
       y="-13.125"
       width="134"
       height="88.375"
       id="rect75738-4" />
    <rect
       x="20.461902"
       y="33.322407"
       width="58.601474"
       height="43.884815"
       id="rect62841-6" />
    <rect
       x="22.185475"
       y="31.863999"
       width="60.899571"
       height="47.464543"
       id="rect54537-6" />
    <rect
       x="22.273864"
       y="44.901281"
       width="27.577164"
       height="20.064155"
       id="rect51159-3" />
    <rect
       x="7.9107571"
       y="11.424194"
       width="21.412077"
       height="13.766485"
       id="rect39710-9" />
    <rect
       x="-24.041631"
       y="-11.313708"
       width="105.53569"
       height="62.57895"
       id="rect36404-6" />
    <rect
       x="-0.015625"
       y="0.015625"
       width="25.9375"
       height="25.984375"
       id="rect3373-9" />
    <rect
       x="20.461902"
       y="33.322407"
       width="58.601474"
       height="43.884815"
       id="rect62841-5" />
    <rect
       x="22.185475"
       y="31.863999"
       width="60.899571"
       height="47.464543"
       id="rect54537-3" />
    <rect
       x="22.273864"
       y="44.901281"
       width="27.577164"
       height="20.064155"
       id="rect51159-1" />
    <rect
       x="7.9107571"
       y="11.424194"
       width="21.412077"
       height="13.766485"
       id="rect39710-2" />
    <rect
       x="-24.041631"
       y="-11.313708"
       width="105.53569"
       height="62.57895"
       id="rect36404-09" />
    <rect
       x="-0.015625"
       y="0.015625"
       width="25.9375"
       height="25.984375"
       id="rect3373-29" />
    <rect
       x="20.461902"
       y="33.322407"
       width="58.601474"
       height="43.884815"
       id="rect62841-9" />
    <rect
       x="22.185475"
       y="31.863999"
       width="60.899571"
       height="47.464543"
       id="rect54537-2" />
    <rect
       x="22.273864"
       y="44.901281"
       width="27.577164"
       height="20.064155"
       id="rect51159-7" />
    <rect
       x="7.9107571"
       y="11.424194"
       width="21.412077"
       height="13.766485"
       id="rect39710-1" />
    <rect
       x="-24.041631"
       y="-11.313708"
       width="105.53569"
       height="62.57895"
       id="rect36404-8" />
    <rect
       x="-0.015625"
       y="0.015625"
       width="25.9375"
       height="25.984375"
       id="rect3373-9-6" />
    <rect
       x="20.461902"
       y="33.322407"
       width="58.601474"
       height="43.884815"
       id="rect62841-96" />
    <rect
       x="22.185475"
       y="31.863999"
       width="60.899571"
       height="47.464543"
       id="rect54537-23" />
    <rect
       x="22.273864"
       y="44.901281"
       width="27.577164"
       height="20.064155"
       id="rect51159-5" />
    <rect
       x="7.9107571"
       y="11.424194"
       width="21.412077"
       height="13.766485"
       id="rect39710-8" />
    <rect
       x="-24.041631"
       y="-11.313708"
       width="105.53569"
       height="62.57895"
       id="rect36404-0" />
    <rect
       x="-0.015625"
       y="0.015625"
       width="25.9375"
       height="25.984375"
       id="rect3373-2" />
  </defs>
  <sodipodi:namedview
     id="namedview2530"
     pagecolor="#505050"
     bordercolor="#eeeeee"
     borderopacity="1"
     inkscape:pageshadow="0"
     inkscape:pageopacity="0"
     inkscape:pagecheckerboard="0"
     showgrid="false"
     inkscape:zoom="16"
     inkscape:cx="4.90625"
     inkscape:cy="10.125"
     inkscape:window-width="3840"
     inkscape:window-height="2067"
     inkscape:window-x="-12"
     inkscape:window-y="40"
     inkscape:window-maximized="1"
     inkscape:current-layer="g2526"
     inkscape:snap-global="false"
     showguides="true"
     inkscape:guide-bbox="true"
     inkscape:snap-bbox="true"
     inkscape:bbox-paths="true"
     inkscape:bbox-nodes="true"
     inkscape:snap-intersection-paths="true"
     inkscape:object-paths="true"
     inkscape:snap-smooth-nodes="true"
     inkscape:snap-midpoints="true" />
  <g
     transform="translate(-0.05,-0.05)"
     id="g2526">
    <path
       d="M 13.050001,2.4663119 22.127586,17.976834 H 3.9724141 L 13.050001,2.4663119 M 7.7606981,15.761046 c 0,0 0.06311,-0.126328 -0.126765,0.214303 -0.268038,0.496989 -0.891795,0.723833 -0.891795,0.723833 0.422905,0.0727 1.206528,-0.462407 1.206528,-0.462407 0.542777,0.153313 0.797058,-0.370744 0.904279,-0.442226 l 9.4863579,-0.03351 -5.289302,-8.9346316 -2.283123,3.8566286 c -0.632983,-0.130513 -0.66694,-0.07583 -1.0909779,-0.359677 -0.07045,-0.04715 0.5541429,0.571946 0.8573079,0.754386 l -2.7725099,4.683294"
       fill="#cccccc"
       fill-rule="evenodd"
       stroke="none"
       id="path1611"
       style="fill:#f1edf8;fill-opacity:1;stroke-width:1.42955"
       sodipodi:nodetypes="cccccccsccccscc" />
  </g>
</svg>
