<?xml version="1.0" encoding="UTF-8" standalone="no"?>
<svg
   height="26.0px"
   width="26.0px"
   version="1.1"
   id="svg2528"
   sodipodi:docname="R3.svg"
   inkscape:version="1.1 (c68e22c387, 2021-05-23)"
   xmlns:inkscape="http://www.inkscape.org/namespaces/inkscape"
   xmlns:sodipodi="http://sodipodi.sourceforge.net/DTD/sodipodi-0.dtd"
   xmlns="http://www.w3.org/2000/svg"
   xmlns:svg="http://www.w3.org/2000/svg">
  <defs
     id="defs2532" />
  <sodipodi:namedview
     id="namedview2530"
     pagecolor="#505050"
     bordercolor="#eeeeee"
     borderopacity="1"
     inkscape:pageshadow="0"
     inkscape:pageopacity="0"
     inkscape:pagecheckerboard="0"
     showgrid="false"
     inkscape:zoom="32"
     inkscape:cx="4.46875"
     inkscape:cy="11.25"
     inkscape:window-width="3840"
     inkscape:window-height="2067"
     inkscape:window-x="-12"
     inkscape:window-y="40"
     inkscape:window-maximized="1"
     inkscape:current-layer="g2526" />
  <g
     transform="matrix(1.0, 0.0, 0.0, 1.0, -0.05, -0.05)"
     id="g2526">
    <g
       id="g4456"
       transform="matrix(0.44930776,0,0,0.44930776,8.7450874,13.196024)">
      <path
         d="m 4.3834614,3.6949911 c 0,0 -1.3599875,-1.4399925 -2.1200127,-3.15998747 0,0 4.9599875,-0.12 4.9599875,-5.47998243 0,-6.5199802 -7.03997489,-6.4399822 -7.03997489,-6.4399822 H -7.8964884 v 0.200012 1.1999966 l 0.7599874,0.7999975 v 0.5999962 l 0.159874,0.12 v 2.0399963 h 0.24 v 0.4399975 l 0.6399875,0.1599874 0.6800126,0.12 -0.1598741,0.2000126 h -1.08 l -0.1201889,0.3200126 -0.080126,0.3999987 V 6.6150087 c 0,0 -0.040063,2.5599912 -1.0399748,2.5599912 v 1.5599961 h 5.3999622 V 9.2150025 c 0,0 -0.9200126,0.2000126 -0.9200126,-2.5199925 v -8.0399736 l -0.280063,-0.24 0.080126,-0.1599874 h 0.159874 v -2.5199925 l -0.080126,-0.24 -0.159874,-0.3200126 0.040063,-0.7999975 0.080126,-0.2799874 0.119811,0.2000126 V -5.904941 -8.3049335 h 3.68001265 c 0,0 3.75998745,-0.039987 3.75998745,3.0399912 v 0.4400013 c 0,0 0.119811,3.1199887 -3.92001265,3.1199887 H -0.89691666 V 2.2950351 L 1.5030834,6.5350226 c 0,0 2.64,4.0799854 4.3999748,4.1999854 h 2.16 V 9.2950113 c 0,0 -2.3199874,-0.2799874 -3.6799748,-5.5999824 z"
         id="path77415"
         style="font-size:10.5833px;line-height:1.25;font-family:Sovngarde;-inkscape-font-specification:Sovngarde;letter-spacing:0px;fill:#f1edf8;fill-opacity:1;stroke-width:0.999999" />
      <path
         d="m 15.863398,-1.5449914 c 0,0 -0.08013,2.51999252 2.639963,1.59999503 2.000012,-0.67999749 5.52,0.63999874 5.52,2.67999117 0,1.9999938 -2.319988,4.1999887 -4.32,4.559985 -3.919975,0.72 -5.879963,-1.239995 -5.879963,-1.239995 0.04006,1.239995 -2.28,2.5599912 -1.880012,2.9599899 0.400025,0.3999988 1.8,1.3599953 5.599975,1.6799963 3.800012,0.279987 8.679987,-1.719995 9.439975,-7.3199774 0.760025,-5.5999824 -4.439963,-6.1599799 -4.439963,-6.1599799 0,0 3.039988,-2.079995 2.879963,-4.7599862 -0.199937,-2.7199895 -3.119963,-3.7599875 -4.95995,-3.7599875 -1.8,0 -4.08,0.559998 -5.799988,2.3999925 -1.360025,1.479995 -1.840025,1.5599962 -1.840025,1.5599962 0,1.239995 1.040013,4.1199875 1.120025,3.5599862 0.04006,-0.5199987 2.559988,-3.5599862 4.319963,-4.4399849 1.760012,-0.879995 3.72,-0.039987 3.84,1.959995 0.119811,1.9999937 -5.4,4.3199849 -6.239963,4.7199836 z"
         id="path77417"
         style="font-size:10.5833px;line-height:1.25;font-family:Sovngarde;-inkscape-font-specification:Sovngarde;letter-spacing:0px;fill:#f1edf8;fill-opacity:1;stroke-width:0.999999" />
    </g>
  </g>
</svg>
