<?xml version="1.0" encoding="UTF-8" standalone="no"?>
<svg
   height="26.0px"
   width="26.0px"
   version="1.1"
   id="svg10050"
   sodipodi:docname="righttrig.svg"
   inkscape:version="1.1 (c68e22c387, 2021-05-23)"
   xmlns:inkscape="http://www.inkscape.org/namespaces/inkscape"
   xmlns:sodipodi="http://sodipodi.sourceforge.net/DTD/sodipodi-0.dtd"
   xmlns="http://www.w3.org/2000/svg"
   xmlns:svg="http://www.w3.org/2000/svg">
  <defs
     id="defs10054">
    <rect
       x="20.461902"
       y="33.322407"
       width="58.601474"
       height="43.884815"
       id="rect62841" />
    <rect
       x="22.185475"
       y="31.863999"
       width="60.899571"
       height="47.464543"
       id="rect54537" />
    <rect
       x="22.273864"
       y="44.901281"
       width="27.577164"
       height="20.064155"
       id="rect51159" />
    <rect
       x="7.9107571"
       y="11.424194"
       width="21.412077"
       height="13.766485"
       id="rect39710" />
    <rect
       x="-24.041631"
       y="-11.313708"
       width="105.53569"
       height="62.57895"
       id="rect36404" />
    <rect
       x="-0.015625"
       y="0.015625"
       width="25.9375"
       height="25.984375"
       id="rect3373" />
    <rect
       x="20.461902"
       y="33.322407"
       width="58.601474"
       height="43.884815"
       id="rect62841-1" />
    <rect
       x="22.185475"
       y="31.863999"
       width="60.899571"
       height="47.464543"
       id="rect54537-5" />
    <rect
       x="22.273864"
       y="44.901281"
       width="27.577164"
       height="20.064155"
       id="rect51159-0" />
    <rect
       x="7.9107571"
       y="11.424194"
       width="21.412077"
       height="13.766485"
       id="rect39710-3" />
    <rect
       x="-24.041631"
       y="-11.313708"
       width="105.53569"
       height="62.57895"
       id="rect36404-7" />
    <rect
       x="-0.015625"
       y="0.015625"
       width="25.9375"
       height="25.984375"
       id="rect3373-1" />
    <rect
       x="20.461902"
       y="33.322407"
       width="58.601474"
       height="43.884815"
       id="rect62841-8" />
    <rect
       x="22.185475"
       y="31.863999"
       width="60.899571"
       height="47.464543"
       id="rect54537-4" />
    <rect
       x="22.273864"
       y="44.901281"
       width="27.577164"
       height="20.064155"
       id="rect51159-7" />
    <rect
       x="7.9107571"
       y="11.424194"
       width="21.412077"
       height="13.766485"
       id="rect39710-4" />
    <rect
       x="-24.041631"
       y="-11.313708"
       width="105.53569"
       height="62.57895"
       id="rect36404-6" />
    <rect
       x="-0.015625"
       y="0.015625"
       width="25.9375"
       height="25.984375"
       id="rect3373-4" />
    <rect
       x="20.461902"
       y="33.322407"
       width="58.601474"
       height="43.884815"
       id="rect62841-3" />
    <rect
       x="22.185475"
       y="31.863999"
       width="60.899571"
       height="47.464543"
       id="rect54537-1" />
    <rect
       x="22.273864"
       y="44.901281"
       width="27.577164"
       height="20.064155"
       id="rect51159-3" />
    <rect
       x="7.9107571"
       y="11.424194"
       width="21.412077"
       height="13.766485"
       id="rect39710-6" />
    <rect
       x="-24.041631"
       y="-11.313708"
       width="105.53569"
       height="62.57895"
       id="rect36404-3" />
    <rect
       x="-0.015625"
       y="0.015625"
       width="25.9375"
       height="25.984375"
       id="rect3373-0" />
  </defs>
  <sodipodi:namedview
     id="namedview10052"
     pagecolor="#505050"
     bordercolor="#eeeeee"
     borderopacity="1"
     inkscape:pageshadow="0"
     inkscape:pageopacity="0"
     inkscape:pagecheckerboard="0"
     showgrid="false"
     inkscape:zoom="64"
     inkscape:cx="19.195312"
     inkscape:cy="10.25"
     inkscape:window-width="3840"
     inkscape:window-height="2067"
     inkscape:window-x="-12"
     inkscape:window-y="40"
     inkscape:window-maximized="1"
     inkscape:current-layer="svg10050"
     showguides="true"
     inkscape:guide-bbox="true"
     inkscape:snap-global="true"
     inkscape:snap-bbox="true"
     inkscape:bbox-paths="true"
     inkscape:bbox-nodes="true"
     inkscape:snap-bbox-midpoints="true">
    <sodipodi:guide
       position="6.7353713,18.641564"
       orientation="0,-1"
       id="guide14698" />
    <sodipodi:guide
       position="28.180938,9.8624362"
       orientation="0,-1"
       id="guide14700" />
    <sodipodi:guide
       position="2.0751949,23.924805"
       orientation="0,-1"
       id="guide41587" />
    <sodipodi:guide
       position="2.0751949,2.075195"
       orientation="0,-1"
       id="guide41589" />
  </sodipodi:namedview>
  <g
     id="g8038"
     transform="matrix(0.17914956,0,0,0.17914956,25.020796,7.9641909)"
     style="fill:#f1edf8;fill-opacity:1">
    <path
       d="m -74.863001,30.026754 c 0,0 -3.012907,-3.19015 -4.696579,-7.000617 0,0 10.988242,-0.265847 10.988242,-12.140319 0,-14.4443242 -15.596317,-14.2670983 -15.596317,-14.2670983 h -17.900275 v 0.4431067 2.65846437 l 1.68367,1.77230963 v 1.3292279 l 0.35419,0.2658473 v 4.5193953 h 0.531693 v 0.9747678 l 1.417908,0.3544351 1.506412,0.2658473 -0.354184,0.4431067 h -2.392625 l -0.265429,0.7089542 -0.17751,0.886155 v 25.255407 c 0,0 -0.08876,5.671389 -2.303955,5.671389 v 3.456006 h 11.963044 v -3.367385 c 0,0 -2.038106,0.443107 -2.038106,-5.582776 V 18.861269 l -0.62045,-0.531694 0.177511,-0.354435 h 0.354184 v -5.582776 l -0.177511,-0.531695 -0.354184,-0.708954 0.08876,-1.7723094 0.177511,-0.6202824 0.266266,0.4431067 V 8.7591232 3.4421945 h 8.152677 c 0,0 8.329854,-0.088588 8.329854,6.7347785 v 0.974776 c 0,0 0.266266,6.912004 -8.684372,6.912004 h -2.126695 v 8.861548 l 5.316862,9.393242 c 0,0 5.84864,9.038774 9.747761,9.304621 h 4.785167 v -3.190159 c 0,0 -5.139686,-0.620282 -8.152593,-12.406167 z"
       id="path77439"
       style="font-size:10.5833px;line-height:1.25;font-family:Sovngarde;-inkscape-font-specification:Sovngarde;letter-spacing:0px;fill:#f1edf8;fill-opacity:1;stroke-width:2.21539" />
    <path
       d="m -25.503237,-3.3812803 h -41.206244 v 8.5070877 h 2.215366 c 0,0 1.06339,-2.6584644 6.203076,-2.6584644 1.772343,0 2.747144,0 5.494205,0 2.835732,0 2.835732,2.2153912 2.835732,2.2153912 V 36.407072 c -0.177511,6.02585 -1.949603,6.114471 -1.949603,6.114471 l 0.08876,3.101537 h 11.076913 v -3.190158 c -1.86093,-0.443107 -1.949518,-5.937237 -1.949518,-5.937237 V 13.810129 l -0.44294,0.265848 -0.354183,0.443106 -0.354184,-0.265847 h -0.44294 l -0.08875,-0.443107 0.265429,0.17726 0.08875,-0.265848 0.177511,-0.265847 h 0.620449 l 0.08876,-0.354435 0.62045,-0.354435 V 4.1511233 c 0,-1.5950752 2.03819,-1.6836966 2.03819,-1.6836966 h 6.646182 c 0,0 5.582709,-0.088588 6.203075,2.6584644 h 2.126778 z"
       id="path77441"
       style="font-size:10.5833px;line-height:1.25;font-family:Sovngarde;-inkscape-font-specification:Sovngarde;letter-spacing:0px;fill:#f1edf8;fill-opacity:1;stroke-width:2.21539" />
  </g>
</svg>
