<?xml version="1.0" encoding="UTF-8" standalone="no"?>
<svg
   height="26.0px"
   width="26.0px"
   version="1.1"
   id="svg10050"
   sodipodi:docname="Rone.svg"
   inkscape:version="1.1 (c68e22c387, 2021-05-23)"
   xmlns:inkscape="http://www.inkscape.org/namespaces/inkscape"
   xmlns:sodipodi="http://sodipodi.sourceforge.net/DTD/sodipodi-0.dtd"
   xmlns="http://www.w3.org/2000/svg"
   xmlns:svg="http://www.w3.org/2000/svg">
  <defs
     id="defs10054">
    <rect
       x="20.461902"
       y="33.322407"
       width="58.601474"
       height="43.884815"
       id="rect62841" />
    <rect
       x="22.185475"
       y="31.863999"
       width="60.899571"
       height="47.464543"
       id="rect54537" />
    <rect
       x="22.273864"
       y="44.901281"
       width="27.577164"
       height="20.064155"
       id="rect51159" />
    <rect
       x="7.9107571"
       y="11.424194"
       width="21.412077"
       height="13.766485"
       id="rect39710" />
    <rect
       x="-24.041631"
       y="-11.313708"
       width="105.53569"
       height="62.57895"
       id="rect36404" />
    <rect
       x="-0.015625"
       y="0.015625"
       width="25.9375"
       height="25.984375"
       id="rect3373" />
  </defs>
  <sodipodi:namedview
     id="namedview10052"
     pagecolor="#505050"
     bordercolor="#eeeeee"
     borderopacity="1"
     inkscape:pageshadow="0"
     inkscape:pageopacity="0"
     inkscape:pagecheckerboard="0"
     showgrid="false"
     inkscape:zoom="32"
     inkscape:cx="6.703125"
     inkscape:cy="5.625"
     inkscape:window-width="3840"
     inkscape:window-height="2067"
     inkscape:window-x="-12"
     inkscape:window-y="40"
     inkscape:window-maximized="1"
     inkscape:current-layer="svg10050"
     inkscape:snap-bbox="true" />
  <g
     id="g18988"
     transform="translate(1.7649137,0.01437174)">
    <path
       d="m 10.676385,14.796916 c 0,0 -0.61277,-0.648817 -0.9551975,-1.423796 0,0 2.2348215,-0.05407 2.2348215,-2.469116 0,-2.9377083 -3.1720187,-2.9016638 -3.1720187,-2.9016638 H 5.1434066 v 0.09012 0.5406824 l 0.3424276,0.3604547 v 0.2703403 l 0.072034,0.054069 v 0.9191614 h 0.1081369 v 0.198249 l 0.2883762,0.07209 0.3063763,0.05407 -0.072034,0.09012 H 5.7021079 l -0.053983,0.144188 -0.036102,0.180227 v 5.136482 c 0,0 -0.018051,1.153456 -0.4685814,1.153456 v 0.702887 h 2.4330613 v -0.684863 c 0,0 -0.4145131,0.09012 -0.4145131,-1.135433 v -3.622572 l -0.1261879,-0.108137 0.036102,-0.07209 h 0.072035 v -1.135433 l -0.036102,-0.108138 -0.072034,-0.144187 0.018051,-0.360455 0.036102,-0.126154 0.054154,0.09012 V 10.471471 9.3901058 H 8.802212 c 0,0 1.694138,-0.018017 1.694138,1.3697292 v 0.198251 c 0,0 0.05416,1.405774 -1.7662235,1.405774 H 8.2975789 v 1.802274 L 9.37893,16.076546 c 0,0 1.189505,1.838319 1.982514,1.892388 h 0.973215 v -0.64882 c 0,0 -1.045317,-0.126154 -1.658086,-2.523184 z"
       id="path77399"
       style="font-size:10.5833px;line-height:1.25;font-family:Sovngarde;-inkscape-font-specification:Sovngarde;letter-spacing:0px;fill:#f1edf8;fill-opacity:1;stroke-width:0.45057" />
    <path
       d="m 14.371037,8.7592962 c -0.829061,0 -0.216274,1.1534555 -0.216274,1.1534555 0,-0.3244088 0.52265,-0.3424327 0.52265,-0.3424327 0.504633,0 0.576736,0.4145234 0.576736,1.225547 v 4.433597 c 0,0.793001 -0.180223,1.71216 -0.576736,1.71216 H 14.46114 v 1.009274 h 2.865626 v -1.009274 h -0.216274 c -0.342428,0 -0.558702,-0.919159 -0.558702,-1.71216 V 8.0203641 h -0.486615 c -0.648821,0.486614 -0.919164,0.7389321 -1.658104,0.7389321 z"
       id="path77401"
       style="font-size:10.5833px;line-height:1.25;font-family:Sovngarde;-inkscape-font-specification:Sovngarde;letter-spacing:0px;fill:#f1edf8;fill-opacity:1;stroke-width:0.45057" />
  </g>
</svg>
