<?xml version="1.0" encoding="UTF-8" standalone="no"?>
<svg
   height="26.0px"
   width="26.0px"
   version="1.1"
   id="svg2528"
   sodipodi:docname="rsp.svg"
   inkscape:version="1.1 (c68e22c387, 2021-05-23)"
   xmlns:inkscape="http://www.inkscape.org/namespaces/inkscape"
   xmlns:sodipodi="http://sodipodi.sourceforge.net/DTD/sodipodi-0.dtd"
   xmlns="http://www.w3.org/2000/svg"
   xmlns:svg="http://www.w3.org/2000/svg">
  <defs
     id="defs2532">
    <rect
       x="0"
       y="2.2"
       width="14.501759"
       height="9.4160453"
       id="rect68503" />
    <rect
       x="0"
       y="2.2"
       width="14.501759"
       height="9.4160453"
       id="rect68503-3" />
  </defs>
  <sodipodi:namedview
     id="namedview2530"
     pagecolor="#505050"
     bordercolor="#eeeeee"
     borderopacity="1"
     inkscape:pageshadow="0"
     inkscape:pageopacity="0"
     inkscape:pagecheckerboard="0"
     showgrid="false"
     inkscape:zoom="32"
     inkscape:cx="3.703125"
     inkscape:cy="11.25"
     inkscape:window-width="3840"
     inkscape:window-height="2067"
     inkscape:window-x="-12"
     inkscape:window-y="40"
     inkscape:window-maximized="1"
     inkscape:current-layer="g2526" />
  <g
     transform="translate(-0.05,-0.05)"
     id="g2526">
    <g
       id="g85417"
       transform="translate(7.2499998,5.902788)">
      <g
         aria-label="RS"
         transform="matrix(2.8505049,0,0,2.8505049,-0.30251566,-8.0556994)"
         id="text68501"
         style="font-size:5.33333px;line-height:1.25;font-family:Sovngarde;-inkscape-font-specification:Sovngarde;letter-spacing:-0.52px;white-space:pre;shape-inside:url(#rect68503-3);fill:#f1edf8;fill-opacity:1">
        <path
           d="m 1.743999,6.1992164 c 0,0 -0.1813333,-0.1919999 -0.2826665,-0.4213331 0,0 0.6613329,-0.016 0.6613329,-0.7306662 0,-0.8693329 -0.9386661,-0.8586662 -0.9386661,-0.8586662 H 0.1066666 v 0.026667 0.16 l 0.10133328,0.1066666 v 0.08 l 0.0213333,0.016 v 0.2719998 h 0.032 v 0.058667 l 0.0853333,0.021333 0.0906666,0.016 -0.0213333,0.026667 H 0.27199984 l -0.016,0.042667 -0.0106667,0.053333 v 1.5199991 c 0,0 -0.005333,0.3413331 -0.13866659,0.3413331 v 0.207999 H 0.82666617 V 6.9352159 c 0,0 -0.12266659,0.026667 -0.12266659,-0.3359998 V 5.5272168 l -0.0373333,-0.032 0.0106667,-0.021333 h 0.0213333 V 5.1378837 l -0.0106667,-0.032 -0.0213333,-0.042667 0.005333,-0.1066666 0.0106667,-0.037333 0.016,0.026667 V 4.9192171 4.5992173 H 1.1893326 c 0,0 0.5013331,-0.00533 0.5013331,0.4053331 v 0.058667 c 0,0 0.016,0.4159998 -0.5226664,0.4159998 H 1.0399994 v 0.533333 l 0.3199998,0.565333 c 0,0 0.3519998,0.5439997 0.5866663,0.5599997 H 2.2346653 V 6.9458826 c 0,0 -0.3093331,-0.037333 -0.4906663,-0.7466662 z"
           id="path73427"
           style="fill:#f1edf8;fill-opacity:1" />
        <path
           d="M 4.0346583,4.545884 C 3.4479919,3.9752177 2.850659,4.3005508 2.850659,4.3005508 2.3759926,4.5085507 2.3973259,5.0472171 2.3973259,5.0472171 c 0.032,0.6559996 0.5279997,0.7573328 0.5279997,0.7573328 l 0.064,-0.00533 0.026667,-0.042667 0.037333,0.00533 0.053333,-0.053333 h 0.090667 C 3.058659,5.7832169 3.0213257,5.8685498 3.0213257,5.8685498 3.7786586,6.017883 3.7306586,6.3645495 3.7306586,6.3645495 3.7306586,6.7058826 3.1119923,6.679216 3.1119923,6.679216 2.5733258,6.6365494 2.4826592,6.2525497 2.4826592,6.2525497 H 2.2586593 V 6.7165494 C 2.4613259,7.1165492 3.1599921,7.1325491 3.1599921,7.1325491 3.7519918,7.1592158 3.9706583,6.8658826 3.9706583,6.8658826 4.2479915,6.5672161 4.1626582,6.2205497 4.1626582,6.2205497 4.0986582,5.8472166 3.6346585,5.64455 3.6346585,5.64455 3.2399921,5.4525501 3.1439921,5.3992168 3.1439921,5.3992168 2.738659,5.2232169 2.818659,4.9298838 2.818659,4.9298838 2.9253256,4.4498841 3.6506585,4.5885507 3.7893251,4.8978838 h 0.2453332 z"
           id="path73429"
           style="fill:#f1edf8;fill-opacity:1" />
      </g>
      <path
         d="m 7.2834701,2.2058304 c 0,0 2.3052453,-0.2022771 2.3543033,-0.2022771 0.2449648,0.031126 -3.6295737,2.147211 -3.6295737,2.147211 -0.046345,0 -0.046345,-0.015538 -0.097986,-0.031126 C 5.321638,3.8706844 1.6920634,2.1124607 1.9372924,2.065782 c 0,0 2.5995333,0.1867142 2.5995333,0.1867142 0,0 0.2939571,0.3423087 1.4223812,0.6690585 C 6.9892481,2.5014478 7.2835363,2.2058178 7.2835363,2.2058178 Z"
         style="font-size:7.40833px;line-height:1.25;font-family:Sovngarde;-inkscape-font-specification:Sovngarde;letter-spacing:3.57188px;fill:#f1edf8;stroke-width:0.98662"
         id="path167387-5" />
    </g>
  </g>
</svg>
