<?xml version="1.0" encoding="UTF-8" standalone="no"?>
<svg
   height="58.6px"
   width="152.2px"
   version="1.1"
   id="svg866"
   sodipodi:docname="RT LT.svg"
   inkscape:version="1.1 (c68e22c387, 2021-05-23)"
   xmlns:inkscape="http://www.inkscape.org/namespaces/inkscape"
   xmlns:sodipodi="http://sodipodi.sourceforge.net/DTD/sodipodi-0.dtd"
   xmlns="http://www.w3.org/2000/svg"
   xmlns:svg="http://www.w3.org/2000/svg">
  <defs
     id="defs870">
    <rect
       x="-2.9634947"
       y="-3.5873883"
       width="163.14818"
       height="73.073541"
       id="rect2362" />
  </defs>
  <sodipodi:namedview
     id="namedview868"
     pagecolor="#505050"
     bordercolor="#eeeeee"
     borderopacity="1"
     inkscape:pageshadow="0"
     inkscape:pageopacity="0"
     inkscape:pagecheckerboard="0"
     showgrid="false"
     inkscape:snap-page="true"
     inkscape:snap-bbox="true"
     inkscape:snap-to-guides="false"
     inkscape:snap-grids="false"
     inkscape:zoom="12.822699"
     inkscape:cx="54.434719"
     inkscape:cy="31.584615"
     inkscape:window-width="3840"
     inkscape:window-height="2067"
     inkscape:window-x="-12"
     inkscape:window-y="40"
     inkscape:window-maximized="1"
     inkscape:current-layer="svg866" />
  <path
     d="m 23.802705,42.58018 c 0,0 -5.655711,1.71819 -10.881873,1.71819 -4.2954765,0 -4.152294,-6.729579 -4.152294,-6.729579 V 22.24826 L 8.4105817,22.463033 8.0526253,22.82099 7.7662603,22.606216 H 7.4083039 V 22.24826 l 0.2147738,0.143182 v -0.286365 l 0.1431826,-0.214774 h 0.5727301 v -0.286365 l 0.5727302,-0.286365 v -5.584119 c 0,-3.078425 1.3602344,-3.651155 1.3602344,-3.651155 V 9.5050132 H 1.1082722 v 2.3625118 c 1.6465992,0.787504 1.5034167,3.579564 1.5034167,3.579564 v 21.620563 c 0,6.657988 -1.78978174,8.161405 -1.78978174,8.161405 L 0.67872462,49.094985 H 11.345824 v -0.07159 l 9.736412,0.07159 c 0,0 2.648877,-0.07159 5.011389,0 V 42.58018 Z"
     id="path5604"
     style="font-size:12px;line-height:1.25;font-family:Sovngarde;-inkscape-font-specification:Sovngarde;letter-spacing:0px;white-space:pre;fill:#ffffff;fill-opacity:1;stroke-width:5.96594" />
  <path
     d="m 49.729727,9.5050132 h -33.28994 v 6.8727618 h 1.789782 c 0,0 0.859095,-2.147738 5.011389,-2.147738 1.431825,0 2.219329,0 4.438658,0 2.290921,0 2.290921,1.789782 2.290921,1.789782 v 25.629674 c -0.143183,4.868207 -1.575008,4.939798 -1.575008,4.939798 l 0.07159,2.505694 h 8.948909 V 46.5177 C 35.912612,46.159743 35.841021,41.721085 35.841021,41.721085 V 23.39372 l -0.357956,0.214774 -0.286366,0.357956 -0.286365,-0.214774 h -0.357956 l -0.07159,-0.357956 0.214774,0.143182 0.07159,-0.214773 0.143182,-0.214774 h 0.501139 l 0.07159,-0.286365 0.501138,-0.286365 v -6.944354 c 0,-1.288642 1.6466,-1.360234 1.6466,-1.360234 h 5.369345 c 0,0 4.51025,-0.07159 5.011389,2.147738 h 1.71819 z"
     id="path5606"
     style="font-size:12px;line-height:1.25;font-family:Sovngarde;-inkscape-font-specification:Sovngarde;letter-spacing:0px;white-space:pre;fill:#ffffff;fill-opacity:1;stroke-width:5.96594" />
  <path
     d="m 113.35079,36.494963 c 0,0 -2.4341,-2.577286 -3.79434,-5.65571 0,0 8.87732,-0.214774 8.87732,-9.808004 0,-11.6693767 -12.60007,-11.5261947 -12.60007,-11.5261947 H 91.372266 v 0.357957 2.1477377 l 1.360234,1.431825 v 1.073869 l 0.286365,0.214774 v 3.651155 h 0.429548 v 0.787504 l 1.14546,0.286365 1.217052,0.214774 -0.286365,0.357956 h -1.932965 l -0.214773,0.57273 -0.143183,0.715913 v 20.403512 c 0,0 -0.07159,4.581841 -1.861373,4.581841 v 2.792059 h 9.664824 v -2.720468 c 0,0 -1.646602,0.357957 -1.646602,-4.51025 V 27.474463 l -0.501139,-0.429547 0.143183,-0.286366 h 0.286365 v -4.510249 l -0.143183,-0.429548 -0.286365,-0.57273 0.07159,-1.431826 0.143182,-0.501139 0.214774,0.357957 v -0.357957 -4.295476 h 6.586395 c 0,0 6.72959,-0.07159 6.72959,5.440937 v 0.787504 c 0,0 0.21477,5.584119 -7.01595,5.584119 h -1.71819 v 7.159127 l 4.29547,7.588674 c 0,0 4.72503,7.30231 7.87505,7.517083 h 3.86593 v -2.577285 c 0,0 -4.1523,-0.501139 -6.5864,-10.022778 z"
     id="path5608"
     style="font-size:12px;line-height:1.25;font-family:Sovngarde;-inkscape-font-specification:Sovngarde;letter-spacing:0px;white-space:pre;fill:#ffffff;fill-opacity:1;stroke-width:5.96594" />
  <path
     d="m 151.52127,9.5050132 h -33.28994 v 6.8727618 h 1.78978 c 0,0 0.8591,-2.147738 5.01139,-2.147738 1.43183,0 2.21933,0 4.43866,0 2.29092,0 2.29092,1.789782 2.29092,1.789782 v 25.629674 c -0.14318,4.868207 -1.57501,4.939798 -1.57501,4.939798 l 0.0716,2.505694 h 8.94891 V 46.5177 c -1.50342,-0.357957 -1.57501,-4.796615 -1.57501,-4.796615 V 23.39372 l -0.35795,0.214774 -0.28637,0.357956 -0.28636,-0.214774 h -0.35796 l -0.0716,-0.357956 0.21477,0.143182 0.0716,-0.214773 0.14319,-0.214774 h 0.50114 l 0.0716,-0.286365 0.50114,-0.286365 v -6.944354 c 0,-1.288642 1.6466,-1.360234 1.6466,-1.360234 h 5.36934 c 0,0 4.51025,-0.07159 5.01139,2.147738 h 1.71819 z"
     id="path5610"
     style="font-size:12px;line-height:1.25;font-family:Sovngarde;-inkscape-font-specification:Sovngarde;letter-spacing:0px;white-space:pre;fill:#ffffff;fill-opacity:1;stroke-width:5.96594" />
</svg>
