<?xml version="1.0" encoding="UTF-8" standalone="no"?>
<svg
   height="26.0px"
   width="35.75px"
   version="1.1"
   id="svg10"
   sodipodi:docname="xbback.svg"
   inkscape:version="1.1 (c68e22c387, 2021-05-23)"
   xmlns:inkscape="http://www.inkscape.org/namespaces/inkscape"
   xmlns:sodipodi="http://sodipodi.sourceforge.net/DTD/sodipodi-0.dtd"
   xmlns="http://www.w3.org/2000/svg"
   xmlns:svg="http://www.w3.org/2000/svg">
  <defs
     id="defs14">
    <rect
       x="-10"
       y="-2"
       width="26"
       height="16"
       id="rect1661" />
  </defs>
  <sodipodi:namedview
     id="namedview12"
     pagecolor="#505050"
     bordercolor="#eeeeee"
     borderopacity="1"
     inkscape:pageshadow="0"
     inkscape:pageopacity="0"
     inkscape:pagecheckerboard="0"
     showgrid="false"
     inkscape:snap-global="true"
     inkscape:zoom="32"
     inkscape:cx="10.640625"
     inkscape:cy="20.3125"
     inkscape:window-width="3840"
     inkscape:window-height="2067"
     inkscape:window-x="-12"
     inkscape:window-y="40"
     inkscape:window-maximized="1"
     inkscape:current-layer="g8"
     showguides="false"
     inkscape:snap-page="true" />
  <g
     id="g8">
    <g
       id="text1659"
       style="font-size:12px;line-height:1.25;font-family:Sovngarde;-inkscape-font-specification:Sovngarde;letter-spacing:0px;white-space:pre;shape-inside:url(#rect1661)" />
    <g
       id="g9888"
       transform="matrix(1.0427945,0,0,1.0427945,217.26212,17.487186)">
      <path
         id="path4171-8"
         style="font-size:5.33333px;line-height:1.25;font-family:Sovngarde;-inkscape-font-specification:Sovngarde;letter-spacing:0px;white-space:pre;shape-inside:url(#rect1921);fill:#f1edf8;fill-opacity:1;stroke-width:5.36988"
         d="M -208.34605,-16.564808 V 3.3437482 h 6.8266 l -0.32521,-1.1735905 h -4.68587 c 0,0 -0.70629,-13.5292797 3.31715,-14.7108387 0,0 -2.83074,-0.393845 -2.83074,-2.166185 l 23.3473,0.0197 0.005,2.188813 1.55536,0.121596 v -2.307579 -1.857942 z m 27.21024,6.051745 -1.54687,0.101786 0.0367,12.5814127 h -16.79492 l 0.37328,1.1735915 h 17.93184 V 2.1701357 Z"
         sodipodi:nodetypes="ccccccccccccccccccccc" />
      <path
         id="path4171-7-3"
         style="font-size:5.33333px;line-height:1.25;font-family:Sovngarde;-inkscape-font-specification:Sovngarde;letter-spacing:0px;white-space:pre;shape-inside:url(#rect1921);fill:#f1edf8;fill-opacity:1;stroke-width:5.36988"
         d="m -201.27342,-11.949645 v 1.173586 16.8544052 1.857943 l 27.21024,0.02244 V -11.949831 Z m 1.5101,1.173586 h 23.88461 c 0,0 0.7063,13.5292807 -3.31715,14.7108392 0,0 2.82792,0.393845 2.82792,2.166189 l -23.34447,-0.0197 z" />
    </g>
  </g>
</svg>
