<?xml version="1.0" encoding="UTF-8" standalone="no"?>
<svg
   height="26.0px"
   width="26.0px"
   version="1.1"
   id="svg10050"
   sodipodi:docname="xbLB.svg"
   inkscape:version="1.1 (c68e22c387, 2021-05-23)"
   xmlns:inkscape="http://www.inkscape.org/namespaces/inkscape"
   xmlns:sodipodi="http://sodipodi.sourceforge.net/DTD/sodipodi-0.dtd"
   xmlns="http://www.w3.org/2000/svg"
   xmlns:svg="http://www.w3.org/2000/svg">
  <defs
     id="defs10054">
    <rect
       x="20.461902"
       y="33.322407"
       width="58.601474"
       height="43.884815"
       id="rect62841" />
    <rect
       x="22.185475"
       y="31.863999"
       width="60.899571"
       height="47.464543"
       id="rect54537" />
    <rect
       x="22.273864"
       y="44.901281"
       width="27.577164"
       height="20.064155"
       id="rect51159" />
    <rect
       x="7.9107571"
       y="11.424194"
       width="21.412077"
       height="13.766485"
       id="rect39710" />
    <rect
       x="-24.041631"
       y="-11.313708"
       width="105.53569"
       height="62.57895"
       id="rect36404" />
    <rect
       x="-0.015625"
       y="0.015625"
       width="25.9375"
       height="25.984375"
       id="rect3373" />
    <rect
       x="20.461902"
       y="33.322407"
       width="58.601474"
       height="43.884815"
       id="rect62841-1" />
    <rect
       x="22.185475"
       y="31.863999"
       width="60.899571"
       height="47.464543"
       id="rect54537-9" />
    <rect
       x="22.273864"
       y="44.901281"
       width="27.577164"
       height="20.064155"
       id="rect51159-2" />
    <rect
       x="7.9107571"
       y="11.424194"
       width="21.412077"
       height="13.766485"
       id="rect39710-7" />
    <rect
       x="-24.041631"
       y="-11.313708"
       width="105.53569"
       height="62.57895"
       id="rect36404-2" />
    <rect
       x="-0.015625"
       y="0.015625"
       width="25.9375"
       height="25.984375"
       id="rect3373-8" />
  </defs>
  <sodipodi:namedview
     id="namedview10052"
     pagecolor="#505050"
     bordercolor="#eeeeee"
     borderopacity="1"
     inkscape:pageshadow="0"
     inkscape:pageopacity="0"
     inkscape:pagecheckerboard="0"
     showgrid="false"
     inkscape:zoom="32"
     inkscape:cx="6.953125"
     inkscape:cy="9.96875"
     inkscape:window-width="3840"
     inkscape:window-height="2067"
     inkscape:window-x="-12"
     inkscape:window-y="40"
     inkscape:window-maximized="1"
     inkscape:current-layer="svg10050"
     inkscape:snap-bbox="true"
     showguides="true"
     inkscape:guide-bbox="true"
     inkscape:snap-intersection-paths="false">
    <sodipodi:guide
       position="6.9083203,17.983288"
       orientation="0,-1"
       id="guide10465" />
    <sodipodi:guide
       position="6.9083552,8.0166913"
       orientation="0,-1"
       id="guide10467" />
  </sodipodi:namedview>
  <path
     d="m 16.716139,12.195063 h -1.088702 v 0 l -0.127043,-0.108871 0.03635,-0.07257 0.07252,-0.01814 V 10.76162 l -0.03635,-0.10887 -0.07252,-0.145166 0.01817,-0.18145 0.03635,-0.10887 0.05435,0.07258 v -0.09073 -0.943539 h 1.379033 c 0,0 1.506026,0.090731 1.506026,1.542323 0,0 0.10887,1.397162 -1.778201,1.397162 z m 2.032236,0.598784 c 0.58063,-0.326611 1.070545,-0.907249 1.12498,-1.868932 C 20.0548,7.6588213 17.169758,7.9672855 17.169758,7.9672855 h -3.628993 v 0.072574 0.7620892 l 0.34475,0.3628993 v 0.272174 l 0.07252,0.054435 v 0.925395 h 0.0907 v 0.181449 l 0.290314,0.07258 0.308471,0.05443 -0.07252,0.09073 h -0.489916 l -0.05435,0.145166 -0.03635,0.18145 v 4.86285 c 0,0 -0.01817,1.179422 -0.45362,1.306436 v 0.671366 h 1.905227 2.286256 c 0,0 2.249977,0.290318 2.576588,-2.032237 0.235881,-1.614902 -0.471775,-2.812469 -1.560459,-3.157224 z m -3.102798,3.919312 c -0.01817,-0.10887 -0.01817,-0.09073 -0.01817,-0.21774 v -2.903194 h 0.10887 1.560461 c 0,0 1.306442,-0.0363 1.324581,1.469741 0,0 0.0907,2.376992 -2.975773,1.651193 z"
     id="path77433"
     style="font-size:10.5833px;line-height:1.25;font-family:Sovngarde;-inkscape-font-specification:Sovngarde;letter-spacing:0px;fill:#f1edf8;fill-opacity:1;stroke-width:0.453625" />
  <path
     d="m 11.506435,16.368404 c 0,0 -1.433451,0.43548 -2.7580318,0.43548 -1.0887013,0 -1.0524053,-1.705627 -1.0524053,-1.705627 v -3.883022 l -0.090697,0.05443 -0.090696,0.09073 -0.072523,-0.05443 h -0.090697 v -0.09073 l 0.054349,0.0363 v -0.07258 l 0.036349,-0.05443 H 7.587301 v -0.07257 l 0.1452155,-0.07258 V 9.5640641 c 0,-0.780232 0.3447496,-0.9253928 0.3447496,-0.9253928 V 7.9854523 H 5.7547146 v 0.598784 C 6.1720388,8.7838321 6.13576,9.4914846 6.13576,9.4914846 v 5.4797804 c 0,1.687482 -0.4536368,2.068525 -0.4536368,2.068525 l -0.036349,0.979828 h 2.703597 v -0.01814 l 2.4677168,0.01814 c 0,0 0.671361,-0.01814 1.270146,0 v -1.651191 z"
     id="path77435"
     style="font-size:10.5833px;line-height:1.25;font-family:Sovngarde;-inkscape-font-specification:Sovngarde;letter-spacing:0px;fill:#f1edf8;fill-opacity:1;stroke-width:0.453625" />
</svg>
