<?xml version="1.0" encoding="UTF-8" standalone="no"?>
<svg
   height="26.0px"
   width="35.75px"
   version="1.1"
   id="svg10"
   sodipodi:docname="xbopt.svg"
   inkscape:version="1.1 (c68e22c387, 2021-05-23)"
   xmlns:inkscape="http://www.inkscape.org/namespaces/inkscape"
   xmlns:sodipodi="http://sodipodi.sourceforge.net/DTD/sodipodi-0.dtd"
   xmlns="http://www.w3.org/2000/svg"
   xmlns:svg="http://www.w3.org/2000/svg">
  <defs
     id="defs14" />
  <sodipodi:namedview
     id="namedview12"
     pagecolor="#505050"
     bordercolor="#eeeeee"
     borderopacity="1"
     inkscape:pageshadow="0"
     inkscape:pageopacity="0"
     inkscape:pagecheckerboard="0"
     showgrid="true"
     inkscape:snap-global="true"
     inkscape:zoom="32"
     inkscape:cx="23.6875"
     inkscape:cy="9.8125"
     inkscape:window-width="3840"
     inkscape:window-height="2067"
     inkscape:window-x="-12"
     inkscape:window-y="40"
     inkscape:window-maximized="1"
     inkscape:current-layer="g8">
    <inkscape:grid
       type="xygrid"
       id="grid138" />
  </sodipodi:namedview>
  <g
     id="g8">
    <g
       aria-label="_ _ _"
       transform="matrix(6.6811655,0,0,6.6811655,12.733029,5.0741114)"
       id="text93471"
       style="font-size:5.33333px;line-height:0.25;font-family:Sovngarde;-inkscape-font-specification:Sovngarde;letter-spacing:0px;word-spacing:0.168688px;white-space:pre;shape-inside:url(#rect93473);fill:#f1edf8;fill-opacity:1">
      <path
         d="m -0.67670345,0.16072753 c 0,0 1.3439992,-0.18133323 3.10399815,0.005333 0,0 0,-0.07999995 0.2399999,-0.47466638 0,0 -3.8453311,0.0426666 -3.8293311,0.17066656 0.00533,0.016 0.48533305,0.29866649 0.48533305,0.29866682 z"
         id="path103316"
         style="fill:#f1edf8;fill-opacity:1" />
      <path
         d="m -0.67670345,1.4940601 c 0,0 1.3439992,-0.1813333 3.10399815,0.00533 0,0 0,-0.08 0.2399999,-0.4746664 0,0 -3.8453311,0.042667 -3.8293311,0.1706666 0.00533,0.016 0.48533305,0.2986665 0.48533305,0.2986665 z"
         id="path103318"
         style="fill:#f1edf8;fill-opacity:1" />
      <path
         d="m -0.67670345,2.8273926 c 0,0 1.3439992,-0.1813332 3.10399815,0.00533 0,0 0,-0.08 0.2399999,-0.4746663 0,0 -3.8453311,0.042667 -3.8293311,0.1706665 0.00533,0.016 0.48533305,0.2986665 0.48533305,0.2986665 z"
         id="path103320"
         style="fill:#f1edf8;fill-opacity:1" />
    </g>
  </g>
</svg>
