<?xml version="1.0" encoding="UTF-8" standalone="no"?>
<svg
   height="26.0px"
   width="26.0px"
   version="1.1"
   id="svg10050"
   sodipodi:docname="9fat.svg"
   inkscape:version="1.1 (c68e22c387, 2021-05-23)"
   xmlns:inkscape="http://www.inkscape.org/namespaces/inkscape"
   xmlns:sodipodi="http://sodipodi.sourceforge.net/DTD/sodipodi-0.dtd"
   xmlns="http://www.w3.org/2000/svg"
   xmlns:svg="http://www.w3.org/2000/svg">
  <defs
     id="defs10054">
    <rect
       x="20.461902"
       y="33.322407"
       width="58.601474"
       height="43.884815"
       id="rect62841" />
    <rect
       x="22.185475"
       y="31.863999"
       width="60.899571"
       height="47.464543"
       id="rect54537" />
    <rect
       x="22.273864"
       y="44.901281"
       width="27.577164"
       height="20.064155"
       id="rect51159" />
    <rect
       x="7.9107571"
       y="11.424194"
       width="21.412077"
       height="13.766485"
       id="rect39710" />
    <rect
       x="-24.041631"
       y="-11.313708"
       width="105.53569"
       height="62.57895"
       id="rect36404" />
    <rect
       x="-0.015625"
       y="0.015625"
       width="25.9375"
       height="25.984375"
       id="rect3373" />
  </defs>
  <sodipodi:namedview
     id="namedview10052"
     pagecolor="#505050"
     bordercolor="#eeeeee"
     borderopacity="1"
     inkscape:pageshadow="0"
     inkscape:pageopacity="0"
     inkscape:pagecheckerboard="0"
     showgrid="false"
     inkscape:zoom="45.254834"
     inkscape:cx="5.7783882"
     inkscape:cy="11.821941"
     inkscape:window-width="3840"
     inkscape:window-height="2067"
     inkscape:window-x="-12"
     inkscape:window-y="40"
     inkscape:window-maximized="1"
     inkscape:current-layer="svg10050" />
  <path
     d="m 15.159532,13.882068 c 0,0 -0.05065,1.595981 1.671988,1.013329 1.266671,-0.430677 3.495987,0.405354 3.495987,1.697348 0,1.266671 -1.469329,2.659994 -2.736,2.887975 -2.482658,0.456 -3.724006,-0.78531 -3.724006,-0.78531 0.02646,0.78531 -1.443969,1.621304 -1.190665,1.874645 0.253229,0.253229 1.140019,0.861355 3.546671,1.064013 2.40669,0.17726 5.497323,-1.089336 5.978684,-4.636007 0.481323,-3.54667 -2.812006,-3.901341 -2.812006,-3.901341 0,0 1.925329,-1.317317 1.824,-3.014627 C 21.08757,8.359422 19.238172,7.7007638 18.07283,7.7007638 c -1.139981,0 -2.583987,0.3545196 -3.673323,1.5199748 -0.861316,0.9373224 -1.165341,0.9880064 -1.165341,0.9880064 0,0.785348 0.658696,2.60931 0.709341,2.254677 0.02646,-0.329197 1.621342,-2.254677 2.736,-2.8120062 1.114659,-0.5573292 2.356007,-0.026457 2.432013,1.2413102 0.07597,1.266671 -3.420019,2.736 -3.951988,2.989342 z"
     style="font-size:25.3333px;line-height:1.25;font-family:Sovngarde;-inkscape-font-specification:Sovngarde;letter-spacing:0px;white-space:pre;shape-inside:url(#rect37824);fill:#f1edf8;fill-opacity:1;stroke-width:0.999999"
     id="path47318-8" />
</svg>
