<?xml version="1.0" encoding="UTF-8" standalone="no"?>
<svg
   height="26.0px"
   width="26.0px"
   version="1.1"
   id="svg10050"
   sodipodi:docname="11fat.svg"
   inkscape:version="1.1 (c68e22c387, 2021-05-23)"
   xmlns:inkscape="http://www.inkscape.org/namespaces/inkscape"
   xmlns:sodipodi="http://sodipodi.sourceforge.net/DTD/sodipodi-0.dtd"
   xmlns="http://www.w3.org/2000/svg"
   xmlns:svg="http://www.w3.org/2000/svg">
  <defs
     id="defs10054">
    <rect
       x="20.461902"
       y="33.322407"
       width="58.601474"
       height="43.884815"
       id="rect62841" />
    <rect
       x="22.185475"
       y="31.863999"
       width="60.899571"
       height="47.464543"
       id="rect54537" />
    <rect
       x="22.273864"
       y="44.901281"
       width="27.577164"
       height="20.064155"
       id="rect51159" />
    <rect
       x="7.9107571"
       y="11.424194"
       width="21.412077"
       height="13.766485"
       id="rect39710" />
    <rect
       x="-24.041631"
       y="-11.313708"
       width="105.53569"
       height="62.57895"
       id="rect36404" />
    <rect
       x="-0.015625"
       y="0.015625"
       width="25.9375"
       height="25.984375"
       id="rect3373" />
  </defs>
  <sodipodi:namedview
     id="namedview10052"
     pagecolor="#505050"
     bordercolor="#eeeeee"
     borderopacity="1"
     inkscape:pageshadow="0"
     inkscape:pageopacity="0"
     inkscape:pagecheckerboard="0"
     showgrid="false"
     inkscape:zoom="45.254834"
     inkscape:cx="5.5795144"
     inkscape:cy="11.534679"
     inkscape:window-width="3840"
     inkscape:window-height="2067"
     inkscape:window-x="-12"
     inkscape:window-y="40"
     inkscape:window-maximized="1"
     inkscape:current-layer="svg10050" />
  <path
     d="m 20.787261,17.745236 c -0.278551,-0.988006 0.481323,-2.964019 0.481323,-2.964019 h -1.038652 c -0.861317,1.570659 -1.190665,1.520013 -1.190665,0.709342 0,-0.835994 -0.05064,-5.294665 -0.05064,-8.0306645 0,0 -0.55733,-0.075969 -1.165342,0.3291968 -0.456,0.303874 -1.114658,1.4186457 -2.533304,3.4199807 -0.861354,1.165342 -4.027994,5.877317 -4.027994,5.877317 -0.151937,0.278551 -0.227905,0.658696 0.379994,0.658696 h 5.598652 c 0,2.583988 -0.481323,2.887975 -0.937323,2.887975 -0.456,0 -0.379994,0.962683 -0.379994,0.962683 h 4.281298 c 0,-0.658658 0.05065,-0.988006 -0.379994,-0.988006 -0.937323,0 -0.78531,-2.862652 -0.78531,-2.862652 0.886639,0 2.026658,0.962646 1.747994,0 z m -3.546633,-1.672025 c 0,0 -2.989342,-0.02646 -2.989342,0 l 2.989342,-4.585323 z"
     style="font-size:25.3333px;line-height:1.25;font-family:Sovngarde;-inkscape-font-specification:Sovngarde;letter-spacing:0px;white-space:pre;shape-inside:url(#rect37824);fill:#f1edf8;fill-opacity:1;stroke-width:0.999999"
     id="path47322-8" />
</svg>
