<?xml version="1.0" encoding="UTF-8" standalone="no"?>
<svg
   height="26.0px"
   width="26.0px"
   version="1.1"
   id="svg10050"
   sodipodi:docname="13fat.svg"
   inkscape:version="1.1 (c68e22c387, 2021-05-23)"
   xmlns:inkscape="http://www.inkscape.org/namespaces/inkscape"
   xmlns:sodipodi="http://sodipodi.sourceforge.net/DTD/sodipodi-0.dtd"
   xmlns="http://www.w3.org/2000/svg"
   xmlns:svg="http://www.w3.org/2000/svg">
  <defs
     id="defs10054">
    <rect
       x="-31.55464"
       y="-15.77732"
       width="32.305941"
       height="38.006989"
       id="rect35579" />
    <rect
       x="-12.81631"
       y="-1.0606602"
       width="13.457126"
       height="15.224893"
       id="rect25667" />
    <rect
       x="20.461902"
       y="33.322407"
       width="58.601474"
       height="43.884815"
       id="rect62841" />
    <rect
       x="22.185475"
       y="31.863999"
       width="60.899571"
       height="47.464543"
       id="rect54537" />
    <rect
       x="22.273864"
       y="44.901281"
       width="27.577164"
       height="20.064155"
       id="rect51159" />
    <rect
       x="7.9107571"
       y="11.424194"
       width="21.412077"
       height="13.766485"
       id="rect39710" />
    <rect
       x="-24.041631"
       y="-11.313708"
       width="105.53569"
       height="62.57895"
       id="rect36404" />
    <rect
       x="-0.015625"
       y="0.015625"
       width="25.9375"
       height="25.984375"
       id="rect3373" />
  </defs>
  <sodipodi:namedview
     id="namedview10052"
     pagecolor="#505050"
     bordercolor="#eeeeee"
     borderopacity="1"
     inkscape:pageshadow="0"
     inkscape:pageopacity="0"
     inkscape:pagecheckerboard="0"
     showgrid="false"
     inkscape:zoom="45.254834"
     inkscape:cx="15.611592"
     inkscape:cy="14.097941"
     inkscape:window-width="3840"
     inkscape:window-height="2067"
     inkscape:window-x="-12"
     inkscape:window-y="40"
     inkscape:window-maximized="1"
     inkscape:current-layer="svg10050"
     inkscape:snap-bbox="true"
     inkscape:bbox-paths="true"
     showguides="false" />
  <path
     d="m 11.880788,18.635277 c 0,0 -0.506645,1.646665 -0.430639,2.203994 0.05065,0.557367 2.963981,0.988006 5.573291,0.658696 0.734665,-0.101291 4.458671,-0.810671 4.458671,-4.863987 0,-2.254678 -2.077341,-3.521348 -3.698645,-3.77469 -0.17726,-0.05065 -2.482659,-0.303874 -3.29333,0.227905 0,0 0.151937,-3.2933289 0.937323,-3.2933289 0.785348,0 4.838665,0.1772599 5.370671,0.1519371 0.557329,0 1.063975,-2.3053229 1.063975,-2.3053229 H 20.31677 c -0.278552,0 -0.07597,0.2025827 -1.671988,0.2025827 -1.595981,0 -3.926664,0 -4.56,0 -1.342639,0 -1.722633,4.306658 -1.773316,6.84 0,0 0.430677,0.633335 1.190664,0.633335 0,0 5.598652,-1.874645 5.598652,1.393323 0,3.31869 -4.737335,3.065348 -7.219994,1.925329 z"
     style="font-size:25.3333px;line-height:1.25;font-family:Sovngarde;-inkscape-font-specification:Sovngarde;letter-spacing:0px;white-space:pre;shape-inside:url(#rect37824);fill:#f1edf8;fill-opacity:1;stroke-width:0.999999"
     id="path47326-4" />
</svg>
