<?xml version="1.0" encoding="UTF-8" standalone="no"?>
<svg
   height="26.0px"
   width="26.0px"
   version="1.1"
   id="svg10050"
   sodipodi:docname="15.svg"
   inkscape:version="1.1 (c68e22c387, 2021-05-23)"
   xmlns:inkscape="http://www.inkscape.org/namespaces/inkscape"
   xmlns:sodipodi="http://sodipodi.sourceforge.net/DTD/sodipodi-0.dtd"
   xmlns="http://www.w3.org/2000/svg"
   xmlns:svg="http://www.w3.org/2000/svg">
  <defs
     id="defs10054">
    <rect
       x="20.461902"
       y="33.322407"
       width="58.601474"
       height="43.884815"
       id="rect62841" />
    <rect
       x="22.185475"
       y="31.863999"
       width="60.899571"
       height="47.464543"
       id="rect54537" />
    <rect
       x="22.273864"
       y="44.901281"
       width="27.577164"
       height="20.064155"
       id="rect51159" />
    <rect
       x="7.9107571"
       y="11.424194"
       width="21.412077"
       height="13.766485"
       id="rect39710" />
    <rect
       x="-24.041631"
       y="-11.313708"
       width="105.53569"
       height="62.57895"
       id="rect36404" />
    <rect
       x="-0.015625"
       y="0.015625"
       width="25.9375"
       height="25.984375"
       id="rect3373" />
  </defs>
  <sodipodi:namedview
     id="namedview10052"
     pagecolor="#505050"
     bordercolor="#eeeeee"
     borderopacity="1"
     inkscape:pageshadow="0"
     inkscape:pageopacity="0"
     inkscape:pagecheckerboard="0"
     showgrid="false"
     inkscape:zoom="45.254834"
     inkscape:cx="5.7783882"
     inkscape:cy="11.821941"
     inkscape:window-width="3840"
     inkscape:window-height="2067"
     inkscape:window-x="-12"
     inkscape:window-y="40"
     inkscape:window-maximized="1"
     inkscape:current-layer="svg10050" />
  <path
     d="m 20.998391,15.702666 c -0.354519,-1.824 -2.659993,-4.483994 -6.181341,-2.102664 0,0 0.126614,-2.482659 1.672025,-3.268007 2.812006,-1.4186454 3.850658,1.165342 3.850658,1.165342 0,0 1.621304,-3.5466709 -2.432012,-3.5719937 -0.481323,0 -3.470665,-0.075969 -4.635969,3.7240067 -0.962683,3.242645 -1.900006,10.057323 3.419981,10.057323 4.509317,0 4.838665,-3.470665 4.306658,-6.004007 z m -1.595981,2.052019 c -0.151937,1.747994 -2.812006,2.305323 -3.698683,1.671988 -0.886677,-0.658659 -1.013329,-3.192 -1.013329,-3.192 1.900006,-2.406652 4.990677,-1.773317 4.712012,1.520012 z"
     style="font-size:25.3333px;line-height:1.25;font-family:Sovngarde;-inkscape-font-specification:Sovngarde;letter-spacing:0px;white-space:pre;shape-inside:url(#rect37824);fill:#f1edf8;fill-opacity:1;stroke-width:0.999999"
     id="path47330-0" />
</svg>
