<?xml version="1.0" encoding="UTF-8" standalone="no"?>
<svg
   height="26.0px"
   width="26.0px"
   version="1.1"
   id="svg10050"
   sodipodi:docname="17.svg"
   inkscape:version="1.1 (c68e22c387, 2021-05-23)"
   xmlns:inkscape="http://www.inkscape.org/namespaces/inkscape"
   xmlns:sodipodi="http://sodipodi.sourceforge.net/DTD/sodipodi-0.dtd"
   xmlns="http://www.w3.org/2000/svg"
   xmlns:svg="http://www.w3.org/2000/svg">
  <defs
     id="defs10054">
    <rect
       x="20.461902"
       y="33.322407"
       width="58.601474"
       height="43.884815"
       id="rect62841" />
    <rect
       x="22.185475"
       y="31.863999"
       width="60.899571"
       height="47.464543"
       id="rect54537" />
    <rect
       x="22.273864"
       y="44.901281"
       width="27.577164"
       height="20.064155"
       id="rect51159" />
    <rect
       x="7.9107571"
       y="11.424194"
       width="21.412077"
       height="13.766485"
       id="rect39710" />
    <rect
       x="-24.041631"
       y="-11.313708"
       width="105.53569"
       height="62.57895"
       id="rect36404" />
    <rect
       x="-0.015625"
       y="0.015625"
       width="25.9375"
       height="25.984375"
       id="rect3373" />
  </defs>
  <sodipodi:namedview
     id="namedview10052"
     pagecolor="#505050"
     bordercolor="#eeeeee"
     borderopacity="1"
     inkscape:pageshadow="0"
     inkscape:pageopacity="0"
     inkscape:pagecheckerboard="0"
     showgrid="false"
     inkscape:zoom="45.254834"
     inkscape:cx="5.0049902"
     inkscape:cy="12.241786"
     inkscape:window-width="3840"
     inkscape:window-height="2067"
     inkscape:window-x="-12"
     inkscape:window-y="40"
     inkscape:window-maximized="1"
     inkscape:current-layer="svg10050" />
  <path
     d="m 12.830753,9.6636978 c -0.17726,1.0640122 1.595981,1.0133672 1.595981,1.0133672 -0.506646,-0.329197 -0.658658,-0.532007 -0.126614,-1.1653421 0.227905,-0.2532283 0.658696,-0.3291968 1.216025,-0.3291968 h 3.192 l 0.07597,-0.1266142 c -0.962684,1.4440061 -1.697348,3.1159941 -2.609348,5.9533231 -0.633336,1.824 -1.140019,4.762658 -1.140019,5.978646 v 0.380031 h 2.102664 c 0,-1.748031 0.380032,-4.281335 1.140019,-6.586696 0.506684,-1.570658 1.570658,-3.723969 2.178671,-4.914633 0.329197,-0.6080128 0.582652,-1.0893357 0.810671,-1.3933231 V 7.4599308 h -5.928 c -0.633336,0 -1.089336,-0.075969 -1.368,-0.2279055 h -0.760026 z"
     style="font-size:25.3333px;line-height:1.25;font-family:Sovngarde;-inkscape-font-specification:Sovngarde;letter-spacing:0px;white-space:pre;shape-inside:url(#rect37824);fill:#f1edf8;fill-opacity:1;stroke-width:0.999999"
     id="path47334" />
</svg>
