<?xml version="1.0" encoding="UTF-8" standalone="no"?>
<svg
   height="26.0px"
   width="26.0px"
   version="1.1"
   id="svg10050"
   sodipodi:docname="19.svg"
   inkscape:version="1.1 (c68e22c387, 2021-05-23)"
   xmlns:inkscape="http://www.inkscape.org/namespaces/inkscape"
   xmlns:sodipodi="http://sodipodi.sourceforge.net/DTD/sodipodi-0.dtd"
   xmlns="http://www.w3.org/2000/svg"
   xmlns:svg="http://www.w3.org/2000/svg">
  <defs
     id="defs10054">
    <rect
       x="20.461902"
       y="33.322407"
       width="58.601474"
       height="43.884815"
       id="rect62841" />
    <rect
       x="22.185475"
       y="31.863999"
       width="60.899571"
       height="47.464543"
       id="rect54537" />
    <rect
       x="22.273864"
       y="44.901281"
       width="27.577164"
       height="20.064155"
       id="rect51159" />
    <rect
       x="7.9107571"
       y="11.424194"
       width="21.412077"
       height="13.766485"
       id="rect39710" />
    <rect
       x="-24.041631"
       y="-11.313708"
       width="105.53569"
       height="62.57895"
       id="rect36404" />
    <rect
       x="-0.015625"
       y="0.015625"
       width="25.9375"
       height="25.984375"
       id="rect3373" />
  </defs>
  <sodipodi:namedview
     id="namedview10052"
     pagecolor="#505050"
     bordercolor="#eeeeee"
     borderopacity="1"
     inkscape:pageshadow="0"
     inkscape:pageopacity="0"
     inkscape:pagecheckerboard="0"
     showgrid="false"
     inkscape:zoom="45.254834"
     inkscape:cx="4.1211067"
     inkscape:cy="12.241786"
     inkscape:window-width="3840"
     inkscape:window-height="2067"
     inkscape:window-x="-12"
     inkscape:window-y="40"
     inkscape:window-maximized="1"
     inkscape:current-layer="g170196" />
  <g
     id="g170196"
     transform="translate(7.9839619,0.758213)">
    <path
       d="m 6.3465076,13.582575 c -0.4053165,0.202582 -0.7346646,0.405316 -1.0133291,0.607974 -1.0640127,0.734665 -1.6213418,1.92533 -1.6213418,3.065348 0,1.139982 0.7600252,2.077304 1.7733544,2.761323 0.8866393,0.607975 1.9253291,0.912 3.1159937,0.912 1.2919937,0 2.3559682,-0.329197 3.2173232,-0.988006 0.962645,-0.734665 1.443968,-1.697348 1.443968,-2.938658 0,-1.697348 -0.683981,-2.634671 -2.533304,-3.622677 1.773317,-0.734665 2.15331,-1.773317 2.15331,-3.039988 0,-1.0386519 -0.456,-1.8746456 -1.393322,-2.5079811 C 10.653166,7.2492202 9.7158431,6.9705556 8.6518305,6.9705556 c -1.1399812,0 -2.1279875,0.3291969 -2.9893418,0.9626835 -0.9373229,0.7093039 -1.3933229,1.5959811 -1.3933229,2.6853169 0,0.658658 0.3038741,1.241348 0.6586961,1.747993 0.303874,0.379994 0.5319685,0.608013 1.4186457,1.216026 z m 1.7479937,0.709304 1.3426772,0.532006 c 1.3933225,0.658658 1.8240005,1.013329 1.8240005,1.798677 0,0.430639 -0.07597,1.444006 -0.58269,1.773317 -0.582652,0.379993 -0.9626459,0.506683 -1.6719877,0.557329 C 7.891843,19.079822 7.0811722,18.725302 6.5998493,18.243866 6.0931659,17.762543 5.8398619,17.433233 5.8398619,16.622562 c 0,-0.684019 1.0892977,-1.798677 2.2546394,-2.330683 z M 9.1078305,12.594568 8.9052478,12.493277 C 7.841273,12.011916 7.2585832,11.555916 7.1319312,11.47991 6.4985958,11.074593 6.1946084,10.643916 6.1946084,10.2386 c 0,-0.2532286 0.2025827,-0.709342 0.6586583,-1.03869 0.4053165,-0.2785512 1.1146582,-0.5319686 1.6719874,-0.5319686 0.6586583,0 1.4946519,0.3038741 1.9506519,0.6839812 0.456,0.4053543 0.684019,0.6840184 0.684019,1.3426774 0,0.456 -1.013329,1.444006 -2.0520189,1.900006 z"
       style="font-size:25.3333px;line-height:1.25;font-family:Sovngarde;-inkscape-font-specification:Sovngarde;letter-spacing:0px;white-space:pre;shape-inside:url(#rect37824);fill:#f1edf8;fill-opacity:1;stroke-width:0.999999"
       id="path47338" />
  </g>
</svg>
