<?xml version="1.0" encoding="UTF-8" standalone="no"?>
<svg
   height="26.0px"
   width="26.0px"
   version="1.1"
   id="svg10050"
   sodipodi:docname="21.svg"
   inkscape:version="1.1 (c68e22c387, 2021-05-23)"
   xmlns:inkscape="http://www.inkscape.org/namespaces/inkscape"
   xmlns:sodipodi="http://sodipodi.sourceforge.net/DTD/sodipodi-0.dtd"
   xmlns="http://www.w3.org/2000/svg"
   xmlns:svg="http://www.w3.org/2000/svg">
  <defs
     id="defs10054">
    <rect
       x="20.461902"
       y="33.322407"
       width="58.601474"
       height="43.884815"
       id="rect62841" />
    <rect
       x="22.185475"
       y="31.863999"
       width="60.899571"
       height="47.464543"
       id="rect54537" />
    <rect
       x="22.273864"
       y="44.901281"
       width="27.577164"
       height="20.064155"
       id="rect51159" />
    <rect
       x="7.9107571"
       y="11.424194"
       width="21.412077"
       height="13.766485"
       id="rect39710" />
    <rect
       x="-24.041631"
       y="-11.313708"
       width="105.53569"
       height="62.57895"
       id="rect36404" />
    <rect
       x="-0.015625"
       y="0.015625"
       width="25.9375"
       height="25.984375"
       id="rect3373" />
  </defs>
  <sodipodi:namedview
     id="namedview10052"
     pagecolor="#505050"
     bordercolor="#eeeeee"
     borderopacity="1"
     inkscape:pageshadow="0"
     inkscape:pageopacity="0"
     inkscape:pagecheckerboard="0"
     showgrid="false"
     inkscape:zoom="45.254834"
     inkscape:cx="5.0049902"
     inkscape:cy="12.241786"
     inkscape:window-width="3840"
     inkscape:window-height="2067"
     inkscape:window-x="-12"
     inkscape:window-y="40"
     inkscape:window-maximized="1"
     inkscape:current-layer="svg10050" />
  <path
     d="m 14.370217,21.68732 c 2.660002,0 5.547999,-0.35452 6.662661,-5.294665 1.368,-5.953323 -0.912,-8.7400061 -4.179991,-8.4106581 -2.48267,0.2279056 -4.332,3.0146651 -4.053328,5.6999811 0.152013,1.469329 2.457328,3.977348 6.561317,2.001336 0,0 -1.342659,3.09067 -2.710659,3.673322 -1.874661,0.836032 -2.330661,-0.07597 -2.53333,-0.278551 -0.202658,-0.17726 -1.368,-0.07597 -1.165331,0.709342 0.278665,1.038652 -1.72266,1.900006 1.418661,1.900006 z m 0.633339,-9.094677 c 0.10133,-1.368 1.165331,-3.2679689 2.963993,-2.533304 1.57067,0.607975 1.519997,3.52131 1.519997,3.52131 -1.773327,1.013329 -4.635987,1.140019 -4.48399,-0.988006 z"
     style="font-size:25.3333px;line-height:1.25;font-family:Sovngarde;-inkscape-font-specification:Sovngarde;letter-spacing:0px;white-space:pre;shape-inside:url(#rect37824);fill:#f1edf8;fill-opacity:1;stroke-width:0.999999"
     id="path47342" />
</svg>
