<?xml version="1.0" encoding="UTF-8" standalone="no"?>
<svg
   height="26.0px"
   width="26.0px"
   version="1.1"
   id="svg10050"
   sodipodi:docname="arrow.svg"
   inkscape:version="1.1 (c68e22c387, 2021-05-23)"
   xmlns:inkscape="http://www.inkscape.org/namespaces/inkscape"
   xmlns:sodipodi="http://sodipodi.sourceforge.net/DTD/sodipodi-0.dtd"
   xmlns="http://www.w3.org/2000/svg"
   xmlns:svg="http://www.w3.org/2000/svg">
  <defs
     id="defs10054">
    <rect
       x="-6.098796"
       y="19.997864"
       width="42.382213"
       height="14.120039"
       id="rect71495" />
    <rect
       x="0"
       y="0"
       width="26"
       height="12.617437"
       id="rect65169" />
  </defs>
  <sodipodi:namedview
     id="namedview10052"
     pagecolor="#505050"
     bordercolor="#eeeeee"
     borderopacity="1"
     inkscape:pageshadow="0"
     inkscape:pageopacity="0"
     inkscape:pagecheckerboard="0"
     showgrid="false"
     inkscape:zoom="45.254834"
     inkscape:cx="10.418776"
     inkscape:cy="16.661204"
     inkscape:window-width="3840"
     inkscape:window-height="2067"
     inkscape:window-x="-12"
     inkscape:window-y="40"
     inkscape:window-maximized="1"
     inkscape:current-layer="g10048"
     inkscape:snap-page="true" />
  <g
     transform="matrix(1.0868056,0,0,1.0868056,-1.1284722,-1.1284722)"
     id="g10048">
    <g
       id="g131936"
       transform="matrix(0,-1.451036,1.451036,0,9.6929366,9.7062435)">
      <path
         d="m -1.0821672,3.7939878 c 0,0 -0.4396704,1.5231408 -0.4396704,1.5545444 0.094206,0.1727284 4.8049554,-2.9363606 4.8049554,-2.9363606 -0.031393,-0.01571 -0.062839,-0.031393 -0.094206,-0.047103 -0.5495835,-0.4082641 -4.4594988,-3.31321842 -4.5537152,-3.15619452 -0.01571,0.0157096 0.39256489,1.7272702 0.39256489,1.7272702 0,0 1.71156834,0.65950432 2.44957931,1.46033072 -0.92644117,0.7380162 -2.5595002,1.397518 -2.5595002,1.397518 z"
         id="path115178"
         style="font-size:22.6667px;line-height:1.25;font-family:Sovngarde;-inkscape-font-specification:Sovngarde;letter-spacing:4.67px;fill:#f1edf8;stroke-width:0.692754" />
      <path
         d="m -7.36958,2.9646874 c 0,0 5.2813607,-0.408 7.253367,0.1359874 0,0 0.2040945,-0.9520025 -0.1587401,-1.5186709 0,0 -7.5706584,-0.1359874 -7.5479812,0.1586646 0.022677,0.045316 0.4533165,1.224 0.4533165,1.224 z"
         id="path115208"
         style="font-size:22.6667px;line-height:1.25;font-family:Sovngarde;-inkscape-font-specification:Sovngarde;letter-spacing:4.67px;fill:#f1edf8;stroke-width:0.999999" />
    </g>
  </g>
</svg>
