<?xml version="1.0" encoding="UTF-8" standalone="no"?>
<svg
   height="7.9375577"
   width="3.7835515"
   version="1.1"
   id="svg6"
   sodipodi:docname="71.svg"
   inkscape:version="1.1 (c68e22c387, 2021-05-23)"
   xmlns:inkscape="http://www.inkscape.org/namespaces/inkscape"
   xmlns:sodipodi="http://sodipodi.sourceforge.net/DTD/sodipodi-0.dtd"
   xmlns="http://www.w3.org/2000/svg"
   xmlns:svg="http://www.w3.org/2000/svg">
  <defs
     id="defs10" />
  <sodipodi:namedview
     id="namedview8"
     pagecolor="#505050"
     bordercolor="#eeeeee"
     borderopacity="1"
     inkscape:pageshadow="0"
     inkscape:pageopacity="0"
     inkscape:pagecheckerboard="0"
     showgrid="false"
     inkscape:zoom="91.132078"
     inkscape:cx="1.3716356"
     inkscape:cy="2.6115941"
     inkscape:window-width="1496"
     inkscape:window-height="2051"
     inkscape:window-x="1160"
     inkscape:window-y="54"
     inkscape:window-maximized="0"
     inkscape:current-layer="svg6" />
  <path
     d="M 0.68649764,6.4787662 0.24312518,7.1938616 0.68649764,7.9375575 H 1.4587985 L 1.8878387,7.2081631 1.4587985,6.4787662 Z M 1.9021472,9.49e-6 H 1.2013649 C 1.2013649,9.49e-6 0,0.5434819 0,0.58638825 0,0.62929005 0.31464377,2.1595951 0.31464377,2.1595951 c 0,0 0.41475549,-1.18705636 1.41587313,-1.18705636 0,0 0.8438194,-0.0285935 0.915338,0.91532146 0,0 0.1860104,0.8581136 -1.2013648,1.0583395 0,0 -1.53031721,0.1144202 -0.72939933,2.6887541 0,0 0.0429255,0.3718491 0.72939933,0.185915 0,0 -0.071543,-1.7305286 0.5720773,-1.9307545 0.986833,-0.3146414 1.8592455,-0.9296228 1.7591338,-2.1166792 0,0 -0.171702,-1.75913375 -1.873554,-1.7734351 z"
     id="path115182"
     style="font-size:22.6667px;line-height:1.25;font-family:Sovngarde;-inkscape-font-specification:Sovngarde;letter-spacing:4.67px;fill:#f1edf8;stroke-width:0.630964" />
</svg>
