<?xml version="1.0" encoding="UTF-8" standalone="no"?>
<svg
   height="26.0px"
   width="41.75px"
   version="1.1"
   id="svg484"
   sodipodi:docname="back.svg"
   inkscape:version="1.1 (c68e22c387, 2021-05-23)"
   xmlns:inkscape="http://www.inkscape.org/namespaces/inkscape"
   xmlns:sodipodi="http://sodipodi.sourceforge.net/DTD/sodipodi-0.dtd"
   xmlns="http://www.w3.org/2000/svg"
   xmlns:svg="http://www.w3.org/2000/svg">
  <defs
     id="defs488">
    <rect
       x="-9.5703457"
       y="26.78684"
       width="73.980291"
       height="25.824742"
       id="rect32669" />
    <rect
       x="-7.40625"
       y="-0.625"
       width="83.25"
       height="51.21875"
       id="rect2591" />
    <rect
       x="20.461902"
       y="33.322407"
       width="58.601474"
       height="43.884815"
       id="rect62841" />
    <rect
       x="22.185475"
       y="31.863999"
       width="60.899571"
       height="47.464543"
       id="rect54537" />
    <rect
       x="22.273864"
       y="44.901281"
       width="27.577164"
       height="20.064155"
       id="rect51159" />
    <rect
       x="7.9107571"
       y="11.424194"
       width="21.412077"
       height="13.766485"
       id="rect39710" />
    <rect
       x="-24.041631"
       y="-11.313708"
       width="105.53569"
       height="62.57895"
       id="rect36404" />
    <rect
       x="-0.015625"
       y="0.015625"
       width="25.9375"
       height="25.984375"
       id="rect3373" />
    <rect
       x="-9.5703457"
       y="26.78684"
       width="73.980291"
       height="25.824742"
       id="rect32669-5" />
    <rect
       x="-7.40625"
       y="-0.625"
       width="83.25"
       height="51.21875"
       id="rect2591-7" />
    <rect
       x="20.461902"
       y="33.322407"
       width="58.601474"
       height="43.884815"
       id="rect62841-9" />
    <rect
       x="22.185475"
       y="31.863999"
       width="60.899571"
       height="47.464543"
       id="rect54537-3" />
    <rect
       x="22.273864"
       y="44.901281"
       width="27.577164"
       height="20.064155"
       id="rect51159-5" />
    <rect
       x="7.9107571"
       y="11.424194"
       width="21.412077"
       height="13.766485"
       id="rect39710-3" />
    <rect
       x="-24.041631"
       y="-11.313708"
       width="105.53569"
       height="62.57895"
       id="rect36404-6" />
    <rect
       x="-0.015625"
       y="0.015625"
       width="25.9375"
       height="25.984375"
       id="rect3373-8" />
  </defs>
  <sodipodi:namedview
     id="namedview486"
     pagecolor="#505050"
     bordercolor="#eeeeee"
     borderopacity="1"
     inkscape:pageshadow="0"
     inkscape:pageopacity="0"
     inkscape:pagecheckerboard="0"
     showgrid="false"
     inkscape:zoom="39.497006"
     inkscape:cx="17.077244"
     inkscape:cy="9.8994845"
     inkscape:window-width="3840"
     inkscape:window-height="2067"
     inkscape:window-x="-12"
     inkscape:window-y="40"
     inkscape:window-maximized="1"
     inkscape:current-layer="svg484"
     inkscape:snap-bbox="true"
     inkscape:bbox-paths="true"
     inkscape:bbox-nodes="true"
     inkscape:snap-bbox-edge-midpoints="true"
     inkscape:snap-bbox-midpoints="true"
     inkscape:snap-smooth-nodes="true"
     inkscape:snap-midpoints="true"
     inkscape:object-paths="true"
     inkscape:snap-intersection-paths="true"
     inkscape:snap-global="false" />
  <g
     transform="matrix(1.0, 0.0, 0.0, 1.0, 0.0, 0.0)"
     id="g482" />
  <text
     xml:space="preserve"
     id="text32667"
     style="line-height:1.25;font-family:Sovngarde;font-size:12px;-inkscape-font-specification:Sovngarde;letter-spacing:0px;white-space:pre;shape-inside:url(#rect32669)" />
  <g
     id="g28535"
     transform="translate(9.1151975,3.6597379)">
    <path
       d="m 3.0654751,8.6508658 h -1.05102 v 0 l -0.122619,-0.105102 0.035034,-0.070068 0.070068,-0.017517 v -1.191156 l -0.035034,-0.105102 -0.070068,-0.140136 0.017517,-0.17517 0.035034,-0.105102 0.052551,0.070068 V 6.7239958 5.8131117 h 1.331292 c 0,0 1.453911,0.087585 1.453911,1.4889451 0,0 0.105102,1.348809 -1.716666,1.348809 z m 1.961904,0.578061 C 5.5879231,8.9136208 6.0608822,8.3530768 6.1134332,7.4246758 6.2886032,4.2716157 3.5034001,4.5694047 3.5034001,4.5694047 H 8.5353851e-8 v 0.070068 0.735714 L 0.33282309,5.7255267 v 0.262755 l 0.070068,0.052551 v 0.8933671 h 0.087585 v 0.17517 l 0.280272,0.070068 0.29778901,0.052551 -0.070068,0.087585 H 0.52551009 l -0.052551,0.140136 -0.035034,0.17517 v 4.6945562 c 0,0 -0.017517,1.138605 -0.437925004646149,1.261224 v 0.648129 H 1.8392851 4.0464271 c 0,0 2.1721081,0.280272 2.4874141,-1.961904 0.227721,-1.559013 -0.455442,-2.7151352 -1.5064621,-3.0479582 z m -2.995407,3.7836722 c -0.017517,-0.105102 -0.017517,-0.08759 -0.017517,-0.210204 V 9.9996748 h 0.105102 1.506462 c 0,0 1.261224,-0.035034 1.278741,1.4188772 0,0 0.087585,2.294727 -2.872788,1.594047 z"
       id="path27728"
       style="font-size:17.517px;line-height:1.25;font-family:Sovngarde;-inkscape-font-specification:Sovngarde;fill:#f1edf8;stroke-width:1.09481" />
    <path
       d="m 12.099236,13.584017 c 0,0 -0.01776,-0.05327 -0.08879,-0.07103 -0.284108,-0.08878 -0.319621,-0.514946 -0.319621,-0.514946 0,0 -0.01776,-1.296243 0,-2.379405 C 11.726345,9.340153 11.477749,9.1270719 11.477749,9.1270719 10.021695,7.191586 7.446967,8.8607207 7.446967,8.8607207 l 0.017757,1.3850273 0.3728918,-0.05327 0.355135,-0.3196215 C 10.217019,8.4168029 10.518884,9.9793973 10.518884,9.9793973 L 8.9207774,10.245749 c 0,0 -1.7046481,0.745783 -1.8644589,1.136432 -0.6569999,1.544837 -0.1420541,2.148567 -0.1420541,2.148567 0.7990539,1.136432 2.326134,0.585972 2.326134,0.585972 l 1.2607286,-0.532702 -0.01776,0.355135 0.10654,0.159811 h 1.544839 V 13.637287 Z M 10.501127,12.447585 9.5245065,12.85599 c 0,0 -1.7756747,0.887838 -1.3850261,-0.81681 0,0 0.4794322,-1.029892 1.2252153,-0.585973 0,0 0.1242973,-0.426162 1.1541883,-0.426162 l -0.01776,1.42054 z"
       id="path27730"
       style="font-size:17.517px;line-height:1.25;font-family:Sovngarde;-inkscape-font-specification:Sovngarde;fill:#f1edf8;stroke-width:1.10979" />
    <path
       d="m 14.924792,13.1129 c 0,0 -1.385027,0 -1.385027,-1.775675 0,-1.8644593 1.456054,-1.8822161 1.456054,-1.8822161 0,0 1.189702,-0.088784 1.189702,0.7990541 l 0.230838,0.124297 c 0,0 0.71027,-0.5859728 0.923351,-1.1364321 0,0 -0.177568,0.1953243 -0.568216,-0.3196215 0,0 -0.71027,-0.568216 -1.775675,-0.568216 -2.770054,-0.1065406 -2.73454,2.8765936 -2.73454,2.8765936 0.05327,3.142945 2.663513,3.018648 2.663513,3.018648 1.651378,-0.03551 2.414918,-1.260729 2.414918,-1.260729 l -0.03551,-1.456054 -0.266351,0.07103 c -0.81681,1.633621 -2.113053,1.509324 -2.113053,1.509324 z"
       id="path27732"
       style="font-size:17.517px;line-height:1.25;font-family:Sovngarde;-inkscape-font-specification:Sovngarde;fill:#f1edf8;stroke-width:1.10979" />
    <path
       d="M 19.240232,12.438818 V 7.3959007 l -0.07103,0.035513 -0.05327,0.088784 -0.05327,-0.035514 h -0.07103 v -0.088784 l 0.03551,0.017757 v -0.05327 l 0.03551,-0.05327 h 0.08879 l 0.01776,-0.071027 0.08879,-0.071027 V 5.1052796 c 0,-0.5327025 0.195324,-0.6747565 0.195324,-0.6747565 H 19.222478 L 17.5711,4.8566851 c 0.390649,0.2485945 0.390649,0.8878376 0.390649,0.8878376 v 6.1971063 0.479433 c -0.01776,1.189702 -0.337379,1.189702 -0.337379,1.189702 v 0.621486 h 1.971 v -0.621486 c -0.319622,0 -0.355135,-1.171946 -0.355135,-1.171946 z m 3.267242,0.497189 -0.834567,-1.207459 c 0,0 -0.337379,0.03551 -0.905595,-0.656999 l 1.828946,-2.2195947 c 0,0 0.159811,-0.1953243 0.603729,-0.3196215 l -0.01776,-0.4616756 h -2.059784 v 0.4616756 c 0,0 0.355135,0.1598107 0,0.5149458 l -1.580351,2.0242704 0.816811,1.136432 0.230838,0.03551 c 0,0 -0.01776,0.05327 0,0.05327 0.01776,0 0.195324,0.03551 0.195324,0.03551 l 0.05327,-0.05327 0.03551,0.01776 0.142054,0.05327 -0.07103,0.05327 h -0.426152 v 0.10654 l 0.799054,0.887838 c 0,0 0.124297,0.177567 0.03551,0.284108 L 21.885984,14.25 h 1.633621 v -0.532703 c 0,0 -0.355135,0.05327 -1.012135,-0.781297 z m -1.36727,-0.532702 -0.07103,-0.03551 0.07103,-0.05327 0.03551,0.05327 0.213081,0.01776 z"
       id="path27734"
       style="font-size:17.517px;line-height:1.25;font-family:Sovngarde;-inkscape-font-specification:Sovngarde;fill:#f1edf8;stroke-width:1.10979" />
  </g>
</svg>
