<?xml version="1.0" encoding="UTF-8" standalone="no"?>
<svg
   height="26.0px"
   width="41.75px"
   version="1.1"
   id="svg484"
   sodipodi:docname="Caps.svg"
   inkscape:version="1.1 (c68e22c387, 2021-05-23)"
   xmlns:inkscape="http://www.inkscape.org/namespaces/inkscape"
   xmlns:sodipodi="http://sodipodi.sourceforge.net/DTD/sodipodi-0.dtd"
   xmlns="http://www.w3.org/2000/svg"
   xmlns:svg="http://www.w3.org/2000/svg">
  <defs
     id="defs488">
    <rect
       x="-6.1017283"
       y="-0.63295937"
       width="58.485446"
       height="33.217708"
       id="rect1479" />
    <rect
       x="-9.5703457"
       y="26.78684"
       width="73.980291"
       height="25.824742"
       id="rect32669" />
    <rect
       x="-7.40625"
       y="-0.625"
       width="83.25"
       height="51.21875"
       id="rect2591" />
    <rect
       x="20.461902"
       y="33.322407"
       width="58.601474"
       height="43.884815"
       id="rect62841" />
    <rect
       x="22.185475"
       y="31.863999"
       width="60.899571"
       height="47.464543"
       id="rect54537" />
    <rect
       x="22.273864"
       y="44.901281"
       width="27.577164"
       height="20.064155"
       id="rect51159" />
    <rect
       x="7.9107571"
       y="11.424194"
       width="21.412077"
       height="13.766485"
       id="rect39710" />
    <rect
       x="-24.041631"
       y="-11.313708"
       width="105.53569"
       height="62.57895"
       id="rect36404" />
    <rect
       x="-0.015625"
       y="0.015625"
       width="25.9375"
       height="25.984375"
       id="rect3373" />
    <rect
       x="-9.5703457"
       y="26.78684"
       width="73.980291"
       height="25.824742"
       id="rect32669-5" />
    <rect
       x="-7.40625"
       y="-0.625"
       width="83.25"
       height="51.21875"
       id="rect2591-7" />
    <rect
       x="20.461902"
       y="33.322407"
       width="58.601474"
       height="43.884815"
       id="rect62841-9" />
    <rect
       x="22.185475"
       y="31.863999"
       width="60.899571"
       height="47.464543"
       id="rect54537-3" />
    <rect
       x="22.273864"
       y="44.901281"
       width="27.577164"
       height="20.064155"
       id="rect51159-5" />
    <rect
       x="7.9107571"
       y="11.424194"
       width="21.412077"
       height="13.766485"
       id="rect39710-3" />
    <rect
       x="-24.041631"
       y="-11.313708"
       width="105.53569"
       height="62.57895"
       id="rect36404-6" />
    <rect
       x="-0.015625"
       y="0.015625"
       width="25.9375"
       height="25.984375"
       id="rect3373-8" />
    <rect
       x="-9.5703457"
       y="26.78684"
       width="73.980291"
       height="25.824742"
       id="rect32669-9" />
    <rect
       x="-7.40625"
       y="-0.625"
       width="83.25"
       height="51.21875"
       id="rect2591-8" />
    <rect
       x="20.461902"
       y="33.322407"
       width="58.601474"
       height="43.884815"
       id="rect62841-7" />
    <rect
       x="22.185475"
       y="31.863999"
       width="60.899571"
       height="47.464543"
       id="rect54537-4" />
    <rect
       x="22.273864"
       y="44.901281"
       width="27.577164"
       height="20.064155"
       id="rect51159-9" />
    <rect
       x="7.9107571"
       y="11.424194"
       width="21.412077"
       height="13.766485"
       id="rect39710-8" />
    <rect
       x="-24.041631"
       y="-11.313708"
       width="105.53569"
       height="62.57895"
       id="rect36404-3" />
    <rect
       x="-0.015625"
       y="0.015625"
       width="25.9375"
       height="25.984375"
       id="rect3373-1" />
    <rect
       x="-9.5703457"
       y="26.78684"
       width="73.980291"
       height="25.824742"
       id="rect32669-7" />
    <rect
       x="-7.40625"
       y="-0.625"
       width="83.25"
       height="51.21875"
       id="rect2591-70" />
    <rect
       x="20.461902"
       y="33.322407"
       width="58.601474"
       height="43.884815"
       id="rect62841-6" />
    <rect
       x="22.185475"
       y="31.863999"
       width="60.899571"
       height="47.464543"
       id="rect54537-7" />
    <rect
       x="22.273864"
       y="44.901281"
       width="27.577164"
       height="20.064155"
       id="rect51159-98" />
    <rect
       x="7.9107571"
       y="11.424194"
       width="21.412077"
       height="13.766485"
       id="rect39710-2" />
    <rect
       x="-24.041631"
       y="-11.313708"
       width="105.53569"
       height="62.57895"
       id="rect36404-8" />
    <rect
       x="-0.015625"
       y="0.015625"
       width="25.9375"
       height="25.984375"
       id="rect3373-3" />
    <rect
       x="-9.5703457"
       y="26.78684"
       width="73.980291"
       height="25.824742"
       id="rect32669-5-4" />
    <rect
       x="-7.40625"
       y="-0.625"
       width="83.25"
       height="51.21875"
       id="rect2591-7-4" />
    <rect
       x="20.461902"
       y="33.322407"
       width="58.601474"
       height="43.884815"
       id="rect62841-9-0" />
    <rect
       x="22.185475"
       y="31.863999"
       width="60.899571"
       height="47.464543"
       id="rect54537-3-4" />
    <rect
       x="22.273864"
       y="44.901281"
       width="27.577164"
       height="20.064155"
       id="rect51159-5-9" />
    <rect
       x="7.9107571"
       y="11.424194"
       width="21.412077"
       height="13.766485"
       id="rect39710-3-5" />
    <rect
       x="-24.041631"
       y="-11.313708"
       width="105.53569"
       height="62.57895"
       id="rect36404-6-8" />
    <rect
       x="-0.015625"
       y="0.015625"
       width="25.9375"
       height="25.984375"
       id="rect3373-8-7" />
  </defs>
  <sodipodi:namedview
     id="namedview486"
     pagecolor="#505050"
     bordercolor="#eeeeee"
     borderopacity="1"
     inkscape:pageshadow="0"
     inkscape:pageopacity="0"
     inkscape:pagecheckerboard="0"
     showgrid="false"
     inkscape:zoom="39.497006"
     inkscape:cx="18.84953"
     inkscape:cy="6.6587326"
     inkscape:window-width="3840"
     inkscape:window-height="2067"
     inkscape:window-x="-12"
     inkscape:window-y="40"
     inkscape:window-maximized="1"
     inkscape:current-layer="svg484"
     inkscape:snap-bbox="true"
     inkscape:bbox-paths="true"
     inkscape:bbox-nodes="false"
     inkscape:snap-bbox-edge-midpoints="false"
     inkscape:snap-bbox-midpoints="false"
     inkscape:snap-smooth-nodes="true"
     inkscape:snap-midpoints="true"
     inkscape:object-paths="true"
     inkscape:snap-intersection-paths="false"
     inkscape:snap-global="false" />
  <g
     transform="matrix(1.0, 0.0, 0.0, 1.0, 0.0, 0.0)"
     id="g482" />
  <text
     xml:space="preserve"
     id="text32667"
     style="line-height:1.25;font-family:Sovngarde;font-size:12px;-inkscape-font-specification:Sovngarde;letter-spacing:0px;white-space:pre;shape-inside:url(#rect32669)" />
  <path
     d="m 11.103016,16.224105 c 0,0 -4.3219564,0.318461 -4.3219564,-3.91251 0,-5.095365 4.2992064,-4.7996521 4.2992064,-4.7996521 0,0 2.251974,-0.045491 2.320216,2.4111993 l 0.545931,0.1592308 c 0,0 1.069112,-1.2965893 1.524061,-2.4794412 0,0 -0.363957,0.4094492 -1.205604,-0.7051622 0,0 -1.501311,-1.1146106 -3.798776,-1.1146106 -5.9370089,-0.2274716 -5.8460175,6.09624 -5.8460175,6.09624 0.090991,6.733158 5.6867935,6.460193 5.6867935,6.460193 3.525802,-0.09099 5.163604,-3.093615 5.163604,-3.093615 l 0.02277,-1.364829 -0.636914,0.136483 c -1.251095,2.138233 -3.753285,2.206474 -3.753285,2.206474 z"
     id="path12994"
     style="font-size:26.6667px;line-height:1.25;font-family:Sovngarde;-inkscape-font-specification:Sovngarde;letter-spacing:0px;white-space:pre;fill:#f1edf8;fill-opacity:1;stroke-width:0.853017" />
  <g
     id="g16065"
     transform="matrix(0.93048321,0,0,0.93048321,0.99852029,-1.5878608)">
    <path
       d="m 24.025368,19.219497 c 0,0 -0.0267,-0.08 -0.13333,-0.106667 -0.42667,-0.133333 -0.48,-0.773334 -0.48,-0.773334 0,0 -0.0267,-1.946669 0,-3.573338 0.0533,-1.920002 -0.32,-2.240003 -0.32,-2.240003 -2.18667,-2.90667 -6.05334,-0.4 -6.05334,-0.4 l 0.0267,2.080003 0.56,-0.08 0.53334,-0.480001 c 3.04,-2.18667 3.49334,0.16 3.49334,0.16 l -2.40001,0.400001 c 0,0 -2.56,1.120001 -2.8,1.706668 -0.98667,2.320003 -0.21333,3.226671 -0.21333,3.226671 1.2,1.706669 3.49333,0.880001 3.49333,0.880001 l 1.89334,-0.800001 -0.0267,0.533334 0.16,0.240001 h 2.32001 v -0.693335 z m -2.4,-1.706669 -1.46667,0.613335 c 0,0 -2.66667,1.333335 -2.08,-1.226669 0,0 0.72,-1.546668 1.84,-0.880001 0,0 0.18667,-0.640001 1.73334,-0.640001 l -0.0267,2.133336 z"
       id="path12996"
       style="font-size:26.6667px;line-height:1.25;font-family:Sovngarde;-inkscape-font-specification:Sovngarde;letter-spacing:0px;white-space:pre;fill:#f1edf8;fill-opacity:1" />
    <path
       d="m 28.578942,11.272821 c -0.0533,0 -0.08,0 -0.10666,0 v 0 c -1.12,0 -1.76,0.16 -2.48001,0.586667 V 11.19282 h -1.04 l -1.25333,0.853335 0.16,0.106667 c 0.32,-0.05333 0.4,0.64 0.4,0.64 v 0 c 0,0 0,0 0,0 v 1.066669 9.306678 c 0,0 0,0.986668 -0.48,1.360002 l 2.26667,0.693334 h 0.50667 c 0,0 -0.45334,-1.013335 -0.45334,-1.893336 V 21.6195 l -0.13333,-0.106666 -0.0267,-0.133334 h -0.13333 l -0.0267,-0.08 -0.0267,-0.08 -0.0533,0.05333 v -0.16 h 0.10667 l 0.08,-0.05333 0.08,0.133333 0.10666,0.08 v -2.026669 c 0.66667,0.640001 1.41334,0.693334 2.13334,0.746668 2.77334,0.186666 4.40001,-1.573336 4.40001,-4.213339 0,-2.90667 -1.65334,-4.506672 -4.02668,-4.506672 z m -0.16,7.093342 c -1.65333,0 -2.32,-1.653336 -2.32,-2.613337 0,-1.920002 1.09334,-2.90667 2.13334,-2.90667 1.68,0 2.64,1.120001 2.64,2.933337 0,1.333335 -0.98667,2.58667 -2.45334,2.58667 z"
       id="path12998"
       style="font-size:26.6667px;line-height:1.25;font-family:Sovngarde;-inkscape-font-specification:Sovngarde;letter-spacing:0px;white-space:pre;fill:#f1edf8;fill-opacity:1" />
    <path
       d="m 38.522869,17.246161 c -0.0533,-1.653335 -1.28,-1.946669 -1.28,-1.946669 -1.36,-0.32 -1.6,-0.4 -1.6,-0.4 -1.54667,-0.613334 -1.22667,-1.520002 -1.22667,-1.520002 0.64,-1.600002 2.88,-0.506667 2.88,-0.506667 h 0.8 v -1.226669 c -1.94667,-1.013334 -3.65333,-0.346667 -3.65333,-0.346667 -1.54667,0.480001 -1.57334,2.10667 -1.57334,2.10667 0,1.786669 1.54667,2.480003 1.54667,2.480003 l 0.18667,-0.02667 0.08,-0.133333 0.13333,0.02667 0.16,-0.16 h 0.26667 c -0.42667,0.213334 -0.53334,0.480001 -0.53334,0.480001 2.48001,0.4 2.29334,1.280001 2.29334,1.280001 0,1.093335 -1.68,1.120002 -1.68,1.120002 -1.49334,-0.106667 -1.81334,-1.066668 -1.81334,-1.066668 h -0.85333 v 1.386668 c 0.58666,1.200002 2.74667,1.200002 2.74667,1.200002 1.78667,0.08 2.45333,-0.880002 2.45333,-0.880002 0.8,-1.146668 0.66667,-1.866669 0.66667,-1.86667 z"
       id="path13000"
       style="font-size:26.6667px;line-height:1.25;font-family:Sovngarde;-inkscape-font-specification:Sovngarde;letter-spacing:0px;white-space:pre;fill:#f1edf8;fill-opacity:1" />
  </g>
</svg>
