<?xml version="1.0" encoding="UTF-8" standalone="no"?>
<svg
   height="26.0px"
   width="35.75px"
   version="1.1"
   id="svg10"
   sodipodi:docname="end.svg"
   inkscape:version="1.1 (c68e22c387, 2021-05-23)"
   xmlns:inkscape="http://www.inkscape.org/namespaces/inkscape"
   xmlns:sodipodi="http://sodipodi.sourceforge.net/DTD/sodipodi-0.dtd"
   xmlns="http://www.w3.org/2000/svg"
   xmlns:svg="http://www.w3.org/2000/svg">
  <defs
     id="defs14">
    <rect
       x="-7.40625"
       y="-0.625"
       width="83.25"
       height="51.21875"
       id="rect2591" />
    <rect
       x="20.461902"
       y="33.322407"
       width="58.601474"
       height="43.884815"
       id="rect62841" />
    <rect
       x="22.185475"
       y="31.863999"
       width="60.899571"
       height="47.464543"
       id="rect54537" />
    <rect
       x="22.273864"
       y="44.901281"
       width="27.577164"
       height="20.064155"
       id="rect51159" />
    <rect
       x="7.9107571"
       y="11.424194"
       width="21.412077"
       height="13.766485"
       id="rect39710" />
    <rect
       x="-24.041631"
       y="-11.313708"
       width="105.53569"
       height="62.57895"
       id="rect36404" />
    <rect
       x="-0.015625"
       y="0.015625"
       width="25.9375"
       height="25.984375"
       id="rect3373" />
  </defs>
  <sodipodi:namedview
     id="namedview12"
     pagecolor="#505050"
     bordercolor="#eeeeee"
     borderopacity="1"
     inkscape:pageshadow="0"
     inkscape:pageopacity="0"
     inkscape:pagecheckerboard="0"
     showgrid="false"
     inkscape:snap-global="true"
     inkscape:zoom="64"
     inkscape:cx="15.929688"
     inkscape:cy="13.890625"
     inkscape:window-width="3840"
     inkscape:window-height="2067"
     inkscape:window-x="-12"
     inkscape:window-y="40"
     inkscape:window-maximized="1"
     inkscape:current-layer="g8"
     showguides="true"
     inkscape:snap-intersection-paths="true"
     inkscape:object-paths="true"
     inkscape:snap-midpoints="true"
     inkscape:snap-bbox="true"
     inkscape:bbox-paths="true"
     inkscape:bbox-nodes="true"
     inkscape:snap-bbox-edge-midpoints="true"
     inkscape:snap-bbox-midpoints="true"
     inkscape:guide-bbox="true">
    <inkscape:grid
       type="xygrid"
       id="grid138" />
    <sodipodi:guide
       position="5.3828082,19.562542"
       orientation="0,-1"
       id="guide7412" />
    <sodipodi:guide
       position="5.382824,6.6250389"
       orientation="0,-1"
       id="guide7414" />
  </sodipodi:namedview>
  <g
     id="g8">
    <g
       id="g7410"
       transform="matrix(0.8370558,0,0,0.8370558,1.1077239,2.576043)">
      <path
         d="M 14.851283,7.4690878 V 4.6130915 H 9.0552871 6.1712883 5.1072871 v 0.027969 1.5679975 0 c 0.2240126,0.1399937 0.3640063,0.3079937 0.4760012,0.5040001 0.168,0.3079937 0.2240126,0.7280012 0.2520189,1.0640012 V 8.4770576 16.569053 C 5.7512883,18.445055 5.107306,18.445055 5.107306,18.445055 v 1.623999 h 3.36 v 0 h 3.807999 c 0,0 1.707999,0 2.575997,0 v -2.688 h -0.867998 c 0,0 -0.699999,0.588 -3.555999,0.588 -1.7640003,0 -2.043999,-1.568001 -2.1000003,-2.127999 v -2.799999 h 1.9880013 c 0,0 2.519996,0 2.855996,-0.699998 l 0.224013,-0.588 0.224012,-0.672 c 0,0 -0.784002,0.307993 -3.9200008,0.139993 0,0 -0.2520189,0.448003 -1.3719988,0.448003 V 9.4010538 l -0.168,0.083981 -0.084019,0.1119874 -0.056013,0.027969 -0.083981,-0.083981 H 7.7953211 L 7.7673526,9.401016 7.8513715,9.4570286 7.87934,9.3450412 7.9073085,9.2610601 H 8.1313211 L 8.1592896,9.1490727 8.3552959,9.0370853 v -1.596 c 0.168,-0.924 1.6800001,-0.8120013 1.6800001,-0.8120013 h 1.203999 c 0,0 2.436,-0.027969 2.912001,0.84 z"
         id="path35592"
         style="font-size:7.40833px;line-height:1.25;font-family:Sovngarde;-inkscape-font-specification:Sovngarde;letter-spacing:0px;fill:#f1edf8;stroke-width:0.999999" />
      <path
         d="m 24.175227,18.501083 v -3.331998 -1.203998 c -0.02797,-1.623999 -1.344,-3.051999 -3.444,-3.051999 -1.035999,0 -1.735998,0.02797 -2.295999,0.672 v -0.336 c 0,-0.532003 0.504,-0.644001 0.504,-0.644001 h -0.588 l -2.127999,0.392001 c 0.448003,0.279987 0.448003,1.203999 0.448003,1.203999 v 5.543996 0.364006 c 0,1.147998 -0.560002,1.259996 -0.560002,1.259996 v 0.728002 h 3.024001 v -0.756 c -0.560002,0 -0.616003,-1.231998 -0.616003,-1.231998 v -2.576001 0 c 0,0 -0.139994,-2.799999 1.904001,-2.799999 2.127999,0 1.848,2.547999 1.848,2.547999 v 2.799999 0.448002 c -0.02797,0.811998 -0.504,1.371999 -0.504,1.371999 v 0.168 h 2.771997 v -0.728001 c -0.307994,0 -0.364007,-0.84 -0.364007,-0.84 z m -5.851998,-3.275996 -0.111987,-0.05601 h -0.111988 v -0.08402 l 0.05601,0.02797 0.02797,-0.05601 0.02797,-0.05601 h 0.05601 l 0.08402,0.168 z"
         id="path35594"
         style="font-size:7.40833px;line-height:1.25;font-family:Sovngarde;-inkscape-font-specification:Sovngarde;letter-spacing:0px;fill:#f1edf8;stroke-width:0.999999" />
      <path
         d="m 29.803185,10.381085 c 0.979998,0 2.043999,0.224013 2.772,0.896002 V 9.5970866 l 0.111988,0.084019 0.08402,0.1399937 0.08398,-0.056013 h 0.111987 l 0.02797,-0.168 -0.08398,0.056013 V 9.5691183 L 32.88318,9.4571309 h -0.168 L 32.687211,9.3451432 32.547217,9.2331558 V 5.8451571 c 0,-0.924 -0.531999,-1.176 -0.531999,-1.176 h 0.588 l 2.352,0.7280012 c -0.476001,0.2799874 -0.532002,1.176 -0.532002,1.176 v 11.1719927 1.148001 c 0,0 -1.651998,1.399998 -4.899995,1.399998 -1.876003,0 -4.004002,-1.539999 -4.004002,-5.123997 0,-3.444 2.463999,-4.788 4.284,-4.788 z m 0.111988,8.064 c 1.820001,0 2.576001,-1.596 2.576001,-3.248001 0,-1.371999 -0.812001,-2.883999 -2.631999,-2.883999 -1.820001,0 -2.52,1.568002 -2.52,2.967999 0,1.736001 0.475998,3.164001 2.575998,3.164001 z"
         id="path35596"
         style="font-size:7.40833px;line-height:1.25;font-family:Sovngarde;-inkscape-font-specification:Sovngarde;letter-spacing:0px;fill:#f1edf8;stroke-width:0.999999" />
    </g>
  </g>
</svg>
