<?xml version="1.0" encoding="UTF-8" standalone="no"?>
<svg
   height="26.0px"
   width="41.75px"
   version="1.1"
   id="svg484"
   sodipodi:docname="Enter.svg"
   inkscape:version="1.1 (c68e22c387, 2021-05-23)"
   xmlns:inkscape="http://www.inkscape.org/namespaces/inkscape"
   xmlns:sodipodi="http://sodipodi.sourceforge.net/DTD/sodipodi-0.dtd"
   xmlns="http://www.w3.org/2000/svg"
   xmlns:svg="http://www.w3.org/2000/svg">
  <defs
     id="defs488">
    <rect
       x="-6.1017283"
       y="-0.63295937"
       width="58.485446"
       height="33.217708"
       id="rect1479" />
    <rect
       x="-9.5703457"
       y="26.78684"
       width="73.980291"
       height="25.824742"
       id="rect32669" />
    <rect
       x="-7.40625"
       y="-0.625"
       width="83.25"
       height="51.21875"
       id="rect2591" />
    <rect
       x="20.461902"
       y="33.322407"
       width="58.601474"
       height="43.884815"
       id="rect62841" />
    <rect
       x="22.185475"
       y="31.863999"
       width="60.899571"
       height="47.464543"
       id="rect54537" />
    <rect
       x="22.273864"
       y="44.901281"
       width="27.577164"
       height="20.064155"
       id="rect51159" />
    <rect
       x="7.9107571"
       y="11.424194"
       width="21.412077"
       height="13.766485"
       id="rect39710" />
    <rect
       x="-24.041631"
       y="-11.313708"
       width="105.53569"
       height="62.57895"
       id="rect36404" />
    <rect
       x="-0.015625"
       y="0.015625"
       width="25.9375"
       height="25.984375"
       id="rect3373" />
    <rect
       x="-9.5703457"
       y="26.78684"
       width="73.980291"
       height="25.824742"
       id="rect32669-5" />
    <rect
       x="-7.40625"
       y="-0.625"
       width="83.25"
       height="51.21875"
       id="rect2591-7" />
    <rect
       x="20.461902"
       y="33.322407"
       width="58.601474"
       height="43.884815"
       id="rect62841-9" />
    <rect
       x="22.185475"
       y="31.863999"
       width="60.899571"
       height="47.464543"
       id="rect54537-3" />
    <rect
       x="22.273864"
       y="44.901281"
       width="27.577164"
       height="20.064155"
       id="rect51159-5" />
    <rect
       x="7.9107571"
       y="11.424194"
       width="21.412077"
       height="13.766485"
       id="rect39710-3" />
    <rect
       x="-24.041631"
       y="-11.313708"
       width="105.53569"
       height="62.57895"
       id="rect36404-6" />
    <rect
       x="-0.015625"
       y="0.015625"
       width="25.9375"
       height="25.984375"
       id="rect3373-8" />
    <rect
       x="-9.5703457"
       y="26.78684"
       width="73.980291"
       height="25.824742"
       id="rect32669-9" />
    <rect
       x="-7.40625"
       y="-0.625"
       width="83.25"
       height="51.21875"
       id="rect2591-8" />
    <rect
       x="20.461902"
       y="33.322407"
       width="58.601474"
       height="43.884815"
       id="rect62841-7" />
    <rect
       x="22.185475"
       y="31.863999"
       width="60.899571"
       height="47.464543"
       id="rect54537-4" />
    <rect
       x="22.273864"
       y="44.901281"
       width="27.577164"
       height="20.064155"
       id="rect51159-9" />
    <rect
       x="7.9107571"
       y="11.424194"
       width="21.412077"
       height="13.766485"
       id="rect39710-8" />
    <rect
       x="-24.041631"
       y="-11.313708"
       width="105.53569"
       height="62.57895"
       id="rect36404-3" />
    <rect
       x="-0.015625"
       y="0.015625"
       width="25.9375"
       height="25.984375"
       id="rect3373-1" />
  </defs>
  <sodipodi:namedview
     id="namedview486"
     pagecolor="#505050"
     bordercolor="#eeeeee"
     borderopacity="1"
     inkscape:pageshadow="0"
     inkscape:pageopacity="0"
     inkscape:pagecheckerboard="0"
     showgrid="false"
     inkscape:zoom="19.748503"
     inkscape:cx="13.24151"
     inkscape:cy="1.6710127"
     inkscape:window-width="3840"
     inkscape:window-height="2067"
     inkscape:window-x="-12"
     inkscape:window-y="40"
     inkscape:window-maximized="1"
     inkscape:current-layer="svg484"
     inkscape:snap-bbox="true"
     inkscape:bbox-paths="true"
     inkscape:bbox-nodes="true"
     inkscape:snap-bbox-edge-midpoints="true"
     inkscape:snap-bbox-midpoints="true"
     inkscape:snap-smooth-nodes="true"
     inkscape:snap-midpoints="true"
     inkscape:object-paths="true"
     inkscape:snap-intersection-paths="false"
     inkscape:snap-global="false" />
  <g
     transform="matrix(1.0, 0.0, 0.0, 1.0, 0.0, 0.0)"
     id="g482" />
  <text
     xml:space="preserve"
     id="text32667"
     style="line-height:1.25;font-family:Sovngarde;font-size:12px;-inkscape-font-specification:Sovngarde;letter-spacing:0px;white-space:pre;shape-inside:url(#rect32669)" />
  <path
     d="M 11.982343,7.0594838 C 9.0490066,4.2061465 6.062336,5.8328152 6.062336,5.8328152 3.6889997,6.8728168 3.7956665,9.5661528 3.7956665,9.5661528 3.9556667,12.846158 6.4356699,13.352824 6.4356699,13.352824 l 0.3200004,-0.02667 0.1333335,-0.213333 0.1866669,0.02667 0.266667,-0.266667 h 0.4533339 c -0.6933342,0.373334 -0.8800011,0.800001 -0.8800011,0.800001 3.7866705,0.746668 3.5466705,2.480003 3.5466705,2.480003 0,1.706669 -3.0933366,1.573336 -3.0933366,1.573336 C 4.6756676,17.512829 4.2223337,15.592827 4.2223337,15.592827 H 3.1023323 v 2.320003 c 1.0133346,2.000002 4.5066724,2.080002 4.5066724,2.080002 2.9600033,0.133334 4.0533373,-1.333335 4.0533373,-1.333335 1.386669,-1.493335 0.960002,-3.226669 0.960002,-3.226669 C 12.302343,13.566159 9.9823396,12.552823 9.9823396,12.552823 8.0090052,11.592822 7.5290046,11.326155 7.5290046,11.326155 5.5023353,10.446154 5.9023358,8.9794858 5.9023358,8.9794858 c 0.5333341,-2.400003 4.1600042,-1.706669 4.8533392,-0.16 h 1.226668 z"
     style="font-size:26.6667px;line-height:1.25;font-family:Sovngarde;-inkscape-font-specification:Sovngarde;letter-spacing:0px;white-space:pre;shape-inside:url(#rect1479);fill:#f1edf8;fill-opacity:1"
     id="path5655" />
  <g
     id="g8741"
     transform="matrix(0.82390201,0,0,0.82390201,1.8705192,1.2288782)">
    <path
       d="m 17.523169,11.272821 c -0.05333,0 -0.08,0 -0.106667,0 v 0 c -1.120001,0 -1.760002,0.160001 -2.480003,0.586668 v -0.666668 h -1.040001 l -1.253335,0.853335 0.16,0.106666 c 0.32,-0.05333 0.400001,0.640001 0.400001,0.640001 v 0 c 0,0 0,0 0,0 v 1.066668 9.306679 c 0,0 0,0.986668 -0.480001,1.360001 l 2.266669,0.693335 H 15.4965 c 0,0 -0.453334,-1.013335 -0.453334,-1.893336 v -1.706669 l -0.133334,-0.106667 -0.02667,-0.133333 h -0.133334 l -0.02667,-0.08 -0.02667,-0.08 -0.05333,0.05333 v -0.16 h 0.106667 l 0.08,-0.05333 0.08,0.133334 0.106667,0.08 v -2.02667 c 0.666667,0.640002 1.413335,0.693334 2.133336,0.746667 2.773337,0.186667 4.400006,-1.573335 4.400006,-4.213338 0,-2.90667 -1.653336,-4.506672 -4.026672,-4.506674 z m -0.16,7.093343 c -1.653336,0 -2.320003,-1.653336 -2.320003,-2.613337 0,-1.920002 1.093335,-2.90667 2.133336,-2.90667 1.680002,0 2.640003,1.120001 2.640003,2.933337 0,1.333335 -0.986668,2.58667 -2.453336,2.58667 z"
       style="font-size:26.6667px;line-height:1.25;font-family:Sovngarde;-inkscape-font-specification:Sovngarde;letter-spacing:0px;white-space:pre;shape-inside:url(#rect1479);fill:#f1edf8;fill-opacity:1"
       id="path5657" />
    <path
       d="m 29.45726,19.219498 c 0,0 -0.02667,-0.08 -0.133333,-0.106667 -0.426667,-0.133333 -0.480001,-0.773334 -0.480001,-0.773334 0,0 -0.02667,-1.946669 0,-3.573337 0.05333,-1.920002 -0.32,-2.240003 -0.32,-2.240003 -2.18667,-2.9066702 -6.053341,-0.4 -6.053341,-0.4 l 0.02667,2.080002 0.56,-0.08 0.533334,-0.48 c 3.040004,-2.18667 3.493338,0.16 3.493338,0.16 l -2.400003,0.4 c 0,0 -2.560003,1.120002 -2.800004,1.706669 -0.986667,2.320003 -0.213333,3.226671 -0.213333,3.226671 1.200001,1.706669 3.493338,0.880001 3.493338,0.880001 l 1.893335,-0.800002 -0.02667,0.533334 0.16,0.24 h 2.320003 v -0.693334 z m -2.400003,-1.706669 -1.466668,0.613334 c 0,0 -2.66667,1.333335 -2.080003,-1.226668 0,0 0.720001,-1.546669 1.840003,-0.880001 0,0 0.186666,-0.640001 1.733335,-0.640001 l -0.02667,2.133336 z"
       style="font-size:26.6667px;line-height:1.25;font-family:Sovngarde;-inkscape-font-specification:Sovngarde;letter-spacing:0px;white-space:pre;shape-inside:url(#rect1479);fill:#f1edf8;fill-opacity:1"
       id="path5659" />
    <path
       d="m 33.010183,18.286164 c 0,0 -2.080003,0 -2.080003,-2.666671 0,-2.800003 2.186669,-2.82667 2.186669,-2.82667 0,0 1.786669,-0.133333 1.786669,1.200002 l 0.346667,0.186667 c 0,0 1.066668,-0.880001 1.386669,-1.706669 0,0 -0.266667,0.293334 -0.853335,-0.480001 0,0 -1.066668,-0.853334 -2.66667,-0.853334 -4.160005,-0.16 -4.106671,4.320005 -4.106671,4.320005 0.08,4.720006 4.000005,4.533339 4.000005,4.533339 2.480003,-0.05333 3.626671,-1.893335 3.626671,-1.893335 l -0.05333,-2.18667 -0.4,0.106668 c -1.226668,2.453335 -3.173337,2.26667 -3.173337,2.26667 z"
       style="font-size:26.6667px;line-height:1.25;font-family:Sovngarde;-inkscape-font-specification:Sovngarde;letter-spacing:0px;white-space:pre;shape-inside:url(#rect1479);fill:#f1edf8;fill-opacity:1"
       id="path5661" />
    <path
       d="m 40.749491,18.179497 c 0,0 -2.053336,-0.266667 -2.18667,-2.026669 -0.02667,-0.08 -0.08,-0.16 -0.08,-0.24 h 1.226668 l 2.773337,-0.106667 c 0,0 1.360003,0.02667 1.70667,-0.800001 l 0.453333,-1.386668 c 0,0 0.16,-0.613334 0.213333,-1.200002 0,0 -0.32,0.560001 -0.720001,-0.32 -0.640001,-1.333335 -2.720003,-1.360002 -2.720003,-1.360002 -3.360004,-0.133333 -4.560006,2.58667 -4.666673,3.760005 l -0.56,0.213334 c 0.266667,0.453334 0.05333,0.960001 0.48,1.013333 l -0.02667,-0.05333 0.05333,0.02667 v -0.02667 l 0.02667,-0.05333 h 0.133333 v -0.02667 l 0.106667,-0.05333 v 0.133334 l -0.106667,0.05333 -0.05333,0.02667 h -0.05333 -0.02667 c -0.02667,0.08 -0.02667,0.106667 -0.02667,0.106667 0.106667,4.186672 4.586672,4.160005 4.586672,4.160005 2.50667,-0.08 3.146671,-1.413335 3.146671,-1.413335 l -0.02667,-1.786669 -0.800001,0.106667 c -0.48,1.333335 -2.853337,1.253335 -2.853337,1.253335 z m 0.400001,-6.106674 c 0,0 1.840002,-0.05333 1.706668,1.973336 0,0 -1.680002,0.400001 -2.746669,0.453334 h -1.600003 c 0.746668,-2.693337 2.640004,-2.42667 2.640004,-2.42667 z"
       style="font-size:26.6667px;line-height:1.25;font-family:Sovngarde;-inkscape-font-specification:Sovngarde;letter-spacing:0px;white-space:pre;shape-inside:url(#rect1479);fill:#f1edf8;fill-opacity:1"
       id="path5663" />
  </g>
</svg>
