<?xml version="1.0" encoding="UTF-8" standalone="no"?>
<svg
   height="26.0px"
   width="35.75px"
   version="1.1"
   id="svg10"
   sodipodi:docname="2.svg"
   inkscape:version="1.1 (c68e22c387, 2021-05-23)"
   xmlns:inkscape="http://www.inkscape.org/namespaces/inkscape"
   xmlns:sodipodi="http://sodipodi.sourceforge.net/DTD/sodipodi-0.dtd"
   xmlns="http://www.w3.org/2000/svg"
   xmlns:svg="http://www.w3.org/2000/svg">
  <defs
     id="defs14">
    <rect
       x="-7.40625"
       y="-0.625"
       width="83.25"
       height="51.21875"
       id="rect2591" />
    <rect
       x="20.461902"
       y="33.322407"
       width="58.601474"
       height="43.884815"
       id="rect62841" />
    <rect
       x="22.185475"
       y="31.863999"
       width="60.899571"
       height="47.464543"
       id="rect54537" />
    <rect
       x="22.273864"
       y="44.901281"
       width="27.577164"
       height="20.064155"
       id="rect51159" />
    <rect
       x="7.9107571"
       y="11.424194"
       width="21.412077"
       height="13.766485"
       id="rect39710" />
    <rect
       x="-24.041631"
       y="-11.313708"
       width="105.53569"
       height="62.57895"
       id="rect36404" />
    <rect
       x="-0.015625"
       y="0.015625"
       width="25.9375"
       height="25.984375"
       id="rect3373" />
  </defs>
  <sodipodi:namedview
     id="namedview12"
     pagecolor="#505050"
     bordercolor="#eeeeee"
     borderopacity="1"
     inkscape:pageshadow="0"
     inkscape:pageopacity="0"
     inkscape:pagecheckerboard="0"
     showgrid="false"
     inkscape:snap-global="true"
     inkscape:zoom="64"
     inkscape:cx="15.789062"
     inkscape:cy="13.6875"
     inkscape:window-width="3840"
     inkscape:window-height="2067"
     inkscape:window-x="-12"
     inkscape:window-y="40"
     inkscape:window-maximized="1"
     inkscape:current-layer="g8"
     showguides="false"
     inkscape:snap-intersection-paths="true"
     inkscape:object-paths="true"
     inkscape:snap-midpoints="true"
     inkscape:snap-bbox="true"
     inkscape:bbox-paths="true"
     inkscape:bbox-nodes="true"
     inkscape:snap-bbox-edge-midpoints="true"
     inkscape:snap-bbox-midpoints="true">
    <inkscape:grid
       type="xygrid"
       id="grid138" />
  </sodipodi:namedview>
  <g
     id="g8">
    <g
       id="g14488"
       transform="translate(0.3540935,0.20312646)">
      <path
         d="M 15.065167,7.9223878 V 5.0663915 H 9.269169 6.38517 5.321171 v 0.027969 1.5679975 0 c 0.2240013,0.1399937 0.3639987,0.3079937 0.476,0.5040001 0.168,0.3079937 0.224001,0.7280012 0.252,1.0640012 v 0.6999988 8.0919959 c -0.084,1.876002 -0.7279996,1.876002 -0.7279996,1.876002 v 1.623999 H 8.68117 v 0 h 3.807998 c 0,0 1.707999,0 2.575999,0 v -2.688 h -0.868 c 0,0 -0.699999,0.588 -3.555998,0.588 -1.763999,0 -2.043999,-1.568001 -2.099999,-2.127999 v -2.8 h 1.987999 c 0,0 2.519999,0 2.855999,-0.699998 l 0.223999,-0.588 0.224,-0.672 c 0,0 -0.783999,0.307993 -3.919998,0.139993 0,0 -0.252,0.448003 -1.372,0.448003 V 9.8543538 l -0.168,0.083981 -0.084,0.1119872 -0.056,0.02797 -0.084,-0.083981 H 8.009168 l -0.02801,-0.1399937 0.084,0.056013 0.02801,-0.1119874 0.02801,-0.083981 H 8.345179 L 8.373189,9.6023737 8.569187,9.4903863 v -1.596 c 0.168,-0.924 1.68,-0.8120013 1.68,-0.8120013 h 1.203999 c 0,0 2.435999,-0.027968 2.911999,0.84 z"
         id="path35550"
         style="font-size:7.40833px;line-height:1.25;font-family:Sovngarde;-inkscape-font-specification:Sovngarde;letter-spacing:0px;fill:#f1edf8;stroke-width:0.999999" />
      <path
         d="m 21.703861,17.638385 c -0.056,-1.736001 -1.344,-2.043998 -1.344,-2.043998 -1.427999,-0.336 -1.679999,-0.42 -1.679999,-0.42 -1.623999,-0.644002 -1.287999,-1.596 -1.287999,-1.596 0.671999,-1.68 3.023998,-0.531999 3.023998,-0.531999 h 0.84 v -1.288003 c -2.043999,-1.063997 -3.835998,-0.364006 -3.835998,-0.364006 -1.624,0.504 -1.652,2.211999 -1.652,2.211999 0,1.875999 1.624,2.604 1.624,2.604 l 0.195999,-0.02797 0.084,-0.139993 0.140001,0.02797 0.168,-0.168 h 0.279999 c -0.448002,0.224013 -0.560002,0.504 -0.560002,0.504 2.604002,0.42 2.408002,1.344 2.408002,1.344 0,1.148001 -1.764,1.176 -1.764,1.176 -1.568001,-0.111987 -1.904001,-1.119999 -1.904001,-1.119999 h -0.895998 v 1.455999 c 0.616,1.26 2.883999,1.26 2.883999,1.26 1.875999,0.08398 2.575999,-0.924 2.575999,-0.924 0.84,-1.203999 0.7,-1.959999 0.7,-1.959999 z"
         id="path35552"
         style="font-size:7.40833px;line-height:1.25;font-family:Sovngarde;-inkscape-font-specification:Sovngarde;letter-spacing:0px;fill:#f1edf8;stroke-width:0.999999" />
      <path
         d="m 25.912645,18.730385 c 0,0 -2.183999,0 -2.183999,-2.799998 0,-2.94 2.295999,-2.967999 2.295999,-2.967999 0,0 1.875999,-0.139994 1.875999,1.259996 l 0.363999,0.196006 c 0,0 1.119999,-0.924 1.455999,-1.791998 0,0 -0.279999,0.307993 -0.895999,-0.504 0,0 -1.12,-0.896002 -2.799999,-0.896002 -4.367998,-0.168 -4.311998,4.536 -4.311998,4.536 0.084,4.955997 4.199998,4.759998 4.199998,4.759998 2.603999,-0.05601 3.807998,-1.988001 3.807998,-1.988001 l -0.056,-2.295999 -0.42,0.111987 c -1.287999,2.576002 -3.331999,2.380003 -3.331999,2.380003 z"
         id="path35554"
         style="font-size:7.40833px;line-height:1.25;font-family:Sovngarde;-inkscape-font-specification:Sovngarde;letter-spacing:0px;fill:#f1edf8;stroke-width:0.999999" />
    </g>
  </g>
</svg>
