<?xml version="1.0" encoding="UTF-8" standalone="no"?>
<svg
   height="26.0px"
   width="26.0px"
   version="1.1"
   id="svg10050"
   sodipodi:docname="F1.svg"
   inkscape:version="1.1 (c68e22c387, 2021-05-23)"
   xmlns:inkscape="http://www.inkscape.org/namespaces/inkscape"
   xmlns:sodipodi="http://sodipodi.sourceforge.net/DTD/sodipodi-0.dtd"
   xmlns="http://www.w3.org/2000/svg"
   xmlns:svg="http://www.w3.org/2000/svg">
  <defs
     id="defs10054">
    <rect
       x="20.461902"
       y="33.322407"
       width="58.601474"
       height="43.884815"
       id="rect62841" />
    <rect
       x="22.185475"
       y="31.863999"
       width="60.899571"
       height="47.464543"
       id="rect54537" />
    <rect
       x="22.273864"
       y="44.901281"
       width="27.577164"
       height="20.064155"
       id="rect51159" />
    <rect
       x="7.9107571"
       y="11.424194"
       width="21.412077"
       height="13.766485"
       id="rect39710" />
    <rect
       x="-24.041631"
       y="-11.313708"
       width="105.53569"
       height="62.57895"
       id="rect36404" />
    <rect
       x="-0.015625"
       y="0.015625"
       width="25.9375"
       height="25.984375"
       id="rect3373" />
    <rect
       x="20.461902"
       y="33.322407"
       width="58.601474"
       height="43.884815"
       id="rect62841-1" />
    <rect
       x="22.185475"
       y="31.863999"
       width="60.899571"
       height="47.464543"
       id="rect54537-5" />
    <rect
       x="22.273864"
       y="44.901281"
       width="27.577164"
       height="20.064155"
       id="rect51159-0" />
    <rect
       x="7.9107571"
       y="11.424194"
       width="21.412077"
       height="13.766485"
       id="rect39710-3" />
    <rect
       x="-24.041631"
       y="-11.313708"
       width="105.53569"
       height="62.57895"
       id="rect36404-7" />
    <rect
       x="-0.015625"
       y="0.015625"
       width="25.9375"
       height="25.984375"
       id="rect3373-1" />
  </defs>
  <sodipodi:namedview
     id="namedview10052"
     pagecolor="#505050"
     bordercolor="#eeeeee"
     borderopacity="1"
     inkscape:pageshadow="0"
     inkscape:pageopacity="0"
     inkscape:pagecheckerboard="0"
     showgrid="false"
     inkscape:zoom="45.254834"
     inkscape:cx="10.728136"
     inkscape:cy="12.109204"
     inkscape:window-width="3840"
     inkscape:window-height="2067"
     inkscape:window-x="-12"
     inkscape:window-y="40"
     inkscape:window-maximized="1"
     inkscape:current-layer="svg10050"
     showguides="true"
     inkscape:guide-bbox="true">
    <sodipodi:guide
       position="4.2644576,19.829033"
       orientation="0,-1"
       id="guide14698" />
    <sodipodi:guide
       position="7.7962951,6.1709628"
       orientation="0,-1"
       id="guide14700" />
  </sodipodi:namedview>
  <g
     id="g39548"
     transform="matrix(0.83695651,0,0,0.83695651,15.14534,4.1683895)">
    <path
       d="M -1.8302241,9.5206863 -1.7421611,9.1393546 -2.8568194,8.963342 c 0,0 0.2347087,0.6159987 -3.1093417,0.1466835 0,0 -0.3813544,0.3226582 -1.32,0.3519874 V 8.2006787 l -0.176126,0.087987 -0.1466457,0.1466457 -0.1466457,-0.087987 v 0 l -0.030236,-0.1466835 0.088063,0.058658 -0.1171654,-0.087987 0.058583,-0.087987 h 0.264189 l 0.030236,-0.1173166 0.2347087,-0.1173165 V 5.29669 c -0.030236,-1.1733317 2.0240126,-1.1439988 2.0240126,-1.1439988 h 1.4373166 c 0,0 1.7600126,-0.02948 2.0826708,0.8799988 h 0.73334178 V 2.363357 H -6.7871879 -9.6618588 -10.747188 v 1.2906671 c 1.0560001,0.1466835 1.0853292,1.4960013 1.0853292,1.4960013 V 15.240691 c -0.058583,1.994665 -0.7040122,1.994665 -0.7040122,1.994665 v 1.349333 h 3.813354 v -1.349333 c -0.7333418,-0.205342 -0.7333418,-1.965332 -0.7333418,-1.965332 v -4.341331 l 2.8746709,-0.08799 c 0,0 2.2586457,0 2.581304,-1.3199998 z"
       id="path10927"
       style="font-size:7.76111px;line-height:1.25;font-family:Sovngarde;-inkscape-font-specification:Sovngarde;letter-spacing:0px;fill:#f1edf8;fill-opacity:1;stroke-width:0.999999" />
    <path
       d="m 0.80977595,3.5953545 c -1.34932915,0 -0.35187402,1.877333 -0.35187402,1.877333 0,-0.528 0.85065827,-0.5573329 0.85065827,-0.5573329 0.8213291,0 0.9386835,0.6746683 0.9386835,1.9946645 v 7.2160029 c 0,1.290663 -0.2932914,2.786664 -0.9386835,2.786664 H 0.95668619 v 1.642666 H 5.620661 V 16.912686 H 5.268787 c -0.5573291,0 -0.9093165,-1.496001 -0.9093165,-2.786664 V 2.39269 h -0.792 c -1.056,0.792 -1.4960126,1.2026645 -2.69869613,1.2026645 z"
       id="path10929"
       style="font-size:7.76111px;line-height:1.25;font-family:Sovngarde;-inkscape-font-specification:Sovngarde;letter-spacing:0px;fill:#f1edf8;fill-opacity:1;stroke-width:0.999999" />
  </g>
</svg>
