<?xml version="1.0" encoding="UTF-8" standalone="no"?>
<svg
   height="26.0px"
   width="26.0px"
   version="1.1"
   id="svg10050"
   sodipodi:docname="f10.svg"
   inkscape:version="1.1 (c68e22c387, 2021-05-23)"
   xmlns:inkscape="http://www.inkscape.org/namespaces/inkscape"
   xmlns:sodipodi="http://sodipodi.sourceforge.net/DTD/sodipodi-0.dtd"
   xmlns="http://www.w3.org/2000/svg"
   xmlns:svg="http://www.w3.org/2000/svg">
  <defs
     id="defs10054">
    <rect
       x="20.461902"
       y="33.322407"
       width="58.601474"
       height="43.884815"
       id="rect62841" />
    <rect
       x="22.185475"
       y="31.863999"
       width="60.899571"
       height="47.464543"
       id="rect54537" />
    <rect
       x="22.273864"
       y="44.901281"
       width="27.577164"
       height="20.064155"
       id="rect51159" />
    <rect
       x="7.9107571"
       y="11.424194"
       width="21.412077"
       height="13.766485"
       id="rect39710" />
    <rect
       x="-24.041631"
       y="-11.313708"
       width="105.53569"
       height="62.57895"
       id="rect36404" />
    <rect
       x="-0.015625"
       y="0.015625"
       width="25.9375"
       height="25.984375"
       id="rect3373" />
    <rect
       x="-6.098796"
       y="19.997864"
       width="42.382213"
       height="14.120039"
       id="rect71495" />
    <rect
       x="0"
       y="0"
       width="26"
       height="12.617437"
       id="rect65169" />
  </defs>
  <sodipodi:namedview
     id="namedview10052"
     pagecolor="#505050"
     bordercolor="#eeeeee"
     borderopacity="1"
     inkscape:pageshadow="0"
     inkscape:pageopacity="0"
     inkscape:pagecheckerboard="0"
     showgrid="false"
     inkscape:zoom="64"
     inkscape:cx="10.710938"
     inkscape:cy="10.953125"
     inkscape:window-width="3840"
     inkscape:window-height="2067"
     inkscape:window-x="-12"
     inkscape:window-y="40"
     inkscape:window-maximized="1"
     inkscape:current-layer="g14512"
     showguides="true"
     inkscape:guide-bbox="true"
     inkscape:snap-global="false">
    <sodipodi:guide
       position="3.5797281,22.398175"
       orientation="0,-1"
       id="guide171777" />
    <sodipodi:guide
       position="3.6460193,3.637748"
       orientation="0,-1"
       id="guide171779" />
    <sodipodi:guide
       position="3.5797281,22.398175"
       orientation="1,0"
       id="guide171781" />
    <sodipodi:guide
       position="22.362252,22.398175"
       orientation="1,0"
       id="guide171783" />
  </sodipodi:namedview>
  <g
     id="g170196"
     transform="translate(7.9839619,0.758213)">
    <g
       id="g170661"
       transform="translate(-0.8548732,-0.14777)">
      <g
         id="g171284"
         transform="matrix(3.7795276,0,0,3.7795276,-796.66327,566.29533)">
        <g
           id="g171288"
           transform="translate(-7.0510685,0.26862081)">
          <g
             id="g14521"
             transform="matrix(0.70661761,0,0,0.70661761,60.203463,-108.32985)">
            <g
               id="g14512"
               transform="matrix(1.0007898,0,0,1.0007898,17.779852,0.18302372)">
              <g
                 id="g25096"
                 transform="translate(0.10230536)">
                <path
                   d="m 206.17828,-54.867141 0.0233,-0.100894 -0.29492,-0.04657 c 0,0 0.0621,0.162983 -0.82268,0.03881 0,0 -0.10089,0.08537 -0.34925,0.09313 v -0.333728 l -0.0466,0.02328 -0.0388,0.0388 -0.0388,-0.02328 v 0 l -0.008,-0.03881 0.0233,0.01552 -0.031,-0.02328 0.0155,-0.02328 h 0.0699 l 0.008,-0.03104 0.0621,-0.03104 v -0.675217 c -0.008,-0.310444 0.53552,-0.302683 0.53552,-0.302683 h 0.38029 c 0,0 0.46567,-0.0078 0.55104,0.232833 h 0.19403 v -0.706261 h -1.54446 -0.76059 -0.28716 v 0.341489 c 0.2794,0.03881 0.28716,0.395817 0.28716,0.395817 v 2.669822 c -0.0155,0.527755 -0.18627,0.527755 -0.18627,0.527755 v 0.357011 h 1.00895 v -0.357011 c -0.19403,-0.05433 -0.19403,-0.519994 -0.19403,-0.519994 v -1.148644 l 0.76059,-0.02328 c 0,0 0.5976,0 0.68298,-0.34925 z"
                   id="path10963"
                   style="font-size:7.76111px;line-height:1.25;font-family:Sovngarde;-inkscape-font-specification:Sovngarde;letter-spacing:0px;fill:#f1edf8;fill-opacity:1;stroke-width:0.264583" />
                <path
                   d="m 206.64292,-56.434885 c -0.35702,0 -0.0931,0.496711 -0.0931,0.496711 0,-0.1397 0.22507,-0.147461 0.22507,-0.147461 0.21732,0 0.24836,0.178506 0.24836,0.527755 v 1.909234 c 0,0.341488 -0.0776,0.737305 -0.24836,0.737305 h -0.0931 v 0.434622 h 1.23402 v -0.434622 h -0.0931 c -0.14746,0 -0.24059,-0.395817 -0.24059,-0.737305 v -3.104444 h -0.20955 c -0.2794,0.20955 -0.39582,0.318205 -0.71402,0.318205 z"
                   id="path10965"
                   style="font-size:7.76111px;line-height:1.25;font-family:Sovngarde;-inkscape-font-specification:Sovngarde;letter-spacing:0px;fill:#f1edf8;fill-opacity:1;stroke-width:0.264583" />
                <path
                   d="m 210.58915,-55.270718 c -0.14746,-0.527756 -0.36477,-1.46685 -1.47461,-1.46685 -1.23402,0 -1.45909,1.684161 -1.45909,2.033411 0,0.357011 -0.0776,2.219677 1.47461,2.219677 1.55222,0 1.60655,-2.250722 1.45909,-2.786238 z m -0.74507,1.785055 c -0.22507,0.574322 -1.10207,0.620889 -1.397,0.06209 -0.32596,-0.620889 -0.19402,-1.6764 -0.0543,-2.188633 0.20955,-0.729545 1.17968,-0.706261 1.40476,-0.155222 0.29492,0.721783 0.34925,1.47461 0.0466,2.281766 z"
                   id="path10967"
                   style="font-size:7.76111px;line-height:1.25;font-family:Sovngarde;-inkscape-font-specification:Sovngarde;letter-spacing:0px;fill:#f1edf8;fill-opacity:1;stroke-width:0.264583" />
              </g>
            </g>
          </g>
        </g>
      </g>
    </g>
  </g>
</svg>
