<?xml version="1.0" encoding="UTF-8" standalone="no"?>
<svg
   height="26.0px"
   width="26.0px"
   version="1.1"
   id="svg10050"
   sodipodi:docname="F12.svg"
   inkscape:version="1.1 (c68e22c387, 2021-05-23)"
   xmlns:inkscape="http://www.inkscape.org/namespaces/inkscape"
   xmlns:sodipodi="http://sodipodi.sourceforge.net/DTD/sodipodi-0.dtd"
   xmlns="http://www.w3.org/2000/svg"
   xmlns:svg="http://www.w3.org/2000/svg">
  <defs
     id="defs10054">
    <rect
       x="20.461902"
       y="33.322407"
       width="58.601474"
       height="43.884815"
       id="rect62841" />
    <rect
       x="22.185475"
       y="31.863999"
       width="60.899571"
       height="47.464543"
       id="rect54537" />
    <rect
       x="22.273864"
       y="44.901281"
       width="27.577164"
       height="20.064155"
       id="rect51159" />
    <rect
       x="7.9107571"
       y="11.424194"
       width="21.412077"
       height="13.766485"
       id="rect39710" />
    <rect
       x="-24.041631"
       y="-11.313708"
       width="105.53569"
       height="62.57895"
       id="rect36404" />
    <rect
       x="-0.015625"
       y="0.015625"
       width="25.9375"
       height="25.984375"
       id="rect3373" />
    <rect
       x="-6.098796"
       y="19.997864"
       width="42.382213"
       height="14.120039"
       id="rect71495" />
    <rect
       x="0"
       y="0"
       width="26"
       height="12.617437"
       id="rect65169" />
  </defs>
  <sodipodi:namedview
     id="namedview10052"
     pagecolor="#505050"
     bordercolor="#eeeeee"
     borderopacity="1"
     inkscape:pageshadow="0"
     inkscape:pageopacity="0"
     inkscape:pagecheckerboard="0"
     showgrid="false"
     inkscape:zoom="32"
     inkscape:cx="0.78125"
     inkscape:cy="18.03125"
     inkscape:window-width="3840"
     inkscape:window-height="2067"
     inkscape:window-x="-12"
     inkscape:window-y="40"
     inkscape:window-maximized="1"
     inkscape:current-layer="g171288"
     showguides="true"
     inkscape:guide-bbox="true">
    <sodipodi:guide
       position="3.5797281,22.398175"
       orientation="0,-1"
       id="guide171777" />
    <sodipodi:guide
       position="3.6460193,3.637748"
       orientation="0,-1"
       id="guide171779" />
    <sodipodi:guide
       position="3.5797281,22.398175"
       orientation="1,0"
       id="guide171781" />
    <sodipodi:guide
       position="22.362252,22.398175"
       orientation="1,0"
       id="guide171783" />
  </sodipodi:namedview>
  <g
     id="g170196"
     transform="translate(7.9839619,0.758213)">
    <g
       id="g170661"
       transform="translate(-0.8548732,-0.14777)">
      <g
         id="g171284"
         transform="matrix(3.7795276,0,0,3.7795276,-796.66327,566.29533)">
        <g
           id="g171288"
           transform="translate(-7.0510685,0.26862081)">
          <path
             d="m 218.66518,-147.09994 0.0165,-0.0713 -0.20839,-0.0329 c 0,0 0.0439,0.11517 -0.58131,0.0274 0,0 -0.0713,0.0603 -0.2468,0.0658 v -0.23582 l -0.0329,0.0164 -0.0274,0.0274 -0.0274,-0.0164 v 0 l -0.006,-0.0274 0.0165,0.011 -0.0218,-0.0164 0.011,-0.0164 h 0.0495 l 0.006,-0.0219 0.0439,-0.0219 v -0.47713 c -0.006,-0.21936 0.37841,-0.21388 0.37841,-0.21388 h 0.26873 c 0,0 0.32904,-0.006 0.38936,0.16452 h 0.13711 v -0.49906 h -1.09134 -0.53744 -0.20293 v 0.24131 c 0.19743,0.0274 0.20293,0.27969 0.20293,0.27969 v 1.88655 c -0.011,0.37291 -0.13163,0.37291 -0.13163,0.37291 v 0.25228 h 0.71294 v -0.25228 c -0.1371,-0.0384 -0.1371,-0.36744 -0.1371,-0.36744 v -0.81165 l 0.53744,-0.0164 c 0,0 0.42228,0 0.48261,-0.2468 z"
             id="path10975"
             style="font-size:7.76111px;line-height:1.25;font-family:Sovngarde;-inkscape-font-specification:Sovngarde;letter-spacing:0px;fill:#f1edf8;fill-opacity:1;stroke-width:0.186959" />
          <g
             id="g14521"
             transform="matrix(0.70661761,0,0,0.70661761,60.203463,-108.32985)">
            <path
               d="m 224.7477,-56.434885 c -0.35701,0 -0.0931,0.496711 -0.0931,0.496711 0,-0.1397 0.22507,-0.147461 0.22507,-0.147461 0.21731,0 0.24835,0.178506 0.24835,0.527755 v 1.909234 c 0,0.341488 -0.0776,0.737305 -0.24835,0.737305 h -0.0931 v 0.434622 h 1.23401 v -0.434622 h -0.0931 c -0.14746,0 -0.2406,-0.395817 -0.2406,-0.737305 v -3.104444 h -0.20955 c -0.2794,0.20955 -0.39581,0.318205 -0.71402,0.318205 z"
               id="path10977"
               style="font-size:7.76111px;line-height:1.25;font-family:Sovngarde;-inkscape-font-specification:Sovngarde;letter-spacing:0px;fill:#f1edf8;fill-opacity:1;stroke-width:0.264583" />
            <path
               d="m 226.26732,-55.922652 c -0.17074,0.582084 0.50448,0.729545 0.45015,0.6985 -0.0854,-0.05433 -0.0155,-0.248355 -0.0155,-0.248355 0.1785,-0.6985 0.65969,-0.706261 0.65969,-0.706261 0.31044,0 0.4191,0.07761 0.54328,0.201789 0.20179,0.20955 0.19403,0.566561 0.12418,0.814916 -0.0776,0.256117 -0.2406,0.434622 -0.31821,0.5588 -0.0621,0.09313 -0.26388,0.333728 -0.37253,0.457905 -0.2406,0.263878 -0.29493,0.302684 -0.52776,0.535517 -0.40358,0.403578 -0.52775,0.527756 -0.65193,0.667456 l -0.008,0.465666 h 2.32057 l 0.17074,-0.962378 h -0.41134 c -0.0854,0.20955 -0.1785,0.310445 -0.24835,0.372534 -0.0854,0.06209 -0.28716,0.09313 -0.45791,0.09313 h -0.43462 c 0.18627,-0.217311 0.0388,-0.04657 0.29492,-0.325967 l 0.60537,-0.698499 c 0.0698,-0.08537 0.56656,-0.644173 0.65193,-1.102078 0.0543,-0.318206 0.0466,-0.946855 -0.29492,-1.272822 -0.24059,-0.217311 -0.5976,-0.372533 -0.93133,-0.372533 -0.66746,0 -1.00119,0.325966 -1.14865,0.822677 z"
               id="path10979"
               style="font-size:7.76111px;line-height:1.25;font-family:Sovngarde;-inkscape-font-specification:Sovngarde;letter-spacing:0px;fill:#f1edf8;fill-opacity:1;stroke-width:0.264583" />
          </g>
        </g>
      </g>
    </g>
  </g>
</svg>
