<?xml version="1.0" encoding="UTF-8" standalone="no"?>
<svg
   height="26.0px"
   width="26.0px"
   version="1.1"
   id="svg10050"
   sodipodi:docname="F2.svg"
   inkscape:version="1.1 (c68e22c387, 2021-05-23)"
   xmlns:inkscape="http://www.inkscape.org/namespaces/inkscape"
   xmlns:sodipodi="http://sodipodi.sourceforge.net/DTD/sodipodi-0.dtd"
   xmlns="http://www.w3.org/2000/svg"
   xmlns:svg="http://www.w3.org/2000/svg">
  <defs
     id="defs10054">
    <rect
       x="20.461902"
       y="33.322407"
       width="58.601474"
       height="43.884815"
       id="rect62841" />
    <rect
       x="22.185475"
       y="31.863999"
       width="60.899571"
       height="47.464543"
       id="rect54537" />
    <rect
       x="22.273864"
       y="44.901281"
       width="27.577164"
       height="20.064155"
       id="rect51159" />
    <rect
       x="7.9107571"
       y="11.424194"
       width="21.412077"
       height="13.766485"
       id="rect39710" />
    <rect
       x="-24.041631"
       y="-11.313708"
       width="105.53569"
       height="62.57895"
       id="rect36404" />
    <rect
       x="-0.015625"
       y="0.015625"
       width="25.9375"
       height="25.984375"
       id="rect3373" />
    <rect
       x="20.461902"
       y="33.322407"
       width="58.601474"
       height="43.884815"
       id="rect62841-1" />
    <rect
       x="22.185475"
       y="31.863999"
       width="60.899571"
       height="47.464543"
       id="rect54537-5" />
    <rect
       x="22.273864"
       y="44.901281"
       width="27.577164"
       height="20.064155"
       id="rect51159-0" />
    <rect
       x="7.9107571"
       y="11.424194"
       width="21.412077"
       height="13.766485"
       id="rect39710-3" />
    <rect
       x="-24.041631"
       y="-11.313708"
       width="105.53569"
       height="62.57895"
       id="rect36404-7" />
    <rect
       x="-0.015625"
       y="0.015625"
       width="25.9375"
       height="25.984375"
       id="rect3373-1" />
  </defs>
  <sodipodi:namedview
     id="namedview10052"
     pagecolor="#505050"
     bordercolor="#eeeeee"
     borderopacity="1"
     inkscape:pageshadow="0"
     inkscape:pageopacity="0"
     inkscape:pagecheckerboard="0"
     showgrid="false"
     inkscape:zoom="45.254834"
     inkscape:cx="10.728136"
     inkscape:cy="12.109204"
     inkscape:window-width="3840"
     inkscape:window-height="2067"
     inkscape:window-x="-12"
     inkscape:window-y="40"
     inkscape:window-maximized="1"
     inkscape:current-layer="svg10050"
     showguides="true"
     inkscape:guide-bbox="true">
    <sodipodi:guide
       position="4.2644576,19.829033"
       orientation="0,-1"
       id="guide14698" />
    <sodipodi:guide
       position="7.7962951,6.1709628"
       orientation="0,-1"
       id="guide14700" />
  </sodipodi:namedview>
  <g
     id="g39417"
     transform="matrix(0.84198204,0,0,0.84198204,6.9904694,4.1252479)">
    <path
       d="M 6.2434306,9.5869763 6.3314936,9.2056446 5.2168353,9.029632 c 0,0 0.2347087,0.6159987 -3.1093418,0.1466835 0,0 -0.3813165,0.3226582 -1.31999997,0.3519874 V 8.2669687 L 0.61136754,8.3549561 0.46472187,8.5016018 0.3180762,8.4136144 v 0 L 0.28784,8.2669309 0.375903,8.3255889 0.25873764,8.2376019 0.31732034,8.1496149 H 0.58150928 L 0.6117455,8.0322978 0.84645416,7.9149813 V 5.36298 C 0.81621794,4.1896483 2.870429,4.2189812 2.870429,4.2189812 h 1.4373543 c 0,0 1.7599749,-0.02948 2.0826331,0.8799988 H 7.1237582 V 2.429647 H 1.286429 -1.5882419 -2.6735711 v 1.2906671 c 1.056,0.1466835 1.0853292,1.4960013 1.0853292,1.4960013 V 15.306981 c -0.058583,1.994665 -0.7039748,1.994665 -0.7039748,1.994665 v 1.349333 H 1.5210998 V 17.301646 C 0.7877581,17.096304 0.7877581,15.336314 0.7877581,15.336314 v -4.341331 l 2.8746709,-0.08799 c 0,0 2.2586835,0 2.5813418,-1.3199998 z"
       id="path10931"
       style="font-size:7.76111px;line-height:1.25;font-family:Sovngarde;-inkscape-font-specification:Sovngarde;letter-spacing:0px;fill:#f1edf8;fill-opacity:1;stroke-width:0.999999" />
    <path
       d="m 7.8783409,5.5976433 c -0.6453544,2.2000025 1.9066582,2.7573355 1.7013165,2.64 C 9.2568857,8.0323016 9.5210747,7.2989788 9.5210747,7.2989788 10.19572,4.6589787 12.014391,4.6296458 12.014391,4.6296458 c 1.173355,0 1.584,0.2933291 2.053342,0.7626671 0.762671,0.792 0.733342,2.1413329 0.469342,3.0799975 -0.293292,0.9680013 -0.909355,1.6426656 -1.202684,2.1119996 -0.234708,0.351988 -0.997341,1.261335 -1.407987,1.730665 -0.909354,0.997334 -1.114658,1.144003 -1.9946836,2.024001 -1.525304,1.525334 -1.9946457,1.994669 -2.4639874,2.522669 l -0.030236,1.759997 h 8.770658 l 0.645354,-3.637334 h -1.55467 c -0.322772,0.792 -0.674684,1.173335 -0.938684,1.408003 -0.322772,0.23467 -1.085329,0.351987 -1.730646,0.351987 h -1.642696 c 0.704013,-0.821333 0.146646,-0.176013 1.114696,-1.232001 L 14.389484,12.8723 c 0.264189,-0.322658 2.141329,-2.434669 2.464025,-4.1653338 0.205229,-1.2026684 0.176126,-3.5786646 -1.114696,-4.8106659 -0.909316,-0.8213329 -2.258645,-1.4079988 -3.519987,-1.4079988 -2.5226836,0 -3.7839875,1.2319975 -4.3413166,3.1093305 z"
       id="path10933"
       style="font-size:7.76111px;line-height:1.25;font-family:Sovngarde;-inkscape-font-specification:Sovngarde;letter-spacing:0px;fill:#f1edf8;fill-opacity:1;stroke-width:0.999999" />
  </g>
</svg>
