<?xml version="1.0" encoding="UTF-8" standalone="no"?>
<svg
   height="26.0px"
   width="26.0px"
   version="1.1"
   id="svg10050"
   sodipodi:docname="F3.svg"
   inkscape:version="1.1 (c68e22c387, 2021-05-23)"
   xmlns:inkscape="http://www.inkscape.org/namespaces/inkscape"
   xmlns:sodipodi="http://sodipodi.sourceforge.net/DTD/sodipodi-0.dtd"
   xmlns="http://www.w3.org/2000/svg"
   xmlns:svg="http://www.w3.org/2000/svg">
  <defs
     id="defs10054">
    <rect
       x="20.461902"
       y="33.322407"
       width="58.601474"
       height="43.884815"
       id="rect62841" />
    <rect
       x="22.185475"
       y="31.863999"
       width="60.899571"
       height="47.464543"
       id="rect54537" />
    <rect
       x="22.273864"
       y="44.901281"
       width="27.577164"
       height="20.064155"
       id="rect51159" />
    <rect
       x="7.9107571"
       y="11.424194"
       width="21.412077"
       height="13.766485"
       id="rect39710" />
    <rect
       x="-24.041631"
       y="-11.313708"
       width="105.53569"
       height="62.57895"
       id="rect36404" />
    <rect
       x="-0.015625"
       y="0.015625"
       width="25.9375"
       height="25.984375"
       id="rect3373" />
    <rect
       x="20.461902"
       y="33.322407"
       width="58.601474"
       height="43.884815"
       id="rect62841-1" />
    <rect
       x="22.185475"
       y="31.863999"
       width="60.899571"
       height="47.464543"
       id="rect54537-5" />
    <rect
       x="22.273864"
       y="44.901281"
       width="27.577164"
       height="20.064155"
       id="rect51159-0" />
    <rect
       x="7.9107571"
       y="11.424194"
       width="21.412077"
       height="13.766485"
       id="rect39710-3" />
    <rect
       x="-24.041631"
       y="-11.313708"
       width="105.53569"
       height="62.57895"
       id="rect36404-7" />
    <rect
       x="-0.015625"
       y="0.015625"
       width="25.9375"
       height="25.984375"
       id="rect3373-1" />
  </defs>
  <sodipodi:namedview
     id="namedview10052"
     pagecolor="#505050"
     bordercolor="#eeeeee"
     borderopacity="1"
     inkscape:pageshadow="0"
     inkscape:pageopacity="0"
     inkscape:pagecheckerboard="0"
     showgrid="false"
     inkscape:zoom="45.254834"
     inkscape:cx="10.728136"
     inkscape:cy="12.109204"
     inkscape:window-width="3840"
     inkscape:window-height="2067"
     inkscape:window-x="-12"
     inkscape:window-y="40"
     inkscape:window-maximized="1"
     inkscape:current-layer="svg10050"
     showguides="true"
     inkscape:guide-bbox="true">
    <sodipodi:guide
       position="4.2644576,19.829033"
       orientation="0,-1"
       id="guide14698" />
    <sodipodi:guide
       position="7.7962951,6.1709628"
       orientation="0,-1"
       id="guide14700" />
  </sodipodi:namedview>
  <g
     id="g39174"
     transform="matrix(3.1575807,0,0,3.1575807,-460.36145,185.39794)">
    <path
       d="m 149.60767,-54.867141 0.0233,-0.100894 -0.29493,-0.04657 c 0,0 0.0621,0.162983 -0.82267,0.03881 0,0 -0.1009,0.08537 -0.34925,0.09313 v -0.333728 l -0.0466,0.02328 -0.0388,0.0388 -0.0388,-0.02328 v 0 l -0.008,-0.03881 0.0233,0.01552 -0.031,-0.02328 0.0155,-0.02328 h 0.0699 l 0.008,-0.03104 0.0621,-0.03104 v -0.675217 c -0.008,-0.310444 0.53552,-0.302683 0.53552,-0.302683 h 0.38029 c 0,0 0.46567,-0.0078 0.55104,0.232833 h 0.19403 v -0.706261 h -1.54446 -0.76059 -0.28716 v 0.341489 c 0.2794,0.03881 0.28716,0.395817 0.28716,0.395817 v 2.669822 c -0.0155,0.527755 -0.18627,0.527755 -0.18627,0.527755 v 0.357011 h 1.00894 v -0.357011 c -0.19402,-0.05433 -0.19402,-0.519994 -0.19402,-0.519994 v -1.148644 l 0.76059,-0.02328 c 0,0 0.5976,0 0.68297,-0.34925 z"
       id="path10935"
       style="font-size:7.76111px;line-height:1.25;font-family:Sovngarde;-inkscape-font-specification:Sovngarde;letter-spacing:0px;fill:#f1edf8;fill-opacity:1;stroke-width:0.264583" />
    <path
       d="m 150.4047,-54.851619 c 0,0 -0.0155,0.48895 0.51223,0.310445 0.38806,-0.131939 1.07104,0.124178 1.07104,0.519994 0,0.388056 -0.45015,0.814917 -0.8382,0.884767 -0.76059,0.1397 -1.14089,-0.240595 -1.14089,-0.240595 0.008,0.240595 -0.44238,0.496711 -0.36477,0.574322 0.0776,0.07761 0.34925,0.263878 1.08656,0.325967 0.7373,0.05433 1.68416,-0.333728 1.83162,-1.420283 0.14746,-1.086555 -0.86148,-1.195211 -0.86148,-1.195211 0,0 0.58984,-0.403578 0.5588,-0.923572 -0.0388,-0.527755 -0.60537,-0.729544 -0.96238,-0.729544 -0.34925,0 -0.79163,0.108655 -1.12536,0.465666 -0.26388,0.287161 -0.35701,0.302684 -0.35701,0.302684 0,0.240594 0.20179,0.799394 0.21731,0.690738 0.008,-0.100894 0.49671,-0.690738 0.8382,-0.861483 0.34149,-0.170744 0.72178,-0.0078 0.74506,0.380295 0.0233,0.388055 -1.04775,0.838199 -1.21073,0.91581 z"
       id="path10937"
       style="font-size:7.76111px;line-height:1.25;font-family:Sovngarde;-inkscape-font-specification:Sovngarde;letter-spacing:0px;fill:#f1edf8;fill-opacity:1;stroke-width:0.264583" />
  </g>
</svg>
