<?xml version="1.0" encoding="UTF-8" standalone="no"?>
<svg
   height="26.0px"
   width="26.0px"
   version="1.1"
   id="svg10050"
   sodipodi:docname="F8.svg"
   inkscape:version="1.1 (c68e22c387, 2021-05-23)"
   xmlns:inkscape="http://www.inkscape.org/namespaces/inkscape"
   xmlns:sodipodi="http://sodipodi.sourceforge.net/DTD/sodipodi-0.dtd"
   xmlns="http://www.w3.org/2000/svg"
   xmlns:svg="http://www.w3.org/2000/svg">
  <defs
     id="defs10054">
    <rect
       x="20.461902"
       y="33.322407"
       width="58.601474"
       height="43.884815"
       id="rect62841" />
    <rect
       x="22.185475"
       y="31.863999"
       width="60.899571"
       height="47.464543"
       id="rect54537" />
    <rect
       x="22.273864"
       y="44.901281"
       width="27.577164"
       height="20.064155"
       id="rect51159" />
    <rect
       x="7.9107571"
       y="11.424194"
       width="21.412077"
       height="13.766485"
       id="rect39710" />
    <rect
       x="-24.041631"
       y="-11.313708"
       width="105.53569"
       height="62.57895"
       id="rect36404" />
    <rect
       x="-0.015625"
       y="0.015625"
       width="25.9375"
       height="25.984375"
       id="rect3373" />
    <rect
       x="20.461902"
       y="33.322407"
       width="58.601474"
       height="43.884815"
       id="rect62841-1" />
    <rect
       x="22.185475"
       y="31.863999"
       width="60.899571"
       height="47.464543"
       id="rect54537-5" />
    <rect
       x="22.273864"
       y="44.901281"
       width="27.577164"
       height="20.064155"
       id="rect51159-0" />
    <rect
       x="7.9107571"
       y="11.424194"
       width="21.412077"
       height="13.766485"
       id="rect39710-3" />
    <rect
       x="-24.041631"
       y="-11.313708"
       width="105.53569"
       height="62.57895"
       id="rect36404-7" />
    <rect
       x="-0.015625"
       y="0.015625"
       width="25.9375"
       height="25.984375"
       id="rect3373-1" />
  </defs>
  <sodipodi:namedview
     id="namedview10052"
     pagecolor="#505050"
     bordercolor="#eeeeee"
     borderopacity="1"
     inkscape:pageshadow="0"
     inkscape:pageopacity="0"
     inkscape:pagecheckerboard="0"
     showgrid="false"
     inkscape:zoom="45.254834"
     inkscape:cx="11.45734"
     inkscape:cy="12.396466"
     inkscape:window-width="3840"
     inkscape:window-height="2067"
     inkscape:window-x="-12"
     inkscape:window-y="40"
     inkscape:window-maximized="1"
     inkscape:current-layer="svg10050"
     showguides="true"
     inkscape:guide-bbox="true">
    <sodipodi:guide
       position="4.2644576,19.829033"
       orientation="0,-1"
       id="guide14698" />
    <sodipodi:guide
       position="7.7962951,6.1709628"
       orientation="0,-1"
       id="guide14700" />
  </sodipodi:namedview>
  <g
     id="g14503"
     transform="matrix(3.1575807,0,0,3.1575807,-587.67903,185.39794)">
    <path
       d="m 189.94207,-54.867141 0.0233,-0.100894 -0.29492,-0.04657 c 0,0 0.0621,0.162983 -0.82268,0.03881 0,0 -0.1009,0.08537 -0.34925,0.09313 v -0.333728 l -0.0466,0.02328 -0.0388,0.0388 -0.0388,-0.02328 v 0 l -0.008,-0.03881 0.0233,0.01552 -0.031,-0.02328 0.0155,-0.02328 h 0.0699 l 0.008,-0.03104 0.0621,-0.03104 v -0.675217 c -0.008,-0.310444 0.53552,-0.302683 0.53552,-0.302683 h 0.38029 c 0,0 0.46567,-0.0078 0.55104,0.232833 h 0.19403 v -0.706261 h -1.54446 -0.76059 -0.28716 v 0.341489 c 0.2794,0.03881 0.28716,0.395817 0.28716,0.395817 v 2.669822 c -0.0155,0.527755 -0.18627,0.527755 -0.18627,0.527755 v 0.357011 h 1.00895 v -0.357011 c -0.19403,-0.05433 -0.19403,-0.519994 -0.19403,-0.519994 v -1.148644 l 0.76059,-0.02328 c 0,0 0.5976,0 0.68297,-0.34925 z"
       id="path10955"
       style="font-size:7.76111px;line-height:1.25;font-family:Sovngarde;-inkscape-font-specification:Sovngarde;letter-spacing:0px;fill:#f1edf8;fill-opacity:1;stroke-width:0.264583" />
    <path
       d="m 190.76632,-54.727441 c -0.12418,0.06209 -0.22508,0.124178 -0.31045,0.186267 -0.32596,0.225072 -0.49671,0.589844 -0.49671,0.939094 0,0.34925 0.23283,0.636411 0.54328,0.845961 0.27164,0.186267 0.58984,0.2794 0.95462,0.2794 0.39581,0 0.72178,-0.100894 0.98566,-0.302683 0.29492,-0.225072 0.44238,-0.519995 0.44238,-0.900289 0,-0.519994 -0.20955,-0.807155 -0.77611,-1.109839 0.54328,-0.225072 0.65969,-0.543277 0.65969,-0.931333 0,-0.318205 -0.1397,-0.574322 -0.42686,-0.76835 -0.25611,-0.178505 -0.54328,-0.263877 -0.86924,-0.263877 -0.34925,0 -0.65194,0.100894 -0.91581,0.294922 -0.28716,0.217311 -0.42686,0.48895 -0.42686,0.822677 0,0.201789 0.0931,0.380295 0.20178,0.535517 0.0931,0.116417 0.16299,0.186267 0.43463,0.372533 z m 0.53551,0.217311 0.41134,0.162984 c 0.42686,0.201788 0.5588,0.310444 0.5588,0.551038 0,0.131939 -0.0233,0.442384 -0.1785,0.543278 -0.17851,0.116417 -0.29493,0.155222 -0.51224,0.170745 -0.34149,0.0388 -0.58984,-0.06985 -0.7373,-0.217312 -0.15522,-0.147461 -0.23284,-0.248355 -0.23284,-0.496711 0,-0.20955 0.33373,-0.551038 0.69074,-0.714022 z m 0.31045,-0.519994 -0.0621,-0.03104 c -0.32597,-0.147462 -0.50447,-0.287162 -0.54328,-0.310445 -0.19403,-0.124178 -0.28716,-0.256116 -0.28716,-0.380294 0,-0.07761 0.0621,-0.217311 0.20179,-0.318206 0.12418,-0.08537 0.34149,-0.162983 0.51223,-0.162983 0.20179,0 0.45791,0.09313 0.59761,0.20955 0.1397,0.124178 0.20955,0.20955 0.20955,0.411339 0,0.1397 -0.31045,0.442383 -0.62865,0.582083 z"
       id="path10957"
       style="font-size:7.76111px;line-height:1.25;font-family:Sovngarde;-inkscape-font-specification:Sovngarde;letter-spacing:0px;fill:#f1edf8;fill-opacity:1;stroke-width:0.264583" />
  </g>
</svg>
