<?xml version="1.0" encoding="UTF-8" standalone="no"?>
<svg
   height="12.95px"
   width="13.7px"
   version="1.1"
   id="svg147828"
   sodipodi:docname="117.svg"
   inkscape:version="1.1 (c68e22c387, 2021-05-23)"
   xmlns:inkscape="http://www.inkscape.org/namespaces/inkscape"
   xmlns:sodipodi="http://sodipodi.sourceforge.net/DTD/sodipodi-0.dtd"
   xmlns="http://www.w3.org/2000/svg"
   xmlns:svg="http://www.w3.org/2000/svg">
  <defs
     id="defs147832" />
  <sodipodi:namedview
     id="namedview147830"
     pagecolor="#505050"
     bordercolor="#eeeeee"
     borderopacity="1"
     inkscape:pageshadow="0"
     inkscape:pageopacity="0"
     inkscape:pagecheckerboard="0"
     showgrid="false"
     inkscape:zoom="79.119517"
     inkscape:cx="5.3589812"
     inkscape:cy="6.7682415"
     inkscape:window-width="1918"
     inkscape:window-height="2054"
     inkscape:window-x="1909"
     inkscape:window-y="52"
     inkscape:window-maximized="0"
     inkscape:current-layer="svg147828" />
  <path
     d="m 0.01789872,2.1736113 v 0.644906 c 0.5081079,0.2736119 0.52765039,0.977132 0.52765039,0.977132 V 10.87007 c -0.0391011,1.407068 -0.52765039,1.387527 -0.52765039,1.387527 v 0.723075 H 2.6756936 v -0.703534 c -0.4885655,0 -0.508108,-1.387523 -0.508108,-1.387523 V 5.6521939 l -0.1172557,0.058628 -0.078169,0.097729 -0.078169,-0.058628 h -0.117256 v -0.097729 l 0.058628,0.039239 0.019527,-0.078155 0.019527,-0.058628 H 2.0307595 L 2.0502862,5.4764961 2.187083,5.3983415 V 3.6785921 c 0,-0.644906 0.4885654,-0.8012484 0.4885654,-0.8012484 V 2.1738099 Z"
     id="path124213"
     style="font-size:16px;line-height:1.25;font-family:Sovngarde;-inkscape-font-specification:Sovngarde;fill:#f1edf8;stroke-width:1.22141" />
  <path
     d="M 8.7470139,11.866743 V 9.5411756 8.7008406 C 8.7274872,7.567371 7.8089688,6.570698 6.3432732,6.570698 c -0.7230763,0 -1.2116413,0.019389 -1.6024936,0.4690226 V 6.8052093 c 0,-0.3712942 0.3517669,-0.4494954 0.3517669,-0.4494954 H 4.6821518 l -1.485238,0.2736119 c 0.3126801,0.1954107 0.3126801,0.8403305 0.3126801,0.8403305 v 3.8694367 0.254038 c 0,0.801243 -0.3908536,0.879417 -0.3908536,0.879417 v 0.508106 h 2.1106015 v -0.527652 c -0.3908537,0 -0.4299359,-0.859871 -0.4299359,-0.859871 v -1.797921 0 c 0,0 -0.097714,-1.9542595 1.3288976,-1.9542595 1.485238,0 1.289812,1.778376 1.289812,1.778376 v 1.9542585 0.312667 c -0.019527,0.566732 -0.3517669,0.957586 -0.3517669,0.957586 v 0.117256 h 1.9347181 v -0.508072 c -0.2149703,0 -0.2540523,-0.586279 -0.2540528,-0.586279 z M 4.6626093,9.5802584 4.5844401,9.5410144 h -0.078169 v -0.058628 l 0.039101,0.019384 0.019527,-0.039244 0.019527,-0.039244 h 0.039101 l 0.058628,0.1172556 z"
     id="path124215"
     style="font-size:16px;line-height:1.25;font-family:Sovngarde;-inkscape-font-specification:Sovngarde;fill:#f1edf8;stroke-width:1.22141" />
  <path
     d="M 13.630317,10.948243 C 13.591219,9.7366005 12.692272,9.5216306 12.692272,9.5216306 11.695599,9.2871188 11.519715,9.228491 11.519715,9.228491 10.386244,8.7789956 10.620755,8.1145624 10.620755,8.1145624 11.089778,6.9420059 12.731357,7.7432682 12.731357,7.7432682 h 0.586278 V 6.844296 C 11.891025,6.1016754 10.640298,6.590239 10.640298,6.590239 9.5068267,6.9420059 9.4872842,8.134108 9.4872842,8.134108 c 0,1.3093533 1.1334708,1.8174624 1.1334708,1.8174624 l 0.136797,-0.019384 0.05863,-0.097725 0.09771,0.019384 0.117256,-0.1172556 h 0.195425 c -0.312681,0.1563567 -0.390855,0.3517662 -0.390855,0.3517662 1.817462,0.293139 1.680665,0.938046 1.680665,0.938046 0,0.801248 -1.231184,0.820789 -1.231184,0.820789 -1.094382,-0.07816 -1.3288935,-0.781692 -1.3288935,-0.781692 H 9.3309432 v 1.016214 c 0.4299358,0.879418 2.0128888,0.879418 2.0128888,0.879418 1.309354,0.05863 1.797919,-0.644906 1.797919,-0.644906 0.586279,-0.840331 0.488566,-1.367982 0.488566,-1.367982 z"
     id="path124217"
     style="font-size:16px;line-height:1.25;font-family:Sovngarde;-inkscape-font-specification:Sovngarde;fill:#f1edf8;stroke-width:1.22141" />
</svg>
