<?xml version="1.0" encoding="UTF-8" standalone="no"?>
<svg
   height="26.0px"
   width="41.75px"
   version="1.1"
   id="svg484"
   sodipodi:docname="pgdn.svg"
   inkscape:version="1.1 (c68e22c387, 2021-05-23)"
   xmlns:inkscape="http://www.inkscape.org/namespaces/inkscape"
   xmlns:sodipodi="http://sodipodi.sourceforge.net/DTD/sodipodi-0.dtd"
   xmlns="http://www.w3.org/2000/svg"
   xmlns:svg="http://www.w3.org/2000/svg">
  <defs
     id="defs488">
    <rect
       x="-9.5703457"
       y="26.78684"
       width="73.980291"
       height="25.824742"
       id="rect32669" />
    <rect
       x="-7.40625"
       y="-0.625"
       width="83.25"
       height="51.21875"
       id="rect2591" />
    <rect
       x="20.461902"
       y="33.322407"
       width="58.601474"
       height="43.884815"
       id="rect62841" />
    <rect
       x="22.185475"
       y="31.863999"
       width="60.899571"
       height="47.464543"
       id="rect54537" />
    <rect
       x="22.273864"
       y="44.901281"
       width="27.577164"
       height="20.064155"
       id="rect51159" />
    <rect
       x="7.9107571"
       y="11.424194"
       width="21.412077"
       height="13.766485"
       id="rect39710" />
    <rect
       x="-24.041631"
       y="-11.313708"
       width="105.53569"
       height="62.57895"
       id="rect36404" />
    <rect
       x="-0.015625"
       y="0.015625"
       width="25.9375"
       height="25.984375"
       id="rect3373" />
    <rect
       x="-9.5703457"
       y="26.78684"
       width="73.980291"
       height="25.824742"
       id="rect32669-5" />
    <rect
       x="-7.40625"
       y="-0.625"
       width="83.25"
       height="51.21875"
       id="rect2591-7" />
    <rect
       x="20.461902"
       y="33.322407"
       width="58.601474"
       height="43.884815"
       id="rect62841-9" />
    <rect
       x="22.185475"
       y="31.863999"
       width="60.899571"
       height="47.464543"
       id="rect54537-3" />
    <rect
       x="22.273864"
       y="44.901281"
       width="27.577164"
       height="20.064155"
       id="rect51159-5" />
    <rect
       x="7.9107571"
       y="11.424194"
       width="21.412077"
       height="13.766485"
       id="rect39710-3" />
    <rect
       x="-24.041631"
       y="-11.313708"
       width="105.53569"
       height="62.57895"
       id="rect36404-6" />
    <rect
       x="-0.015625"
       y="0.015625"
       width="25.9375"
       height="25.984375"
       id="rect3373-8" />
  </defs>
  <sodipodi:namedview
     id="namedview486"
     pagecolor="#505050"
     bordercolor="#eeeeee"
     borderopacity="1"
     inkscape:pageshadow="0"
     inkscape:pageopacity="0"
     inkscape:pagecheckerboard="0"
     showgrid="false"
     inkscape:zoom="39.497006"
     inkscape:cx="17.077244"
     inkscape:cy="9.8994845"
     inkscape:window-width="3840"
     inkscape:window-height="2067"
     inkscape:window-x="-12"
     inkscape:window-y="40"
     inkscape:window-maximized="1"
     inkscape:current-layer="svg484"
     inkscape:snap-bbox="true"
     inkscape:bbox-paths="true"
     inkscape:bbox-nodes="true"
     inkscape:snap-bbox-edge-midpoints="true"
     inkscape:snap-bbox-midpoints="true"
     inkscape:snap-smooth-nodes="true"
     inkscape:snap-midpoints="true"
     inkscape:object-paths="true"
     inkscape:snap-intersection-paths="true"
     inkscape:snap-global="false" />
  <g
     transform="matrix(1.0, 0.0, 0.0, 1.0, 0.0, 0.0)"
     id="g482" />
  <text
     xml:space="preserve"
     id="text32667"
     style="line-height:1.25;font-family:Sovngarde;font-size:12px;-inkscape-font-specification:Sovngarde;letter-spacing:0px;white-space:pre;shape-inside:url(#rect32669)" />
  <g
     id="g28409"
     transform="translate(7.9965614,3.3861236)">
    <path
       d="m 3.8095443,8.5375425 c 0,0 3.2106186,0 3.2106186,-2.7363214 0,-3.046435 -3.2471001,-3.0281944 -3.2471001,-3.0281944 H 0.0699064 v 0.091226 0.5472643 l 0.34658635,0.3648573 v 0.2736321 l 0.0729542,0.054726 v 0.9485944 h 0.0912251 v 0.200678 l 0.29185993,0.072954 0.32835852,0.054726 -0.072954,0.091226 H 0.63539846 l -0.0729542,0.1459515 -0.0366279,0.182407 V 10.81786 c 0,0 0.0180985,1.02156 -0.45605214,1.331673 v 0.711444 H 2.514355 v -0.729684 c 0,0 -0.4925379,-0.16418 -0.4195837,-1.149255 V 7.205915 l -0.1276806,-0.1094529 0.036628,-0.072955 0.072954,-0.018098 v -1.149255 l -0.036628,-0.1094528 -0.072954,-0.1459515 0.018099,-0.383085 0.036628,-0.1094529 0.054727,0.072954 V 5.0899412 4.1778369 h 1.8971799 c 0,0 1.550585,0.018098 1.6053115,1.6053072 0,0 0.2006779,1.5505807 -2.4809343,1.4046465 H 3.025147 v 0.9121042 z"
       id="path124235"
       style="font-size:16px;line-height:1.25;font-family:Sovngarde;-inkscape-font-specification:Sovngarde;fill:#f1edf8;stroke-width:1.14013" />
    <path
       d="M 12.368496,6.950476 12.058366,6.7862968 10.325365,7.2241082 C 9.9057816,6.950476 9.3767709,6.7862968 8.8295055,6.7862968 c -1.4958538,0 -2.8822552,0.7844149 -2.8822552,2.6815949 0,1.1492553 0.565505,2.1160893 0.9668306,2.3897213 -0.2736321,0.182407 -0.383085,0.419584 -0.7844106,0.419584 0,0 0.1094528,0.948589 0.8026557,1.222222 -0.4013127,0.364857 -0.58375,0.565505 -0.6019907,0.60199 -0.3283585,0.456053 -0.3465863,0.784411 -0.3465863,0.784411 0,0.09122 -0.018099,0.182407 -0.018099,0.273632 0,0.182407 0.3101308,0.693203 0.6202315,0.875623 0.5837499,0.328359 1.2769528,0.419584 2.0978492,0.419584 1.0945287,0 2.1708133,0.01809 2.8457693,-0.529024 0.456057,-0.364857 0.693204,-1.276948 0.693204,-1.696519 0,-0.31013 -0.145951,-0.638472 -0.346587,-0.875623 -0.237133,-0.29186 -0.565509,-0.456051 -0.966834,-0.510778 -0.255405,-0.03663 -0.857379,-0.127681 -1.7512462,-0.145952 -0.4742931,-0.01809 -0.784411,-0.03663 -0.8938638,-0.03663 -0.200678,-0.03663 -0.3648572,-0.12768 -0.4378115,-0.182407 -0.072954,-0.07296 -0.1094528,-0.127681 -0.1094528,-0.182408 0,-0.05473 0.018098,-0.218905 0.036628,-0.273632 0.3648573,0.182408 0.8026515,0.182408 1.2587079,0.182408 1.4958554,0 2.5174114,-1.039801 2.5174114,-2.7363211 0,-0.6749579 -0.164179,-1.0945286 -0.62023,-1.5688214 l 0.62023,0.182407 c 0.419584,-0.03663 0.839142,-1.1310163 0.839142,-1.1310163 z M 8.0998347,13.6271 c 0.5107785,0.07296 0.4560521,0.07296 1.422887,0.12768 0.4013135,0.01809 0.5472643,0.09122 0.7844113,0.145952 0.747929,0.200677 0.693202,0.474297 0.693202,0.547264 0,0.255404 -0.09122,0.419583 -0.401312,0.638477 -0.182407,0.109452 -0.7296892,0.328358 -1.4958592,0.328358 -0.8208963,0 -1.2222219,-0.05473 -1.5140949,-0.273632 -0.2371335,-0.145952 -0.2554043,-0.273632 -0.2554043,-0.437811 0,-0.145952 0.072954,-0.29186 0.182407,-0.456053 C 7.6255245,14.083156 7.8991567,13.827752 8.0998217,13.6271 Z M 6.4215561,8.8476604 6.239149,8.7382075 h 0.1276806 l 0.036628,-0.072954 h 0.072954 l 0.091225,-0.091225 H 6.7318162 C 6.4764118,8.6287547 6.4216854,8.8476604 6.4216854,8.8476604 Z m 2.4626895,2.2255426 c -0.2918602,0 -0.7296845,-0.05473 -1.2039817,-0.346586 0,0 0,0 0,0 v 0 C 7.2059711,10.36176 7.3154067,9.5226355 7.3154067,9.285489 c 0,-0.5472643 0.383085,-1.4411278 1.5323398,-1.4411278 0.9668312,0 1.4046425,0.7479249 1.4046425,1.6965193 0,0.8026515 -0.3830848,1.5323395 -1.3681605,1.5323395 z"
       id="path124237"
       style="font-size:16px;line-height:1.25;font-family:Sovngarde;-inkscape-font-specification:Sovngarde;fill:#f1edf8;stroke-width:1.14013" />
    <path
       d="m 16.088204,2.7730267 h -3.812609 v 0.091226 0.7661701 L 12.65868,4.177687 v 0.2736323 l 0.07296,0.054726 v 0.9668306 h 0.109452 v 0.200678 l 0.310132,0.072954 0.328358,0.054726 -0.07296,0.1094529 H 12.8776 l -0.05473,0.1459515 -0.03663,0.1641793 v 4.5787784 c 0,0 0.03663,1.058043 -0.492538,1.349914 v 0.693204 h 1.514096 0.747929 1.623551 c 0,0 3.958544,-0.05473 3.958544,-5.0348299 0,-4.9618643 -4.049756,-5.0348315 -4.049756,-5.0348315 z m 0.310132,8.5373223 H 14.683571 14.282258 V 4.3236075 h 0.401313 1.714765 c 0,0 2.170811,0.072954 2.170811,3.5207364 0,3.3747941 -2.170811,3.4660051 -2.170811,3.4660051 z"
       id="path124239"
       style="font-size:16px;line-height:1.25;font-family:Sovngarde;-inkscape-font-specification:Sovngarde;fill:#f1edf8;stroke-width:1.14013" />
    <path
       d="M 25.449975,11.821128 V 9.6503161 8.865901 c -0.01809,-1.0580428 -0.875623,-1.988392 -2.243784,-1.988392 -0.674958,0 -1.131009,0.018098 -1.495854,0.4378114 V 7.0964147 c 0,-0.3465864 0.328358,-0.4195837 0.328358,-0.4195837 H 21.65561 l -1.3864,0.2554044 c 0.291859,0.182407 0.291859,0.7844106 0.291859,0.7844106 v 3.611944 0.237133 c 0,0.747926 -0.364857,0.820896 -0.364857,0.820896 v 0.474294 h 1.970151 v -0.492538 c -0.364856,0 -0.401312,-0.802652 -0.401312,-0.802652 v -1.6782777 0 c 0,0 -0.09122,-1.8242129 1.240467,-1.8242129 1.386401,0 1.203981,1.6600336 1.203981,1.6600336 v 1.824213 0.291859 c -0.01809,0.529019 -0.328358,0.893864 -0.328358,0.893864 v 0.109453 h 1.805972 v -0.474263 c -0.200678,0 -0.237133,-0.547264 -0.237138,-0.547264 z m -3.812604,-2.1343306 -0.07296,-0.036628 h -0.07296 v -0.054726 l 0.03663,0.018098 0.01809,-0.036628 0.01809,-0.036628 h 0.03663 l 0.05473,0.1094528 z"
       id="path124241"
       style="font-size:16px;line-height:1.25;font-family:Sovngarde;-inkscape-font-specification:Sovngarde;fill:#f1edf8;stroke-width:1.14013" />
  </g>
</svg>
