<?xml version="1.0" encoding="UTF-8" standalone="no"?>
<svg
   height="26.0px"
   width="41.75px"
   version="1.1"
   id="svg484"
   sodipodi:docname="pgup.svg"
   inkscape:version="1.1 (c68e22c387, 2021-05-23)"
   xmlns:inkscape="http://www.inkscape.org/namespaces/inkscape"
   xmlns:sodipodi="http://sodipodi.sourceforge.net/DTD/sodipodi-0.dtd"
   xmlns="http://www.w3.org/2000/svg"
   xmlns:svg="http://www.w3.org/2000/svg">
  <defs
     id="defs488">
    <rect
       x="-9.5703457"
       y="26.78684"
       width="73.980291"
       height="25.824742"
       id="rect32669" />
    <rect
       x="-7.40625"
       y="-0.625"
       width="83.25"
       height="51.21875"
       id="rect2591" />
    <rect
       x="20.461902"
       y="33.322407"
       width="58.601474"
       height="43.884815"
       id="rect62841" />
    <rect
       x="22.185475"
       y="31.863999"
       width="60.899571"
       height="47.464543"
       id="rect54537" />
    <rect
       x="22.273864"
       y="44.901281"
       width="27.577164"
       height="20.064155"
       id="rect51159" />
    <rect
       x="7.9107571"
       y="11.424194"
       width="21.412077"
       height="13.766485"
       id="rect39710" />
    <rect
       x="-24.041631"
       y="-11.313708"
       width="105.53569"
       height="62.57895"
       id="rect36404" />
    <rect
       x="-0.015625"
       y="0.015625"
       width="25.9375"
       height="25.984375"
       id="rect3373" />
    <rect
       x="-9.5703457"
       y="26.78684"
       width="73.980291"
       height="25.824742"
       id="rect32669-5" />
    <rect
       x="-7.40625"
       y="-0.625"
       width="83.25"
       height="51.21875"
       id="rect2591-7" />
    <rect
       x="20.461902"
       y="33.322407"
       width="58.601474"
       height="43.884815"
       id="rect62841-9" />
    <rect
       x="22.185475"
       y="31.863999"
       width="60.899571"
       height="47.464543"
       id="rect54537-3" />
    <rect
       x="22.273864"
       y="44.901281"
       width="27.577164"
       height="20.064155"
       id="rect51159-5" />
    <rect
       x="7.9107571"
       y="11.424194"
       width="21.412077"
       height="13.766485"
       id="rect39710-3" />
    <rect
       x="-24.041631"
       y="-11.313708"
       width="105.53569"
       height="62.57895"
       id="rect36404-6" />
    <rect
       x="-0.015625"
       y="0.015625"
       width="25.9375"
       height="25.984375"
       id="rect3373-8" />
  </defs>
  <sodipodi:namedview
     id="namedview486"
     pagecolor="#505050"
     bordercolor="#eeeeee"
     borderopacity="1"
     inkscape:pageshadow="0"
     inkscape:pageopacity="0"
     inkscape:pagecheckerboard="0"
     showgrid="false"
     inkscape:zoom="39.497006"
     inkscape:cx="17.077244"
     inkscape:cy="9.8994845"
     inkscape:window-width="3840"
     inkscape:window-height="2067"
     inkscape:window-x="-12"
     inkscape:window-y="40"
     inkscape:window-maximized="1"
     inkscape:current-layer="svg484"
     inkscape:snap-bbox="true"
     inkscape:bbox-paths="true"
     inkscape:bbox-nodes="true"
     inkscape:snap-bbox-edge-midpoints="true"
     inkscape:snap-bbox-midpoints="true"
     inkscape:snap-smooth-nodes="true"
     inkscape:snap-midpoints="true"
     inkscape:object-paths="true"
     inkscape:snap-intersection-paths="true"
     inkscape:snap-global="false" />
  <g
     transform="matrix(1.0, 0.0, 0.0, 1.0, 0.0, 0.0)"
     id="g482" />
  <text
     xml:space="preserve"
     id="text32667"
     style="line-height:1.25;font-family:Sovngarde;font-size:12px;-inkscape-font-specification:Sovngarde;letter-spacing:0px;white-space:pre;shape-inside:url(#rect32669)" />
  <g
     id="g28199"
     transform="translate(7.9669828,3.1426153)">
    <path
       d="m 3.6162258,8.8211543 c 0,0 3.091192,0 3.091192,-2.6345375 0,-2.9331157 -3.1263206,-2.9155536 -3.1263206,-2.9155536 H 0.01569246 v 0.087832 0.5269075 L 0.34938672,4.2370882 V 4.500542 l 0.0702401,0.052691 v 0.9133092 h 0.0878322 v 0.193213 l 0.2810035,0.07024 0.31614448,0.052691 -0.07024,0.087832 H 0.5601501 L 0.48991,6.0110409 0.4546445,6.1866629 V 11.01665 c 0,0 0.0174253,0.983562 -0.43908816,1.282139 v 0.68498 H 2.369074 v -0.702541 c 0,0 -0.4742168,-0.158072 -0.4039763,-1.106506 V 7.5390602 l -0.1229313,-0.1053815 0.035265,-0.07024 0.07024,-0.017425 V 6.2395076 L 1.912406,6.1341261 1.842166,5.9936036 1.859591,5.6247684 1.894856,5.5193869 1.947547,5.5896269 V 5.5017947 4.6236182 h 1.826614 c 0,0 1.4929032,0.017425 1.545594,1.5455941 0,0 0.1932132,1.4929031 -2.388646,1.3523973 h -0.07024 v 0.8781763 z"
       id="path124227"
       style="font-size:16px;line-height:1.25;font-family:Sovngarde;-inkscape-font-specification:Sovngarde;fill:#f1edf8;stroke-width:1.09772" />
    <path
       d="M 11.852517,7.2931225 11.553922,7.1350503 9.8853812,7.5565763 C 9.4814045,7.2931225 8.9720759,7.1350503 8.4451683,7.1350503 c -1.4402124,0 -2.7750476,0.7552368 -2.7750476,2.5818468 0,1.1065059 0.544474,2.0373769 0.9308714,2.3008309 -0.2634538,0.175621 -0.3688353,0.403976 -0.7552328,0.403976 0,0 0.1053815,0.913305 0.7727949,1.176758 -0.386385,0.351286 -0.5620319,0.54447 -0.5795982,0.579599 -0.3161445,0.439088 -0.3336943,0.755233 -0.3336943,0.755233 0,0.08783 -0.017425,0.175621 -0.017425,0.263453 0,0.175622 0.2985948,0.667418 0.5971606,0.843052 0.5620359,0.316145 1.2294494,0.403977 2.0198106,0.403977 1.0538154,0 2.0900671,0.01742 2.7399191,-0.509346 0.439092,-0.351285 0.667417,-1.229449 0.667417,-1.633413 0,-0.298594 -0.140523,-0.614722 -0.333694,-0.843052 C 11.150137,13.176962 10.833976,13.018877 10.447578,12.966187 10.201675,12.930917 9.6220888,12.843255 8.7614743,12.825664 8.3048201,12.808243 8.006242,12.790394 7.9008605,12.790394 7.7076472,12.755124 7.549575,12.667463 7.4793345,12.614772 7.4090944,12.544529 7.373953,12.49184 7.373953,12.439149 c 0,-0.05269 0.017425,-0.210763 0.035265,-0.263453 0.3512857,0.175622 0.7727991,0.175622 1.2118877,0.175622 1.4402163,0 2.4237743,-1.001124 2.4237743,-2.6345373 0,-0.6498513 -0.158072,-1.053815 -0.59716,-1.5104654 l 0.59716,0.1756264 c 0.403976,-0.035266 0.807927,-1.0889436 0.807927,-1.0889436 z M 7.7426388,13.721394 c 0.4917789,0.07024 0.4390882,0.07024 1.369959,0.122931 0.3863856,0.01742 0.5269075,0.08783 0.755233,0.140523 0.7201082,0.193213 0.6674172,0.456654 0.6674172,0.526908 0,0.245903 -0.08783,0.403975 -0.386385,0.614726 -0.1756211,0.105382 -0.7025418,0.316145 -1.4402123,0.316145 -0.7903608,0 -1.1767583,-0.05269 -1.4577784,-0.263454 -0.2283127,-0.140523 -0.245904,-0.263454 -0.245904,-0.421526 0,-0.140523 0.07024,-0.281003 0.175622,-0.439089 0.1053815,-0.158072 0.3688353,-0.403975 0.5620361,-0.597164 z M 6.1267877,9.1197367 5.9511657,9.0143551 H 6.074097 l 0.035265,-0.07024 h 0.07024 l 0.087832,-0.087832 h 0.1580729 c -0.245904,0.05269 -0.2985947,0.2634536 -0.2985947,0.2634536 z m 2.3710839,2.1427583 c -0.2810036,0 -0.702542,-0.05269 -1.1591966,-0.333694 0,0 0,0 0,0 v 0 C 6.8820205,10.577516 6.9873895,9.7696045 6.9873895,9.5412792 c 0,-0.5269075 0.3688352,-1.3875216 1.4753411,-1.3875216 0.9308713,0 1.3523973,0.720104 1.3523973,1.6334132 0,0.7727952 -0.3688352,1.4753412 -1.3172688,1.4753412 z"
       id="path124229"
       style="font-size:16px;line-height:1.25;font-family:Sovngarde;-inkscape-font-specification:Sovngarde;fill:#f1edf8;stroke-width:1.09772" />
    <path
       d="M 17.806962,3.2710632 V 3.815533 c 0.368835,0.1405225 0.351285,0.7552368 0.351285,0.7552368 v 4.1801316 0.2283128 c 0,0.1580722 -0.01742,0.2985947 -0.01742,0.4390923 -0.08783,0.7025425 -0.544469,2.1427545 -2.30083,2.1427545 0,0 -2.142754,0.105381 -2.142754,-2.599409 V 4.5356288 c 0,0 0,-0.5971604 0.368835,-0.7552326 V 3.2710508 h -2.300836 v 0.5444697 c 0,0 0.368835,0.1580722 0.368835,0.7552369 -0.01742,0.5795983 -0.01742,5.1812559 -0.01742,5.1812559 0,0 0.316145,3.2316977 3.618096,3.2316977 3.723481,0 3.969372,-3.1087541 3.969372,-3.1087541 l -0.08783,-0.035266 0.08783,-0.175622 v -0.105381 c 0,0 0.01742,-4.4084567 0.01742,-4.9880549 C 19.704123,3.9734684 20.07283,3.8153961 20.07283,3.8153961 V 3.2709264 Z"
       id="path124231"
       style="font-size:16px;line-height:1.25;font-family:Sovngarde;-inkscape-font-specification:Sovngarde;fill:#f1edf8;stroke-width:1.09772" />
    <path
       d="m 23.148154,7.2228696 c -0.03527,0 -0.05269,0 -0.07024,0 v 0 c -0.73767,0 -1.159196,0.1053815 -1.633413,0.386385 V 7.1701664 h -0.68498 l -0.825485,0.5620361 0.105381,0.07024 c 0.210763,-0.035265 0.263454,0.421526 0.263454,0.421526 v 0 c 0,0 0,0 0,0 v 0.7025425 6.129694 c 0,0 0,0.64985 -0.316144,0.895742 l 1.492902,0.45665 h 0.333695 c 0,0 -0.298595,-0.667413 -0.298595,-1.247011 v -1.124047 l -0.08783,-0.07024 -0.01742,-0.08783 h -0.08783 l -0.01742,-0.05269 -0.01742,-0.05269 -0.03527,0.03527 v -0.105382 h 0.07024 l 0.05269,-0.03527 0.05269,0.08783 0.07024,0.05269 v -1.33483 c 0.439091,0.421526 0.930871,0.45665 1.405087,0.491778 1.826614,0.122932 2.897992,-1.036252 2.897992,-2.775047 0,-1.9144291 -1.088944,-2.9682442 -2.6521,-2.9682442 z m -0.105381,4.6719144 c -1.088944,0 -1.528032,-1.088943 -1.528032,-1.721232 0,-1.2645784 0.720104,-1.9144296 1.405084,-1.9144296 1.106505,0 1.738794,0.7376706 1.738794,1.9319916 0,0.87818 -0.649851,1.70367 -1.615846,1.70367 z"
       id="path124233"
       style="font-size:16px;line-height:1.25;font-family:Sovngarde;-inkscape-font-specification:Sovngarde;fill:#f1edf8;stroke-width:1.09772" />
  </g>
</svg>
