<?xml version="1.0" encoding="UTF-8" standalone="no"?>
<svg
   height="26.0px"
   width="41.75px"
   version="1.1"
   id="svg484"
   sodipodi:docname="58.svg"
   inkscape:version="1.1 (c68e22c387, 2021-05-23)"
   xmlns:inkscape="http://www.inkscape.org/namespaces/inkscape"
   xmlns:sodipodi="http://sodipodi.sourceforge.net/DTD/sodipodi-0.dtd"
   xmlns="http://www.w3.org/2000/svg"
   xmlns:svg="http://www.w3.org/2000/svg">
  <defs
     id="defs488">
    <rect
       x="-9.5703457"
       y="26.78684"
       width="73.980291"
       height="25.824742"
       id="rect32669" />
    <rect
       x="-7.40625"
       y="-0.625"
       width="83.25"
       height="51.21875"
       id="rect2591" />
    <rect
       x="20.461902"
       y="33.322407"
       width="58.601474"
       height="43.884815"
       id="rect62841" />
    <rect
       x="22.185475"
       y="31.863999"
       width="60.899571"
       height="47.464543"
       id="rect54537" />
    <rect
       x="22.273864"
       y="44.901281"
       width="27.577164"
       height="20.064155"
       id="rect51159" />
    <rect
       x="7.9107571"
       y="11.424194"
       width="21.412077"
       height="13.766485"
       id="rect39710" />
    <rect
       x="-24.041631"
       y="-11.313708"
       width="105.53569"
       height="62.57895"
       id="rect36404" />
    <rect
       x="-0.015625"
       y="0.015625"
       width="25.9375"
       height="25.984375"
       id="rect3373" />
    <rect
       x="-9.5703457"
       y="26.78684"
       width="73.980291"
       height="25.824742"
       id="rect32669-5" />
    <rect
       x="-7.40625"
       y="-0.625"
       width="83.25"
       height="51.21875"
       id="rect2591-7" />
    <rect
       x="20.461902"
       y="33.322407"
       width="58.601474"
       height="43.884815"
       id="rect62841-9" />
    <rect
       x="22.185475"
       y="31.863999"
       width="60.899571"
       height="47.464543"
       id="rect54537-3" />
    <rect
       x="22.273864"
       y="44.901281"
       width="27.577164"
       height="20.064155"
       id="rect51159-5" />
    <rect
       x="7.9107571"
       y="11.424194"
       width="21.412077"
       height="13.766485"
       id="rect39710-3" />
    <rect
       x="-24.041631"
       y="-11.313708"
       width="105.53569"
       height="62.57895"
       id="rect36404-6" />
    <rect
       x="-0.015625"
       y="0.015625"
       width="25.9375"
       height="25.984375"
       id="rect3373-8" />
  </defs>
  <sodipodi:namedview
     id="namedview486"
     pagecolor="#505050"
     bordercolor="#eeeeee"
     borderopacity="1"
     inkscape:pageshadow="0"
     inkscape:pageopacity="0"
     inkscape:pagecheckerboard="0"
     showgrid="false"
     inkscape:zoom="39.497006"
     inkscape:cx="18.115297"
     inkscape:cy="9.8994845"
     inkscape:window-width="3840"
     inkscape:window-height="2067"
     inkscape:window-x="-12"
     inkscape:window-y="40"
     inkscape:window-maximized="1"
     inkscape:current-layer="svg484"
     inkscape:snap-bbox="true"
     inkscape:bbox-paths="true"
     inkscape:bbox-nodes="true"
     inkscape:snap-bbox-edge-midpoints="true"
     inkscape:snap-bbox-midpoints="true"
     inkscape:snap-smooth-nodes="true"
     inkscape:snap-midpoints="true"
     inkscape:object-paths="true"
     inkscape:snap-intersection-paths="true"
     inkscape:snap-global="false" />
  <g
     transform="matrix(1.0, 0.0, 0.0, 1.0, 0.0, 0.0)"
     id="g482" />
  <text
     xml:space="preserve"
     id="text32667"
     style="line-height:1.25;font-family:Sovngarde;font-size:12px;-inkscape-font-specification:Sovngarde;letter-spacing:0px;white-space:pre;shape-inside:url(#rect32669)" />
  <g
     id="g63509"
     transform="translate(2.2560942)">
    <path
       d="m 10.296706,7.198546 c -3.0799993,-2.996 -6.2159993,-1.288 -6.2159993,-1.288 -2.492,1.092 -2.38,3.92 -2.38,3.92 0.168,3.444 2.772,3.976 2.772,3.976 l 0.336,-0.028 0.14,-0.224 0.196,0.028 0.28,-0.28 h 0.476 c -0.728,0.392 -0.924,0.84 -0.924,0.84 3.976,0.784 3.724,2.604 3.724,2.604 0,1.792 -3.248,1.652 -3.248,1.652 -2.828,-0.224 -3.304,-2.24 -3.304,-2.24 H 0.97270667 v 2.436 c 1.06400003,2.1 4.73200003,2.184 4.73200003,2.184 3.108,0.14 4.256,-1.4 4.256,-1.4 1.4559993,-1.568 1.0079993,-3.388 1.0079993,-3.388 -0.336,-1.96 -2.7719993,-3.024 -2.7719993,-3.024 -2.072,-1.008 -2.576,-1.288 -2.576,-1.288 -2.128,-0.924 -1.708,-2.464 -1.708,-2.464 0.56,-2.52 4.368,-1.792 5.096,-0.168 h 1.2879993 z"
       id="path59151"
       style="font-size:28px;line-height:1.25;font-family:Sovngarde;-inkscape-font-specification:Sovngarde;letter-spacing:0px;white-space:pre;fill:#f1edf8;fill-opacity:1" />
    <path
       d="m 18.513449,19.266546 v -4.424 -0.588 c -0.028,-1.708 -1.008,-3.248 -3.444,-3.248 -0.84,0 -1.68,0.308 -2.016,0.728 v -1.988 l -0.14,0.056 -0.084,0.14 -0.084,-0.056 h -0.112 v -0.14 l 0.056,0.028 v -0.084 l 0.056,-0.084 h 0.14 l 0.028,-0.112 0.14,-0.112 v -2.436 c 0,-0.84 0.532,-1.624 0.532,-1.624 h -0.588 l -2.464,0.672 c 0.644,0.252 0.7,1.12 0.7,1.12 v 8.652 2.156 c -0.028,1.876 -0.56,2.128 -0.56,2.128 v 0.728 h 3.052 v -0.756 c -0.532,0 -0.56,-2.072 -0.56,-2.072 v -3.584 c 0,0 -0.084,-1.596 1.932,-1.596 1.624,0 1.54,1.988 1.54,1.988 v 4.06 0.448 c -0.028,0.784 -0.476,0.784 -0.476,0.784 v 0.728 h 2.828 v -0.728 c -0.448,0 -0.476,-0.784 -0.476,-0.784 z"
       id="path59153"
       style="font-size:28px;line-height:1.25;font-family:Sovngarde;-inkscape-font-specification:Sovngarde;letter-spacing:0px;white-space:pre;fill:#f1edf8;fill-opacity:1" />
    <path
       d="m 19.401105,9.438546 1.176,0.84 1.148,-0.84 v -1.12 l -1.148,-0.84 -1.176,0.84 z m 2.156,9.772 v -4.62 l -0.084,0.056 -0.056,0.084 -0.056,-0.056 h -0.14 l -0.028,-0.084 0.056,0.028 0.056,-0.056 0.028,-0.028 h 0.056 l 0.084,-0.056 0.112,-0.084 v -2.576 c 0,-0.504 0.392,-0.616 0.392,-0.616 h -0.448 l -2.296,0.336 c 0.364,0.056 0.364,0.364 0.364,0.364 v 6.692 0.588 c -0.028,1.064 -0.42,1.064 -0.42,1.064 v 0.532 h 2.828 v -0.504 c -0.392,0 -0.448,-1.064 -0.448,-1.064 z"
       id="path59155"
       style="font-size:28px;line-height:1.25;font-family:Sovngarde;-inkscape-font-specification:Sovngarde;letter-spacing:0px;white-space:pre;fill:#f1edf8;fill-opacity:1" />
    <path
       d="m 28.055738,7.058546 c 0,0 1.876,-0.084 1.876,2.072 h 0.728 l 0.336,-2.688 -0.42,0.112 c 0,0 -0.868,-1.652 -3.332,-1.316 -1.456,0.196 -3.668,1.26 -3.668,4.676 v 1.82 l -1.12,-0.028 -0.672,0.728 -0.056,0.532 1.848,0.056 v 3.836 1.064 c -0.028,1.848 -0.56,1.876 -0.56,1.876 v 0.98 h 3.052 v -0.98 c -0.532,0 -0.588,-1.876 -0.588,-1.876 v -4.928 l 2.044,-0.028 c 0,0 0.784,0.112 1.624,-1.008 l 0.56,-0.7 -0.7,-0.336 c 0,0 -0.364,0.504 -2.436,0.308 0,0 -0.336,0.28 -1.092,0.42 v -1.176 c 0,0 -0.084,-3.416 2.576,-3.416 z"
       id="path59157"
       style="font-size:28px;line-height:1.25;font-family:Sovngarde;-inkscape-font-specification:Sovngarde;letter-spacing:0px;white-space:pre;fill:#f1edf8;fill-opacity:1" />
    <path
       d="m 36.181105,10.950546 h -0.028 c 0,0 0.028,0 0.028,0 z m 0,0 c 0.056,0.028 0.308,0.196 -2.492,0.056 0,0 -0.084,0.056 -0.224,0.14 v -1.54 l -0.616,-0.812 c 0,0.672 -1.176,1.316 -1.176,1.316 v 1.064 h -1.708 l -0.616,0.896 v 0.532 h 1.904 0.448 v 4.088 1.12 c 0,2.184 -0.588,2.296 -0.588,2.296 v 0.7 h 2.856 v -0.728 c -0.42,0 -0.56,-2.268 -0.56,-2.268 l 0.028,-5.264 h 1.148 c 0,0 0.952,-0.056 1.26,-0.56 l 0.42,-0.98 z"
       id="path59159"
       style="font-size:28px;line-height:1.25;font-family:Sovngarde;-inkscape-font-specification:Sovngarde;letter-spacing:0px;white-space:pre;fill:#f1edf8;fill-opacity:1" />
  </g>
</svg>
