<?xml version="1.0" encoding="UTF-8" standalone="no"?>
<svg
   height="26.0px"
   width="35.75px"
   version="1.1"
   id="svg10"
   sodipodi:docname="29.svg"
   inkscape:version="1.1 (c68e22c387, 2021-05-23)"
   xmlns:inkscape="http://www.inkscape.org/namespaces/inkscape"
   xmlns:sodipodi="http://sodipodi.sourceforge.net/DTD/sodipodi-0.dtd"
   xmlns="http://www.w3.org/2000/svg"
   xmlns:svg="http://www.w3.org/2000/svg">
  <defs
     id="defs14">
    <rect
       x="-7.40625"
       y="-0.625"
       width="83.25"
       height="51.21875"
       id="rect2591" />
    <rect
       x="20.461902"
       y="33.322407"
       width="58.601474"
       height="43.884815"
       id="rect62841" />
    <rect
       x="22.185475"
       y="31.863999"
       width="60.899571"
       height="47.464543"
       id="rect54537" />
    <rect
       x="22.273864"
       y="44.901281"
       width="27.577164"
       height="20.064155"
       id="rect51159" />
    <rect
       x="7.9107571"
       y="11.424194"
       width="21.412077"
       height="13.766485"
       id="rect39710" />
    <rect
       x="-24.041631"
       y="-11.313708"
       width="105.53569"
       height="62.57895"
       id="rect36404" />
    <rect
       x="-0.015625"
       y="0.015625"
       width="25.9375"
       height="25.984375"
       id="rect3373" />
  </defs>
  <sodipodi:namedview
     id="namedview12"
     pagecolor="#505050"
     bordercolor="#eeeeee"
     borderopacity="1"
     inkscape:pageshadow="0"
     inkscape:pageopacity="0"
     inkscape:pagecheckerboard="0"
     showgrid="false"
     inkscape:snap-global="true"
     inkscape:zoom="64"
     inkscape:cx="16.179687"
     inkscape:cy="13.6875"
     inkscape:window-width="3840"
     inkscape:window-height="2067"
     inkscape:window-x="-12"
     inkscape:window-y="40"
     inkscape:window-maximized="1"
     inkscape:current-layer="g8"
     showguides="false"
     inkscape:snap-intersection-paths="true"
     inkscape:object-paths="true"
     inkscape:snap-midpoints="true"
     inkscape:snap-bbox="true"
     inkscape:bbox-paths="true"
     inkscape:bbox-nodes="true"
     inkscape:snap-bbox-edge-midpoints="true"
     inkscape:snap-bbox-midpoints="true">
    <inkscape:grid
       type="xygrid"
       id="grid138" />
  </sodipodi:namedview>
  <g
     id="g8">
    <g
       id="g13959"
       transform="translate(0.135804,-0.59375046)">
      <path
         d="M 17.238743,5.7466565 H 4.21875 v 2.6879963 h 0.6999988 c 0,0 0.336,-0.84 1.9599987,-0.84 0.5600013,0 0.8679988,0 1.7359973,0 0.896002,0 0.896002,0.7000025 0.896002,0.7000025 V 18.31865 c -0.05601,1.903998 -0.615999,1.931997 -0.615999,1.931997 l 0.02797,0.980001 h 3.4999982 v -1.008 c -0.588,-0.139994 -0.615999,-1.875999 -0.615999,-1.875999 v -7.167995 l -0.139994,0.08398 -0.111987,0.139994 -0.111987,-0.08398 h -0.139994 l -0.02797,-0.139994 0.08402,0.05601 0.02797,-0.08398 0.05601,-0.08398 h 0.196007 l 0.02797,-0.111987 0.196006,-0.111988 V 8.1267309 c 0,-0.504 0.643998,-0.5320025 0.643998,-0.5320025 h 2.1 c 0,0 1.764,-0.027969 1.959999,0.84 h 0.672 z"
         id="path35544-8"
         style="font-size:7.40833px;line-height:1.25;font-family:Sovngarde;-inkscape-font-specification:Sovngarde;letter-spacing:0px;fill:#f1edf8;stroke-width:0.999999" />
      <path
         d="m 21.767649,20.390648 c 0,0 -0.02801,-0.08398 -0.140002,-0.111988 -0.448,-0.139993 -0.504,-0.812001 -0.504,-0.812001 0,0 -0.02801,-2.043999 0,-3.751997 0.056,-2.016 -0.336,-2.352 -0.336,-2.352 -2.295999,-3.051999 -6.355997,-0.42 -6.355997,-0.42 l 0.02801,2.184 0.588,-0.08398 0.56,-0.504 c 3.191998,-2.295999 3.667998,0.168 3.667998,0.168 l -2.519998,0.42 c 0,0 -2.687999,1.176 -2.939999,1.791998 -1.036,2.436 -0.224002,3.387999 -0.224002,3.387999 1.26,1.791999 3.667999,0.924 3.667999,0.924 l 1.987999,-0.84 -0.02801,0.560001 0.168,0.252019 h 2.435999 V 20.474698 Z M 19.24765,18.598649 17.707651,19.24265 c 0,0 -2.799999,1.399998 -2.184,-1.288002 0,0 0.756,-1.623999 1.932,-0.924 0,0 0.195998,-0.671996 1.819999,-0.671996 l -0.02801,2.239997 z"
         id="path35546-1"
         style="font-size:7.40833px;line-height:1.25;font-family:Sovngarde;-inkscape-font-specification:Sovngarde;letter-spacing:0px;fill:#f1edf8;stroke-width:0.999999" />
      <path
         d="m 26.975631,11.51465 c -0.98,0 -2.044,0.224013 -2.771999,0.896002 v -1.68 l -0.111999,0.08402 -0.084,0.139993 -0.084,-0.05601 h -0.111999 l -0.02801,-0.168 0.084,0.05601 v -0.08398 l 0.02801,-0.111987 h 0.168 l 0.02801,-0.111988 0.140001,-0.111987 V 6.9787221 c 0,-0.924 0.531999,-1.176 0.531999,-1.176 h -0.587999 l -2.351999,0.7280012 c 0.503999,0.2799874 0.532,1.176 0.532,1.176 v 11.1719927 1.148001 c 0,0 1.651999,1.399998 4.899997,1.399998 1.875999,0 4.003999,-1.539999 4.003999,-5.123997 0,-3.444 -2.463999,-4.788 -4.283999,-4.788 z m -0.111999,8.064 c -1.791999,0 -2.575999,-1.596 -2.575999,-3.248001 0,-1.371999 0.839999,-2.883999 2.631999,-2.883999 1.847999,0 2.519999,1.568002 2.519999,2.967999 0,1.736001 -0.448,3.164001 -2.575999,3.164001 z"
         id="path35548-2"
         style="font-size:7.40833px;line-height:1.25;font-family:Sovngarde;-inkscape-font-specification:Sovngarde;letter-spacing:0px;fill:#f1edf8;stroke-width:0.999999" />
    </g>
  </g>
</svg>
