<?xml version="1.0" encoding="UTF-8" standalone="no"?>
<svg
   height="26.0px"
   width="26.0px"
   version="1.1"
   id="svg10050"
   sodipodi:docname="46.svg"
   inkscape:version="1.1 (c68e22c387, 2021-05-23)"
   xmlns:inkscape="http://www.inkscape.org/namespaces/inkscape"
   xmlns:sodipodi="http://sodipodi.sourceforge.net/DTD/sodipodi-0.dtd"
   xmlns="http://www.w3.org/2000/svg"
   xmlns:svg="http://www.w3.org/2000/svg">
  <defs
     id="defs10054">
    <rect
       x="20.461902"
       y="33.322407"
       width="58.601474"
       height="43.884815"
       id="rect62841" />
    <rect
       x="22.185475"
       y="31.863999"
       width="60.899571"
       height="47.464543"
       id="rect54537" />
    <rect
       x="22.273864"
       y="44.901281"
       width="27.577164"
       height="20.064155"
       id="rect51159" />
    <rect
       x="7.9107571"
       y="11.424194"
       width="21.412077"
       height="13.766485"
       id="rect39710" />
    <rect
       x="-24.041631"
       y="-11.313708"
       width="105.53569"
       height="62.57895"
       id="rect36404" />
    <rect
       x="-0.015625"
       y="0.015625"
       width="25.9375"
       height="25.984375"
       id="rect3373" />
  </defs>
  <sodipodi:namedview
     id="namedview10052"
     pagecolor="#505050"
     bordercolor="#eeeeee"
     borderopacity="1"
     inkscape:pageshadow="0"
     inkscape:pageopacity="0"
     inkscape:pagecheckerboard="0"
     showgrid="false"
     inkscape:zoom="22.627417"
     inkscape:cx="26.31763"
     inkscape:cy="13.633903"
     inkscape:window-width="1918"
     inkscape:window-height="2054"
     inkscape:window-x="1909"
     inkscape:window-y="52"
     inkscape:window-maximized="0"
     inkscape:current-layer="svg10050" />
  <path
     d="M 12.81783,5.2720338 H 6.9658365 v 0.1399937 1.176 l 0.588019,0.84 v 0.42 l 0.111874,0.083981 V 9.416006 h 0.168189 v 0.3079937 l 0.475994,0.1119874 0.504,0.083981 -0.111874,0.1679999 h -0.811994 l -0.08391,0.224013 -0.05594,0.252019 v 7.027998 c 0,0 0.05594,1.623999 -0.756019,2.071997 v 1.064002 h 2.323994 1.1480325 2.491993 c 0,0 6.075969,-0.08398 6.075969,-7.727997 0,-7.6159979 -6.215962,-7.7279967 -6.215962,-7.7279967 z M 13.293823,18.376027 H 10.661836 10.045849 V 7.6520325 h 0.615988 2.631986 c 0,0 3.331994,0.1119874 3.331994,5.4039955 0,5.179997 -3.331994,5.319999 -3.331994,5.319999 z"
     style="font-size:7.40833px;line-height:1.25;font-family:Sovngarde;-inkscape-font-specification:Sovngarde;letter-spacing:3.57188px;fill:#f1edf8;stroke-width:0.999999"
     id="path167321-1" />
</svg>
