<?xml version="1.0" encoding="UTF-8" standalone="no"?>
<svg
   height="26.0px"
   width="26.0px"
   version="1.1"
   id="svg10050"
   sodipodi:docname="32.svg"
   inkscape:version="1.1 (c68e22c387, 2021-05-23)"
   xmlns:inkscape="http://www.inkscape.org/namespaces/inkscape"
   xmlns:sodipodi="http://sodipodi.sourceforge.net/DTD/sodipodi-0.dtd"
   xmlns="http://www.w3.org/2000/svg"
   xmlns:svg="http://www.w3.org/2000/svg">
  <defs
     id="defs10054">
    <rect
       x="20.461902"
       y="33.322407"
       width="58.601474"
       height="43.884815"
       id="rect62841" />
    <rect
       x="22.185475"
       y="31.863999"
       width="60.899571"
       height="47.464543"
       id="rect54537" />
    <rect
       x="22.273864"
       y="44.901281"
       width="27.577164"
       height="20.064155"
       id="rect51159" />
    <rect
       x="7.9107571"
       y="11.424194"
       width="21.412077"
       height="13.766485"
       id="rect39710" />
    <rect
       x="-24.041631"
       y="-11.313708"
       width="105.53569"
       height="62.57895"
       id="rect36404" />
    <rect
       x="-0.015625"
       y="0.015625"
       width="25.9375"
       height="25.984375"
       id="rect3373" />
  </defs>
  <sodipodi:namedview
     id="namedview10052"
     pagecolor="#505050"
     bordercolor="#eeeeee"
     borderopacity="1"
     inkscape:pageshadow="0"
     inkscape:pageopacity="0"
     inkscape:pagecheckerboard="0"
     showgrid="false"
     inkscape:zoom="22.627417"
     inkscape:cx="-4.7066795"
     inkscape:cy="17.766058"
     inkscape:window-width="3840"
     inkscape:window-height="2067"
     inkscape:window-x="-12"
     inkscape:window-y="40"
     inkscape:window-maximized="1"
     inkscape:current-layer="svg10050" />
  <path
     d="M 17.871944,8.128015 V 5.2720188 H 12.075963 9.191956 8.1279433 v 0.027969 1.5679975 0 c 0.2241261,0.1399937 0.3639686,0.3079937 0.4759937,0.504 C 8.771748,7.6799785 8.8280631,8.099986 8.8560316,8.435986 V 9.1359848 17.22798 c -0.083906,1.876002 -0.7279749,1.876002 -0.7279749,1.876002 v 1.623999 h 3.3600003 v 0 h 3.807988 c 0,0 1.708006,0 2.576012,0 v -2.688 h -0.868006 c 0,0 -0.700006,0.588 -3.556006,0.588 -1.763982,0 -2.044007,-1.567998 -2.099982,-2.127999 v -2.799998 h 1.987994 c 0,0 2.52,0 2.856,-0.699999 l 0.224126,-0.588 0.224126,-0.672 c 0,0 -0.784025,0.307994 -3.920012,0.139994 0,0 -0.252095,0.448002 -1.372007,0.448002 v -2.268 l -0.168189,0.08398 -0.08391,0.111987 -0.05594,0.02797 -0.08391,-0.08398 H 10.81651 l -0.02646,-0.139994 0.08391,0.05601 0.02646,-0.111987 0.02646,-0.084019 H 11.151 l 0.02646,-0.1119877 0.196158,-0.1119874 v -1.596 c 0.168189,-0.924 1.68,-0.8120013 1.68,-0.8120013 h 1.204006 c 0,0 2.436019,-0.027968 2.912013,0.84 z"
     style="font-size:7.40833px;line-height:1.25;font-family:Sovngarde;-inkscape-font-specification:Sovngarde;letter-spacing:3.57188px;fill:#f1edf8;stroke-width:0.999999"
     id="path167323" />
</svg>
