<?xml version="1.0" encoding="UTF-8" standalone="no"?>
<svg
   height="26.0px"
   width="26.0px"
   version="1.1"
   id="svg10050"
   sodipodi:docname="48.svg"
   inkscape:version="1.1 (c68e22c387, 2021-05-23)"
   xmlns:inkscape="http://www.inkscape.org/namespaces/inkscape"
   xmlns:sodipodi="http://sodipodi.sourceforge.net/DTD/sodipodi-0.dtd"
   xmlns="http://www.w3.org/2000/svg"
   xmlns:svg="http://www.w3.org/2000/svg">
  <defs
     id="defs10054">
    <rect
       x="20.461902"
       y="33.322407"
       width="58.601474"
       height="43.884815"
       id="rect62841" />
    <rect
       x="22.185475"
       y="31.863999"
       width="60.899571"
       height="47.464543"
       id="rect54537" />
    <rect
       x="22.273864"
       y="44.901281"
       width="27.577164"
       height="20.064155"
       id="rect51159" />
    <rect
       x="7.9107571"
       y="11.424194"
       width="21.412077"
       height="13.766485"
       id="rect39710" />
    <rect
       x="-24.041631"
       y="-11.313708"
       width="105.53569"
       height="62.57895"
       id="rect36404" />
    <rect
       x="-0.015625"
       y="0.015625"
       width="25.9375"
       height="25.984375"
       id="rect3373" />
  </defs>
  <sodipodi:namedview
     id="namedview10052"
     pagecolor="#505050"
     bordercolor="#eeeeee"
     borderopacity="1"
     inkscape:pageshadow="0"
     inkscape:pageopacity="0"
     inkscape:pagecheckerboard="0"
     showgrid="false"
     inkscape:zoom="22.627417"
     inkscape:cx="26.31763"
     inkscape:cy="13.633903"
     inkscape:window-width="1918"
     inkscape:window-height="2054"
     inkscape:window-x="1909"
     inkscape:window-y="52"
     inkscape:window-maximized="0"
     inkscape:current-layer="svg10050" />
  <path
     d="m 20.517994,13.490033 c 0,0 -0.196006,0.447999 -3.415997,0.02797 0,0 -0.84,0.644002 -2.184,0.699999 l -0.559998,0.75603 h 1.512 c 0.475998,0 0.588,0.307994 0.504,0.644002 l 2.127999,0.84 c 0,0 0.364006,-1.400002 0.727997,-1.568002 0.364007,-0.05601 0.980002,-0.139993 1.148002,-0.336 l 0.531998,-0.979997 z M 12.818,18.25003 c -3.2480006,0 -5.067998,-2.016 -5.067998,-5.347997 0,-3.7239992 2.52,-5.347998 4.787996,-5.347998 2.547999,0 3.696,1.0359988 3.975999,2.0159968 l 2.016,0.02797 C 17.997998,6.9100017 15.757997,5.2580042 12.65,5.2580042 c -4.143998,0 -7.5599954,3.4719989 -7.5599954,7.7279968 0,4.283996 3.3599962,7.755995 7.5039944,7.755995 2.547999,0 4.927998,-0.476001 5.935998,-4.283996 l -2.155998,-0.84 c -0.476001,1.735997 -1.344,2.631998 -3.555999,2.631998 z m -6.411998,-8.4559972 -0.504,-0.3360001 0.3360001,-0.02797 0.1119874,-0.224012 0.1960063,0.02797 0.2799874,-0.251981 h 0.4760012 c -0.7280012,0.111987 -0.8960012,0.812 -0.8960012,0.812 z"
     style="font-size:7.40833px;line-height:1.25;font-family:Sovngarde;-inkscape-font-specification:Sovngarde;letter-spacing:3.57188px;fill:#f1edf8;stroke-width:0.999999"
     id="path167327" />
</svg>
