<?xml version="1.0" encoding="UTF-8" standalone="no"?>
<svg
   height="26.0px"
   width="26.0px"
   version="1.1"
   id="svg10050"
   sodipodi:docname="49.svg"
   inkscape:version="1.1 (c68e22c387, 2021-05-23)"
   xmlns:inkscape="http://www.inkscape.org/namespaces/inkscape"
   xmlns:sodipodi="http://sodipodi.sourceforge.net/DTD/sodipodi-0.dtd"
   xmlns="http://www.w3.org/2000/svg"
   xmlns:svg="http://www.w3.org/2000/svg">
  <defs
     id="defs10054">
    <rect
       x="20.461902"
       y="33.322407"
       width="58.601474"
       height="43.884815"
       id="rect62841" />
    <rect
       x="22.185475"
       y="31.863999"
       width="60.899571"
       height="47.464543"
       id="rect54537" />
    <rect
       x="22.273864"
       y="44.901281"
       width="27.577164"
       height="20.064155"
       id="rect51159" />
    <rect
       x="7.9107571"
       y="11.424194"
       width="21.412077"
       height="13.766485"
       id="rect39710" />
    <rect
       x="-24.041631"
       y="-11.313708"
       width="105.53569"
       height="62.57895"
       id="rect36404" />
    <rect
       x="-0.015625"
       y="0.015625"
       width="25.9375"
       height="25.984375"
       id="rect3373" />
  </defs>
  <sodipodi:namedview
     id="namedview10052"
     pagecolor="#505050"
     bordercolor="#eeeeee"
     borderopacity="1"
     inkscape:pageshadow="0"
     inkscape:pageopacity="0"
     inkscape:pagecheckerboard="0"
     showgrid="false"
     inkscape:zoom="22.627417"
     inkscape:cx="25.212776"
     inkscape:cy="13.633903"
     inkscape:window-width="1918"
     inkscape:window-height="2054"
     inkscape:window-x="1909"
     inkscape:window-y="52"
     inkscape:window-maximized="0"
     inkscape:current-layer="svg10050" />
  <path
     d="M 19.201947,6.195986 V 5.2719898 H 15.393948 V 6.279986 c 0,0 0.699999,0.2240126 0.699999,1.1480013 v 2.4079975 l 0.196006,0.1119874 V 10.05996 h 0.224013 l 0.05601,0.08398 0.02797,0.111987 0.08402,-0.05601 -0.02797,0.139994 h -0.139993 l -0.111987,0.08398 -0.139994,-0.139994 -0.139994,-0.08398 v 0.336 c -0.02797,0.364006 -0.111987,1.427997 -0.728001,1.483998 l -4.787996,-0.02797 c 0,0 -0.728001,-0.05601 -0.728001,-2.1279988 v 0 -2.268 c 0,0 0,-1.008 0.728001,-1.4000013 V 5.2719898 H 6.798032 V 6.279986 c 0,0 0.672,0.2240126 0.672,1.1480013 l 0.02797,10.3319957 c 0,0 0,1.987998 -0.699999,1.987998 v 0.980001 h 3.807999 v -1.008 c 0,0 -0.700003,0.02797 -0.728002,-1.988001 v -1.371999 0 c 0,0 0,0 0,-0.02797 v -0.699999 c 0.02797,-0.588 0.196007,-1.344 0.728002,-1.344 h 4.787996 c 0,0 0.672,0.02797 0.728001,1.231997 v 2.240002 c 0,0 -0.02797,1.987997 -0.728001,1.987997 v 0.980001 h 3.807999 v -1.008 c 0,0 -0.699999,0.02797 -0.728001,-1.988001 V 7.5960175 c 0,0 0,-1.008 0.728001,-1.4000013 z"
     style="font-size:7.40833px;line-height:1.25;font-family:Sovngarde;-inkscape-font-specification:Sovngarde;letter-spacing:3.57188px;fill:#f1edf8;stroke-width:0.999999"
     id="path167329" />
</svg>
