<?xml version="1.0" encoding="UTF-8" standalone="no"?>
<svg
   height="26.0px"
   width="26.0px"
   version="1.1"
   id="svg10050"
   sodipodi:docname="50.svg"
   inkscape:version="1.1 (c68e22c387, 2021-05-23)"
   xmlns:inkscape="http://www.inkscape.org/namespaces/inkscape"
   xmlns:sodipodi="http://sodipodi.sourceforge.net/DTD/sodipodi-0.dtd"
   xmlns="http://www.w3.org/2000/svg"
   xmlns:svg="http://www.w3.org/2000/svg">
  <defs
     id="defs10054">
    <rect
       x="20.461902"
       y="33.322407"
       width="58.601474"
       height="43.884815"
       id="rect62841" />
    <rect
       x="22.185475"
       y="31.863999"
       width="60.899571"
       height="47.464543"
       id="rect54537" />
    <rect
       x="22.273864"
       y="44.901281"
       width="27.577164"
       height="20.064155"
       id="rect51159" />
    <rect
       x="7.9107571"
       y="11.424194"
       width="21.412077"
       height="13.766485"
       id="rect39710" />
    <rect
       x="-24.041631"
       y="-11.313708"
       width="105.53569"
       height="62.57895"
       id="rect36404" />
    <rect
       x="-0.015625"
       y="0.015625"
       width="25.9375"
       height="25.984375"
       id="rect3373" />
    <rect
       x="20.461902"
       y="33.322407"
       width="58.601474"
       height="43.884815"
       id="rect62841-9" />
    <rect
       x="22.185475"
       y="31.863999"
       width="60.899571"
       height="47.464543"
       id="rect54537-2" />
    <rect
       x="22.273864"
       y="44.901281"
       width="27.577164"
       height="20.064155"
       id="rect51159-7" />
    <rect
       x="7.9107571"
       y="11.424194"
       width="21.412077"
       height="13.766485"
       id="rect39710-1" />
    <rect
       x="-24.041631"
       y="-11.313708"
       width="105.53569"
       height="62.57895"
       id="rect36404-8" />
    <rect
       x="-0.015625"
       y="0.015625"
       width="25.9375"
       height="25.984375"
       id="rect3373-9" />
  </defs>
  <sodipodi:namedview
     id="namedview10052"
     pagecolor="#505050"
     bordercolor="#eeeeee"
     borderopacity="1"
     inkscape:pageshadow="0"
     inkscape:pageopacity="0"
     inkscape:pagecheckerboard="0"
     showgrid="false"
     inkscape:zoom="45.254834"
     inkscape:cx="13.821728"
     inkscape:cy="18.550504"
     inkscape:window-width="1918"
     inkscape:window-height="2054"
     inkscape:window-x="1909"
     inkscape:window-y="52"
     inkscape:window-maximized="0"
     inkscape:current-layer="svg10050" />
  <path
     d="m 13.238735,5.2719898 v 0.5426263 c 0,0 0.542627,0.1953605 0.542627,0.9116138 l 0.02168,2.4526735 v 7.4231376 c 0,1.931751 -1.280599,2.018574 -1.280599,2.018574 -0.28217,0.0651 -0.564333,0 -0.803087,-0.130232 v 0.02168 h -0.08681 v 0.04342 l -0.04342,0.04342 h 0.0651 l -0.02168,0.04342 0.04342,0.04342 -0.0651,-0.02168 -0.02168,-0.02168 -0.04342,-0.04342 0.04342,-0.04342 v -0.04342 l -0.04342,0.04342 -0.04342,-0.04342 0.08681,-0.08681 v 0 c -0.607745,-0.368988 -1.02014,-1.150371 -1.02014,-1.150371 h -0.303872 l -0.499215,1.432536 c 0.868202,3.060415 3.993736,1.736405 3.993736,1.736405 0,0 1.910046,-0.542626 1.910046,-2.799954 V 6.8782085 c 0,0 0,-0.5426263 0.325577,-0.8899097 l -0.08681,0.04342 -0.08681,-0.021681 -0.02168,0.1085206 -0.17365,-0.06513 -0.04342,-0.065101 v -0.065101 l 0.108521,-0.04342 v -0.04342 l 0.217041,-0.04342 0.04342,0.1302305 h 0.08681 c 0.06513,-0.04342 0.13023,-0.1085206 0.195361,-0.1519405 V 5.2719898 h -2.995299 z"
     style="font-size:7.40833px;line-height:1.25;font-family:Sovngarde;-inkscape-font-specification:Sovngarde;letter-spacing:3.57188px;fill:#f1edf8;stroke-width:0.775181"
     id="path167333" />
</svg>
