<?xml version="1.0" encoding="UTF-8" standalone="no"?>
<svg
   height="26.0px"
   width="26.0px"
   version="1.1"
   id="svg10050"
   sodipodi:docname="51.svg"
   inkscape:version="1.1 (c68e22c387, 2021-05-23)"
   xmlns:inkscape="http://www.inkscape.org/namespaces/inkscape"
   xmlns:sodipodi="http://sodipodi.sourceforge.net/DTD/sodipodi-0.dtd"
   xmlns="http://www.w3.org/2000/svg"
   xmlns:svg="http://www.w3.org/2000/svg">
  <defs
     id="defs10054">
    <rect
       x="20.461902"
       y="33.322407"
       width="58.601474"
       height="43.884815"
       id="rect62841" />
    <rect
       x="22.185475"
       y="31.863999"
       width="60.899571"
       height="47.464543"
       id="rect54537" />
    <rect
       x="22.273864"
       y="44.901281"
       width="27.577164"
       height="20.064155"
       id="rect51159" />
    <rect
       x="7.9107571"
       y="11.424194"
       width="21.412077"
       height="13.766485"
       id="rect39710" />
    <rect
       x="-24.041631"
       y="-11.313708"
       width="105.53569"
       height="62.57895"
       id="rect36404" />
    <rect
       x="-0.015625"
       y="0.015625"
       width="25.9375"
       height="25.984375"
       id="rect3373" />
  </defs>
  <sodipodi:namedview
     id="namedview10052"
     pagecolor="#505050"
     bordercolor="#eeeeee"
     borderopacity="1"
     inkscape:pageshadow="0"
     inkscape:pageopacity="0"
     inkscape:pagecheckerboard="0"
     showgrid="false"
     inkscape:zoom="22.627417"
     inkscape:cx="25.212776"
     inkscape:cy="13.633903"
     inkscape:window-width="1918"
     inkscape:window-height="2054"
     inkscape:window-x="1909"
     inkscape:window-y="52"
     inkscape:window-maximized="0"
     inkscape:current-layer="svg10050" />
  <path
     d="m 6.4892723,6.04207 c 0.7000065,0.2240126 0.6720005,0.9519988 0.6720005,0.9519988 v 8.1199982 l 0.475993,0.42 h 0.224126 l 0.111874,-0.252019 0.392013,0.08398 v 0.08398 l 0.196157,0.08402 v 0.111987 l -0.0839,0.139994 -0.308032,0.08398 -0.05594,-0.168 -0.167811,0.02797 -0.308031,-0.196007 -0.475994,-0.08402 v 2.883999 c 0,1.092 -0.6719999,1.371999 -0.6719999,1.371999 v 1.035999 H 10.157722 V 19.761931 C 9.6257148,19.36993 9.6257148,18.389929 9.6257148,18.389929 c 0,0 0.02646,-10.1079953 0,-11.0879933 C 9.5992548,6.3499332 10.297715,6.0699345 10.297715,6.0699345 V 5.2580713 H 6.4897259 Z M 17.213266,17.410065 16.065273,15.198067 c 0,0 -1.596019,-0.756 -2.772019,-2.576002 l 4.088012,-4.5079973 c 0,0 1.455988,-1.8199977 2.071975,-2.0159964 l -0.02646,-0.84 h -4.480025 v 0.84 c 0,0 0.784025,0.4479987 0,1.3719987 l -4.619981,5.151995 2.548006,3.36 0.504,0.05601 c 0,0 -0.05594,0.139994 0,0.139994 0.02646,0 0.391975,0.08398 0.391975,0.08398 l 0.111874,-0.111988 0.08391,0.05601 0.336,0.139994 -0.167811,0.111987 h -0.923982 v 0.279987 l 1.259981,1.399998 c 0,0 1.176,1.204003 0.532006,1.68 v 0.896001 h 4.507994 v -0.980001 c 0,0 -0.868007,-0.139994 -2.295988,-2.323998 z m -2.659993,-0.951998 -0.167811,-0.111988 0.167811,-0.139993 0.05594,0.139993 0.05594,0.05601 z"
     style="font-size:7.40833px;line-height:1.25;font-family:Sovngarde;-inkscape-font-specification:Sovngarde;letter-spacing:3.57188px;fill:#f1edf8;stroke-width:0.999999"
     id="path167335" />
</svg>
