<?xml version="1.0" encoding="UTF-8" standalone="no"?>
<svg
   height="26.0px"
   width="26.0px"
   version="1.1"
   id="svg10050"
   sodipodi:docname="52.svg"
   inkscape:version="1.1 (c68e22c387, 2021-05-23)"
   xmlns:inkscape="http://www.inkscape.org/namespaces/inkscape"
   xmlns:sodipodi="http://sodipodi.sourceforge.net/DTD/sodipodi-0.dtd"
   xmlns="http://www.w3.org/2000/svg"
   xmlns:svg="http://www.w3.org/2000/svg">
  <defs
     id="defs10054">
    <rect
       x="20.461902"
       y="33.322407"
       width="58.601474"
       height="43.884815"
       id="rect62841" />
    <rect
       x="22.185475"
       y="31.863999"
       width="60.899571"
       height="47.464543"
       id="rect54537" />
    <rect
       x="22.273864"
       y="44.901281"
       width="27.577164"
       height="20.064155"
       id="rect51159" />
    <rect
       x="7.9107571"
       y="11.424194"
       width="21.412077"
       height="13.766485"
       id="rect39710" />
    <rect
       x="-24.041631"
       y="-11.313708"
       width="105.53569"
       height="62.57895"
       id="rect36404" />
    <rect
       x="-0.015625"
       y="0.015625"
       width="25.9375"
       height="25.984375"
       id="rect3373" />
  </defs>
  <sodipodi:namedview
     id="namedview10052"
     pagecolor="#505050"
     bordercolor="#eeeeee"
     borderopacity="1"
     inkscape:pageshadow="0"
     inkscape:pageopacity="0"
     inkscape:pagecheckerboard="0"
     showgrid="false"
     inkscape:zoom="22.627417"
     inkscape:cx="25.212776"
     inkscape:cy="13.633903"
     inkscape:window-width="1918"
     inkscape:window-height="2054"
     inkscape:window-x="1909"
     inkscape:window-y="52"
     inkscape:window-maximized="0"
     inkscape:current-layer="svg10050" />
  <path
     d="m 17.073627,18.193997 c 0,0 -2.212006,0.672 -4.256013,0.672 -1.68,0 -1.623987,-2.631999 -1.623987,-2.631999 V 10.242 l -0.139842,0.08398 -0.140221,0.139993 -0.111874,-0.08398 H 10.661848 V 10.242 l 0.08391,0.05601 v -0.111985 l 0.05594,-0.08402 h 0.224126 V 9.9900167 l 0.224126,-0.111987 v -2.184 c 0,-1.2039987 0.532005,-1.428 0.532005,-1.428 V 5.2580043 H 8.1979805 v 0.9239962 c 0.643994,0.3079937 0.587982,1.4000013 0.587982,1.4000013 V 16.038 c 0,2.603996 -0.700007,3.191996 -0.700007,3.191996 l -0.05594,1.512 h 4.1719935 v -0.02797 l 3.807987,0.02797 c 0,0 1.036007,-0.02797 1.959988,0 v -2.547999 z"
     style="font-size:7.40833px;line-height:1.25;font-family:Sovngarde;-inkscape-font-specification:Sovngarde;letter-spacing:3.57188px;fill:#f1edf8;stroke-width:0.999999"
     id="path167337" />
</svg>
