<?xml version="1.0" encoding="UTF-8" standalone="no"?>
<svg
   height="26.0px"
   width="26.0px"
   version="1.1"
   id="svg10050"
   sodipodi:docname="66.svg"
   inkscape:version="1.1 (c68e22c387, 2021-05-23)"
   xmlns:inkscape="http://www.inkscape.org/namespaces/inkscape"
   xmlns:sodipodi="http://sodipodi.sourceforge.net/DTD/sodipodi-0.dtd"
   xmlns="http://www.w3.org/2000/svg"
   xmlns:svg="http://www.w3.org/2000/svg">
  <defs
     id="defs10054">
    <rect
       x="20.461902"
       y="33.322407"
       width="58.601474"
       height="43.884815"
       id="rect62841" />
    <rect
       x="22.185475"
       y="31.863999"
       width="60.899571"
       height="47.464543"
       id="rect54537" />
    <rect
       x="22.273864"
       y="44.901281"
       width="27.577164"
       height="20.064155"
       id="rect51159" />
    <rect
       x="7.9107571"
       y="11.424194"
       width="21.412077"
       height="13.766485"
       id="rect39710" />
    <rect
       x="-24.041631"
       y="-11.313708"
       width="105.53569"
       height="62.57895"
       id="rect36404" />
    <rect
       x="-0.015625"
       y="0.015625"
       width="25.9375"
       height="25.984375"
       id="rect3373" />
    <rect
       x="20.461902"
       y="33.322407"
       width="58.601474"
       height="43.884815"
       id="rect62841-9" />
    <rect
       x="22.185475"
       y="31.863999"
       width="60.899571"
       height="47.464543"
       id="rect54537-2" />
    <rect
       x="22.273864"
       y="44.901281"
       width="27.577164"
       height="20.064155"
       id="rect51159-7" />
    <rect
       x="7.9107571"
       y="11.424194"
       width="21.412077"
       height="13.766485"
       id="rect39710-1" />
    <rect
       x="-24.041631"
       y="-11.313708"
       width="105.53569"
       height="62.57895"
       id="rect36404-8" />
    <rect
       x="-0.015625"
       y="0.015625"
       width="25.9375"
       height="25.984375"
       id="rect3373-9" />
  </defs>
  <sodipodi:namedview
     id="namedview10052"
     pagecolor="#505050"
     bordercolor="#eeeeee"
     borderopacity="1"
     inkscape:pageshadow="0"
     inkscape:pageopacity="0"
     inkscape:pagecheckerboard="0"
     showgrid="false"
     inkscape:zoom="45.254834"
     inkscape:cx="13.821728"
     inkscape:cy="18.550504"
     inkscape:window-width="1918"
     inkscape:window-height="2054"
     inkscape:window-x="1909"
     inkscape:window-y="52"
     inkscape:window-maximized="0"
     inkscape:current-layer="svg10050" />
  <path
     d="m 19.860126,6.3079875 h 0.419981 l 0.08391,-0.1119874 H 20.98 V 5.2719888 h -3.499994 l -4.368,6.1319962 L 8.855993,5.2719888 H 5.244012 v 1.0359987 c 0.447988,0.1399937 0.504,1.008 0.504,1.008 V 18.095982 C 5.748012,19.49598 5.02,19.74798 5.02,19.74798 v 0.980001 H 8.716 V 19.74798 C 8.044,19.635992 8.072006,18.011982 8.072006,18.011982 v -0.812001 c 0,0 -0.167811,0.08398 -0.196157,0.08398 -0.05594,0 -0.139843,0.111988 -0.139843,0.111988 -0.224126,0.05601 -0.111874,-0.196007 -0.111874,-0.196007 l 0.08391,-0.02797 0.02646,-0.08398 0.111874,-0.02797 0.196158,-0.224012 V 9.2760165 h 0.139842 l 4.816025,6.4119945 4.619982,-6.4119945 h 0.111874 V 18.15201 c 0.02646,1.400001 -0.531969,1.568001 -0.531969,1.568001 v 1.008 h 3.779981 v -1.008 c -0.504,-0.224012 -0.588019,-1.539998 -0.588019,-1.539998 v -6.747999 l -0.196165,-0.02797 v -0.196006 l -0.252095,-0.02797 0.08391,-0.111988 -0.167811,-0.05601 -0.111874,-0.111988 -0.111874,-0.251981 0.167811,0.08398 0.111874,-0.111987 0.0839,0.139993 L 20.1098,10.6481 20.473769,10.62013 V 6.6721331 l 0.05594,-0.2520189 -0.140221,0.1119874 -0.280063,-0.027969 -0.08391,0.1119875 -0.392013,-0.056013 0.224126,-0.1399937 z m -4.592013,5.8239945 -0.336,-0.08398 v -0.08398 l -0.167811,-0.05601 0.111874,-0.279988 0.336,0.08398 0.05594,0.168 0.111874,0.05601 z"
     style="font-size:7.40833px;line-height:1.25;font-family:Sovngarde;-inkscape-font-specification:Sovngarde;letter-spacing:3.57188px;fill:#f1edf8;stroke-width:0.999999"
     id="path167339" />
</svg>
