<?xml version="1.0" encoding="UTF-8" standalone="no"?>
<svg
   height="26.0px"
   width="26.0px"
   version="1.1"
   id="svg10050"
   sodipodi:docname="65.svg"
   inkscape:version="1.1 (c68e22c387, 2021-05-23)"
   xmlns:inkscape="http://www.inkscape.org/namespaces/inkscape"
   xmlns:sodipodi="http://sodipodi.sourceforge.net/DTD/sodipodi-0.dtd"
   xmlns="http://www.w3.org/2000/svg"
   xmlns:svg="http://www.w3.org/2000/svg">
  <defs
     id="defs10054">
    <rect
       x="20.461902"
       y="33.322407"
       width="58.601474"
       height="43.884815"
       id="rect62841" />
    <rect
       x="22.185475"
       y="31.863999"
       width="60.899571"
       height="47.464543"
       id="rect54537" />
    <rect
       x="22.273864"
       y="44.901281"
       width="27.577164"
       height="20.064155"
       id="rect51159" />
    <rect
       x="7.9107571"
       y="11.424194"
       width="21.412077"
       height="13.766485"
       id="rect39710" />
    <rect
       x="-24.041631"
       y="-11.313708"
       width="105.53569"
       height="62.57895"
       id="rect36404" />
    <rect
       x="-0.015625"
       y="0.015625"
       width="25.9375"
       height="25.984375"
       id="rect3373" />
    <rect
       x="20.461902"
       y="33.322407"
       width="58.601474"
       height="43.884815"
       id="rect62841-9" />
    <rect
       x="22.185475"
       y="31.863999"
       width="60.899571"
       height="47.464543"
       id="rect54537-2" />
    <rect
       x="22.273864"
       y="44.901281"
       width="27.577164"
       height="20.064155"
       id="rect51159-7" />
    <rect
       x="7.9107571"
       y="11.424194"
       width="21.412077"
       height="13.766485"
       id="rect39710-1" />
    <rect
       x="-24.041631"
       y="-11.313708"
       width="105.53569"
       height="62.57895"
       id="rect36404-8" />
    <rect
       x="-0.015625"
       y="0.015625"
       width="25.9375"
       height="25.984375"
       id="rect3373-9" />
  </defs>
  <sodipodi:namedview
     id="namedview10052"
     pagecolor="#505050"
     bordercolor="#eeeeee"
     borderopacity="1"
     inkscape:pageshadow="0"
     inkscape:pageopacity="0"
     inkscape:pagecheckerboard="0"
     showgrid="false"
     inkscape:zoom="45.254834"
     inkscape:cx="13.821728"
     inkscape:cy="18.550504"
     inkscape:window-width="1918"
     inkscape:window-height="2054"
     inkscape:window-x="1909"
     inkscape:window-y="52"
     inkscape:window-maximized="0"
     inkscape:current-layer="svg10050" />
  <path
     d="m 19.62111,7.4139843 c 0,-0.9240001 0.700007,-1.1480013 0.700007,-1.1480013 V 5.2579868 H 16.513091 V 6.181983 c 0.700007,0.504 0.728013,1.4840013 0.728013,1.4840013 l -0.05594,9.0719957 -7.5319939,-9.9119957 -0.026457,0.027968 -0.6440315,0.336 0.167811,0.1960063 -0.7559811,-0.336 L 8.7865241,6.7699712 8.8983981,6.8819586 9.2623666,6.657946 V 6.5179528 l 0.083905,-0.027969 0.224126,-1.176 v -0.056013 h -0.7000063 -3.192 V 6.1819679 C 6.4064076,6.5739691 6.4344139,7.5819691 6.4344139,7.5819691 V 17.717963 c -0.055937,2.016 -0.7560189,1.988001 -0.7560189,1.988001 v 1.035999 h 3.9759875 v -1.008 C 8.8984014,19.425969 8.9264077,17.745965 8.9264077,17.745965 v -4.704 l -0.167811,0.08398 -0.1118741,0.139994 -0.111874,-0.08398 H 8.3670375 v -0.139994 l 0.083906,0.05601 v -0.111988 l 0.055937,-0.08398 H 8.7310066 L 8.7574636,12.79002 8.953621,12.678033 V 9.9900322 l 8.203994,10.7519968 h 3.163994 v -1.008 c -0.700006,0 -0.728013,-1.987998 -0.728013,-1.987998 v -7.503999 z"
     style="font-size:7.40833px;line-height:1.25;font-family:Sovngarde;-inkscape-font-specification:Sovngarde;letter-spacing:3.57188px;fill:#f1edf8;stroke-width:0.999999"
     id="path167341" />
</svg>
