<?xml version="1.0" encoding="UTF-8" standalone="no"?>
<svg
   height="26.0px"
   width="26.0px"
   version="1.1"
   id="svg10050"
   sodipodi:docname="37.svg"
   inkscape:version="1.1 (c68e22c387, 2021-05-23)"
   xmlns:inkscape="http://www.inkscape.org/namespaces/inkscape"
   xmlns:sodipodi="http://sodipodi.sourceforge.net/DTD/sodipodi-0.dtd"
   xmlns="http://www.w3.org/2000/svg"
   xmlns:svg="http://www.w3.org/2000/svg">
  <defs
     id="defs10054">
    <rect
       x="20.461902"
       y="33.322407"
       width="58.601474"
       height="43.884815"
       id="rect62841" />
    <rect
       x="22.185475"
       y="31.863999"
       width="60.899571"
       height="47.464543"
       id="rect54537" />
    <rect
       x="22.273864"
       y="44.901281"
       width="27.577164"
       height="20.064155"
       id="rect51159" />
    <rect
       x="7.9107571"
       y="11.424194"
       width="21.412077"
       height="13.766485"
       id="rect39710" />
    <rect
       x="-24.041631"
       y="-11.313708"
       width="105.53569"
       height="62.57895"
       id="rect36404" />
    <rect
       x="-0.015625"
       y="0.015625"
       width="25.9375"
       height="25.984375"
       id="rect3373" />
  </defs>
  <sodipodi:namedview
     id="namedview10052"
     pagecolor="#505050"
     bordercolor="#eeeeee"
     borderopacity="1"
     inkscape:pageshadow="0"
     inkscape:pageopacity="0"
     inkscape:pagecheckerboard="0"
     showgrid="false"
     inkscape:zoom="22.627417"
     inkscape:cx="26.31763"
     inkscape:cy="13.633903"
     inkscape:window-width="1918"
     inkscape:window-height="2054"
     inkscape:window-x="1909"
     inkscape:window-y="52"
     inkscape:window-maximized="0"
     inkscape:current-layer="svg10050" />
  <path
     d="m 13.406015,14.106034 c 0,0 4.927975,0 4.927975,-4.2000003 0,-4.675998 -4.983986,-4.6479954 -4.983986,-4.6479954 H 7.6660095 v 0.1399937 0.84 l 0.532006,0.5600012 v 0.42 l 0.111874,0.083981 V 8.758013 h 0.139843 v 0.3079937 l 0.448025,0.1119874 0.504,0.083981 -0.111874,0.1399936 h -0.755981 l -0.111874,0.224013 -0.05594,0.279987 v 7.6999983 c 0,0 0.02646,1.568001 -0.700007,2.043999 v 1.092 h 3.7520135 v -1.119999 c 0,0 -0.756019,-0.252019 -0.643994,-1.764 v -5.795996 l -0.196157,-0.168 0.05594,-0.111988 0.111874,-0.02797 V 9.9900127 l -0.05594,-0.168 -0.111874,-0.224013 0.02646,-0.5880001 0.05594,-0.168 0.08391,0.1119874 V 8.8139955 7.4139942 h 2.911975 c 0,0 2.380006,0.027969 2.464025,2.4639985 0,0 0.308032,2.3799993 -3.808025,2.1559983 h -0.111874 v 1.400001 z"
     style="font-size:7.40833px;line-height:1.25;font-family:Sovngarde;-inkscape-font-specification:Sovngarde;letter-spacing:3.57188px;fill:#f1edf8;stroke-width:0.999999"
     id="path167345" />
</svg>
