<?xml version="1.0" encoding="UTF-8" standalone="no"?>
<svg
   height="26.0px"
   width="26.0px"
   version="1.1"
   id="svg10050"
   sodipodi:docname="30.svg"
   inkscape:version="1.1 (c68e22c387, 2021-05-23)"
   xmlns:inkscape="http://www.inkscape.org/namespaces/inkscape"
   xmlns:sodipodi="http://sodipodi.sourceforge.net/DTD/sodipodi-0.dtd"
   xmlns="http://www.w3.org/2000/svg"
   xmlns:svg="http://www.w3.org/2000/svg">
  <defs
     id="defs10054">
    <rect
       x="20.461902"
       y="33.322407"
       width="58.601474"
       height="43.884815"
       id="rect62841" />
    <rect
       x="22.185475"
       y="31.863999"
       width="60.899571"
       height="47.464543"
       id="rect54537" />
    <rect
       x="22.273864"
       y="44.901281"
       width="27.577164"
       height="20.064155"
       id="rect51159" />
    <rect
       x="7.9107571"
       y="11.424194"
       width="21.412077"
       height="13.766485"
       id="rect39710" />
    <rect
       x="-24.041631"
       y="-11.313708"
       width="105.53569"
       height="62.57895"
       id="rect36404" />
    <rect
       x="-0.015625"
       y="0.015625"
       width="25.9375"
       height="25.984375"
       id="rect3373" />
    <rect
       x="20.461902"
       y="33.322407"
       width="58.601474"
       height="43.884815"
       id="rect62841-9" />
    <rect
       x="22.185475"
       y="31.863999"
       width="60.899571"
       height="47.464543"
       id="rect54537-2" />
    <rect
       x="22.273864"
       y="44.901281"
       width="27.577164"
       height="20.064155"
       id="rect51159-7" />
    <rect
       x="7.9107571"
       y="11.424194"
       width="21.412077"
       height="13.766485"
       id="rect39710-1" />
    <rect
       x="-24.041631"
       y="-11.313708"
       width="105.53569"
       height="62.57895"
       id="rect36404-8" />
    <rect
       x="-0.015625"
       y="0.015625"
       width="25.9375"
       height="25.984375"
       id="rect3373-9" />
  </defs>
  <sodipodi:namedview
     id="namedview10052"
     pagecolor="#505050"
     bordercolor="#eeeeee"
     borderopacity="1"
     inkscape:pageshadow="0"
     inkscape:pageopacity="0"
     inkscape:pagecheckerboard="0"
     showgrid="false"
     inkscape:zoom="45.254834"
     inkscape:cx="13.821728"
     inkscape:cy="18.550504"
     inkscape:window-width="1918"
     inkscape:window-height="2054"
     inkscape:window-x="1909"
     inkscape:window-y="52"
     inkscape:window-maximized="0"
     inkscape:current-layer="svg10050" />
  <path
     d="m 17.298022,18.207981 c 1.848,-1.371999 2.771981,-3.359996 2.771981,-5.963997 0,-4.199996 -3.163994,-7.6719947 -7.056,-7.6719947 -3.9200125,0 -7.0840063,3.4719987 -7.0840063,7.6719947 0,4.200001 3.1639938,7.587996 7.0840063,7.587996 0.924019,0 1.512,-0.02797 2.352,-0.279988 l 0.05594,0.08402 c 0,0 1.791987,1.791999 2.771981,1.791999 l 1.512,-0.391998 -0.05594,-0.196006 c 0,0 -0.868006,-0.531999 -2.352,-2.631999 z M 7.1620094,9.0799868 6.714022,8.7719931 6.994085,8.7440251 7.1339275,8.5200125 l 0.168189,0.027968 0.280063,-0.2519811 h 0.4199811 c -0.672,0.1119874 -0.84,0.7840025 -0.84,0.7840025 z m 5.8799996,8.3719942 c -2.884006,0 -4.5920122,-2.631999 -4.5920122,-5.207997 0,-2.184 1.5680122,-5.375996 4.5360002,-5.375996 3.192,0 4.480025,2.9679988 4.480025,5.319995 0,3.108 -1.148032,3.920002 -1.708007,4.507998 l -0.111874,0.111987 c 0,0 -0.391974,-0.02797 -0.923981,-0.924 l -2.659993,-0.168 1.344,1.68 c 0,0 -0.167811,0.05601 -0.363969,0.05601 z"
     style="font-size:7.40833px;line-height:1.25;font-family:Sovngarde;-inkscape-font-specification:Sovngarde;letter-spacing:3.57188px;fill:#f1edf8;stroke-width:0.999999"
     id="path167347" />
</svg>
