<?xml version="1.0" encoding="UTF-8" standalone="no"?>
<svg
   height="26.0px"
   width="26.0px"
   version="1.1"
   id="svg10050"
   sodipodi:docname="45.svg"
   inkscape:version="1.1 (c68e22c387, 2021-05-23)"
   xmlns:inkscape="http://www.inkscape.org/namespaces/inkscape"
   xmlns:sodipodi="http://sodipodi.sourceforge.net/DTD/sodipodi-0.dtd"
   xmlns="http://www.w3.org/2000/svg"
   xmlns:svg="http://www.w3.org/2000/svg">
  <defs
     id="defs10054">
    <rect
       x="20.461902"
       y="33.322407"
       width="58.601474"
       height="43.884815"
       id="rect62841" />
    <rect
       x="22.185475"
       y="31.863999"
       width="60.899571"
       height="47.464543"
       id="rect54537" />
    <rect
       x="22.273864"
       y="44.901281"
       width="27.577164"
       height="20.064155"
       id="rect51159" />
    <rect
       x="7.9107571"
       y="11.424194"
       width="21.412077"
       height="13.766485"
       id="rect39710" />
    <rect
       x="-24.041631"
       y="-11.313708"
       width="105.53569"
       height="62.57895"
       id="rect36404" />
    <rect
       x="-0.015625"
       y="0.015625"
       width="25.9375"
       height="25.984375"
       id="rect3373" />
  </defs>
  <sodipodi:namedview
     id="namedview10052"
     pagecolor="#505050"
     bordercolor="#eeeeee"
     borderopacity="1"
     inkscape:pageshadow="0"
     inkscape:pageopacity="0"
     inkscape:pagecheckerboard="0"
     showgrid="false"
     inkscape:zoom="22.627417"
     inkscape:cx="26.31763"
     inkscape:cy="13.633903"
     inkscape:window-width="1918"
     inkscape:window-height="2054"
     inkscape:window-x="1909"
     inkscape:window-y="52"
     inkscape:window-maximized="0"
     inkscape:current-layer="svg10050" />
  <path
     d="m 17.293408,7.0918894 c -3.080012,-2.9960013 -6.216,-1.2879987 -6.216,-1.2879987 -2.4919937,1.0919962 -2.3800057,3.9199975 -2.3800057,3.9199975 0.167811,3.4439958 2.7720187,3.9759988 2.7720187,3.9759988 l 0.336,-0.02797 0.139842,-0.224012 0.196158,0.02797 0.280063,-0.279987 h 0.475993 c -0.727974,0.391997 -0.923981,0.84 -0.923981,0.84 3.975988,0.783999 3.724007,2.603996 3.724007,2.603996 0,1.791999 -3.248013,1.652001 -3.248013,1.652001 C 9.6214963,18.067873 9.1455033,16.051884 9.1455033,16.051884 h -1.176 v 2.436 c 1.063974,2.1 4.7319677,2.184 4.7319677,2.184 3.108019,0.139994 4.256013,-1.400001 4.256013,-1.400001 1.455987,-1.567998 1.008,-3.387999 1.008,-3.387999 -0.336,-1.959999 -2.771981,-3.023996 -2.771981,-3.023996 -2.072013,-1.008 -2.576013,-1.287999 -2.576013,-1.287999 -2.127987,-0.924 -1.708006,-2.4640023 -1.708006,-2.4640023 0.560012,-2.5199963 4.368,-1.7919988 5.096012,-0.168 h 1.287988 z"
     style="font-size:7.40833px;line-height:1.25;font-family:Sovngarde;-inkscape-font-specification:Sovngarde;letter-spacing:3.57188px;fill:#f1edf8;stroke-width:0.999999"
     id="path167351" />
</svg>
