<?xml version="1.0" encoding="UTF-8" standalone="no"?>
<svg
   height="26.0px"
   width="26.0px"
   version="1.1"
   id="svg10050"
   sodipodi:docname="34.svg"
   inkscape:version="1.1 (c68e22c387, 2021-05-23)"
   xmlns:inkscape="http://www.inkscape.org/namespaces/inkscape"
   xmlns:sodipodi="http://sodipodi.sourceforge.net/DTD/sodipodi-0.dtd"
   xmlns="http://www.w3.org/2000/svg"
   xmlns:svg="http://www.w3.org/2000/svg">
  <defs
     id="defs10054">
    <rect
       x="20.461902"
       y="33.322407"
       width="58.601474"
       height="43.884815"
       id="rect62841" />
    <rect
       x="22.185475"
       y="31.863999"
       width="60.899571"
       height="47.464543"
       id="rect54537" />
    <rect
       x="22.273864"
       y="44.901281"
       width="27.577164"
       height="20.064155"
       id="rect51159" />
    <rect
       x="7.9107571"
       y="11.424194"
       width="21.412077"
       height="13.766485"
       id="rect39710" />
    <rect
       x="-24.041631"
       y="-11.313708"
       width="105.53569"
       height="62.57895"
       id="rect36404" />
    <rect
       x="-0.015625"
       y="0.015625"
       width="25.9375"
       height="25.984375"
       id="rect3373" />
  </defs>
  <sodipodi:namedview
     id="namedview10052"
     pagecolor="#505050"
     bordercolor="#eeeeee"
     borderopacity="1"
     inkscape:pageshadow="0"
     inkscape:pageopacity="0"
     inkscape:pagecheckerboard="0"
     showgrid="false"
     inkscape:zoom="22.627417"
     inkscape:cx="-4.7066795"
     inkscape:cy="17.766058"
     inkscape:window-width="3840"
     inkscape:window-height="2067"
     inkscape:window-x="-12"
     inkscape:window-y="40"
     inkscape:window-maximized="1"
     inkscape:current-layer="svg10050" />
  <path
     d="M 19.509991,5.2580045 H 6.4900094 v 2.687996 h 0.700006 c 0,0 0.336,-0.84 1.9599876,-0.84 0.5600126,0 0.868006,0 1.736013,0 0.895974,0 0.895974,0.700002 0.895974,0.700002 V 17.829997 c -0.05594,1.903999 -0.615987,1.932 -0.615987,1.932 l 0.02646,0.979998 h 3.499994 v -1.008 c -0.588019,-0.139994 -0.615988,-1.875999 -0.615988,-1.875999 v -7.167995 l -0.14022,0.08398 -0.111874,0.139994 -0.111874,-0.08398 h -0.139843 l -0.02646,-0.139994 0.08391,0.05601 0.02646,-0.08398 0.05594,-0.08398 h 0.196158 l 0.02646,-0.111987 0.196157,-0.111987 V 7.6380785 c 0,-0.504 0.643994,-0.532003 0.643994,-0.532003 h 2.100019 c 0,0 1.763981,-0.02797 1.959987,0.84 h 0.672 z"
     style="font-size:7.40833px;line-height:1.25;font-family:Sovngarde;-inkscape-font-specification:Sovngarde;letter-spacing:3.57188px;fill:#f1edf8;stroke-width:0.999999"
     id="path167353" />
</svg>
