<?xml version="1.0" encoding="UTF-8" standalone="no"?>
<svg
   height="26.0px"
   width="26.0px"
   version="1.1"
   id="svg10050"
   sodipodi:docname="31.svg"
   inkscape:version="1.1 (c68e22c387, 2021-05-23)"
   xmlns:inkscape="http://www.inkscape.org/namespaces/inkscape"
   xmlns:sodipodi="http://sodipodi.sourceforge.net/DTD/sodipodi-0.dtd"
   xmlns="http://www.w3.org/2000/svg"
   xmlns:svg="http://www.w3.org/2000/svg">
  <defs
     id="defs10054">
    <rect
       x="20.461902"
       y="33.322407"
       width="58.601474"
       height="43.884815"
       id="rect62841" />
    <rect
       x="22.185475"
       y="31.863999"
       width="60.899571"
       height="47.464543"
       id="rect54537" />
    <rect
       x="22.273864"
       y="44.901281"
       width="27.577164"
       height="20.064155"
       id="rect51159" />
    <rect
       x="7.9107571"
       y="11.424194"
       width="21.412077"
       height="13.766485"
       id="rect39710" />
    <rect
       x="-24.041631"
       y="-11.313708"
       width="105.53569"
       height="62.57895"
       id="rect36404" />
    <rect
       x="-0.015625"
       y="0.015625"
       width="25.9375"
       height="25.984375"
       id="rect3373" />
  </defs>
  <sodipodi:namedview
     id="namedview10052"
     pagecolor="#505050"
     bordercolor="#eeeeee"
     borderopacity="1"
     inkscape:pageshadow="0"
     inkscape:pageopacity="0"
     inkscape:pagecheckerboard="0"
     showgrid="false"
     inkscape:zoom="22.627417"
     inkscape:cx="-4.7066795"
     inkscape:cy="17.766058"
     inkscape:window-width="3840"
     inkscape:window-height="2067"
     inkscape:window-x="-12"
     inkscape:window-y="40"
     inkscape:window-maximized="1"
     inkscape:current-layer="svg10050" />
  <path
     d="m 11.863957,17.354 v -0.02797 0 z M 17.771963,5.258008 v 0.923996 c 0,0 0.672,0.364006 -0.02646,3.807999 L 16.09351,16.346 H 16.0096 L 14.469594,13.378001 13.069581,10.802004 11.613594,13.182003 9.905587,16.01 H 9.821677 L 8.505645,9.990003 C 8.449705,9.682009 8.393771,9.346005 8.337456,9.066003 L 8.11333,8.898003 H 7.973488 L 7.947028,8.814023 7.835154,8.786053 C 7.638997,8.394055 8.087249,8.646059 8.087249,8.646059 c 0.08391,0 0.167811,0.02797 0.196157,0.05601 -0.308031,-2.323998 0.252095,-2.52 0.252095,-2.52 V 5.258005 H 4.391513 v 0.923996 c 1.064013,0.252019 1.512,2.660001 1.512,2.660001 l 1.763981,8.931995 c 0.08391,0.531999 0.336,2.184 0.05594,2.323998 v 0.644001 h 0.08391 2.239975 l 0.280063,-0.644001 1.539968,-2.743998 h -0.02646 l -0.308032,0.08398 -0.02646,-0.307993 0.167811,-0.08402 v -0.05601 l 0.168189,-0.05601 c 0.05594,-0.139993 0.111874,-0.42 0.02646,-0.867998 l 0.05594,0.05601 v 0.588 h 0.05594 c 0,0 -0.111874,0.08398 -0.0839,0.08398 0.05594,0 0.0839,0 0.0839,0 l 0.02646,-0.08398 0.02646,-0.08398 -0.05594,0.279988 h 0.05594 l 0.02646,0.05601 1.008,-1.932 1.036006,2.239998 0.168189,0.42 0.252095,0.615998 0.05594,-0.447998 -0.05594,0.447998 0.868006,1.764 0.280063,0.672 v 0 h 2.323994 0.05594 v -0.644001 c -0.308032,-0.08398 0.139842,-2.379999 0.139842,-2.379999 v 0 l 1.259982,-5.123996 -0.280063,-0.02797 -0.111874,-0.111988 -0.08391,0.139994 -0.111874,-0.111987 -0.196157,0.08398 c 0,0 0.08391,-0.196007 0.139842,-0.307994 0.08391,-0.111987 0.280063,-0.139994 0.280063,-0.139994 l -0.08391,-0.111987 0.252094,-0.02797 v -0.168 l 0.224126,-0.05601 0.05594,0.42 0.727975,-3.331998 c 0,0 0.420019,-2.604 1.344,-2.660001 V 5.258004 Z"
     style="font-size:7.40833px;line-height:1.25;font-family:Sovngarde;-inkscape-font-specification:Sovngarde;letter-spacing:3.57188px;fill:#f1edf8;stroke-width:0.999999"
     id="path167359" />
</svg>
