<?xml version="1.0" encoding="UTF-8" standalone="no"?>
<svg
   height="26.0px"
   width="35.75px"
   version="1.1"
   id="svg10"
   sodipodi:docname="np5.svg"
   inkscape:version="1.1 (c68e22c387, 2021-05-23)"
   xmlns:inkscape="http://www.inkscape.org/namespaces/inkscape"
   xmlns:sodipodi="http://sodipodi.sourceforge.net/DTD/sodipodi-0.dtd"
   xmlns="http://www.w3.org/2000/svg"
   xmlns:svg="http://www.w3.org/2000/svg">
  <defs
     id="defs14">
    <rect
       x="-7.40625"
       y="-0.625"
       width="83.25"
       height="51.21875"
       id="rect2591" />
    <rect
       x="20.461902"
       y="33.322407"
       width="58.601474"
       height="43.884815"
       id="rect62841" />
    <rect
       x="22.185475"
       y="31.863999"
       width="60.899571"
       height="47.464543"
       id="rect54537" />
    <rect
       x="22.273864"
       y="44.901281"
       width="27.577164"
       height="20.064155"
       id="rect51159" />
    <rect
       x="7.9107571"
       y="11.424194"
       width="21.412077"
       height="13.766485"
       id="rect39710" />
    <rect
       x="-24.041631"
       y="-11.313708"
       width="105.53569"
       height="62.57895"
       id="rect36404" />
    <rect
       x="-0.015625"
       y="0.015625"
       width="25.9375"
       height="25.984375"
       id="rect3373" />
  </defs>
  <sodipodi:namedview
     id="namedview12"
     pagecolor="#505050"
     bordercolor="#eeeeee"
     borderopacity="1"
     inkscape:pageshadow="0"
     inkscape:pageopacity="0"
     inkscape:pagecheckerboard="0"
     showgrid="false"
     inkscape:snap-global="true"
     inkscape:zoom="32"
     inkscape:cx="-6.34375"
     inkscape:cy="13.15625"
     inkscape:window-width="3840"
     inkscape:window-height="2067"
     inkscape:window-x="-12"
     inkscape:window-y="40"
     inkscape:window-maximized="1"
     inkscape:current-layer="g8"
     showguides="true"
     inkscape:snap-intersection-paths="true"
     inkscape:object-paths="true"
     inkscape:snap-midpoints="true"
     inkscape:snap-bbox="true"
     inkscape:bbox-paths="true"
     inkscape:bbox-nodes="true"
     inkscape:snap-bbox-edge-midpoints="true"
     inkscape:snap-bbox-midpoints="true"
     inkscape:guide-bbox="true">
    <inkscape:grid
       type="xygrid"
       id="grid138" />
    <sodipodi:guide
       position="5.3967686,18.138743"
       orientation="0,-1"
       id="guide128248" />
    <sodipodi:guide
       position="5.3967686,7.8613661"
       orientation="0,-1"
       id="guide128250" />
  </sodipodi:namedview>
  <g
     id="g8">
    <g
       id="g128504"
       transform="matrix(2.7929237,0,0,2.7929237,-522.25642,695.79829)">
      <path
         d="m 192.22353,-245.81162 c 0,-0.22119 0.16756,-0.27481 0.16756,-0.27481 v -0.2413 h -0.91157 v 0.22119 c 0.16757,0.12065 0.17427,0.35525 0.17427,0.35525 l -0.0134,2.17169 -1.80305,-2.37278 -0.007,0.007 -0.15416,0.0804 0.0402,0.0469 -0.18097,-0.0804 0.0938,-0.067 0.0268,0.0268 0.0871,-0.0536 v -0.0335 l 0.0201,-0.007 0.0536,-0.28152 v -0.0134 h -0.16757 -0.76412 v 0.22119 c 0.17427,0.0938 0.18098,0.33514 0.18098,0.33514 v 2.4264 c -0.0134,0.4826 -0.18098,0.4759 -0.18098,0.4759 v 0.248 h 0.95179 v -0.2413 c -0.18097,-0.0737 -0.17427,-0.4759 -0.17427,-0.4759 v -1.12606 l -0.0402,0.0201 -0.0268,0.0335 -0.0268,-0.0201 h -0.0402 v -0.0335 l 0.0201,0.0134 v -0.0268 l 0.0134,-0.0201 h 0.0536 l 0.007,-0.0268 0.0469,-0.0268 v -0.64347 l 1.96392,2.57387 h 0.75741 v -0.2413 c -0.16757,0 -0.17428,-0.4759 -0.17428,-0.4759 v -1.79634 z"
         style="font-size:25.3333px;line-height:1.25;font-family:Sovngarde;-inkscape-font-specification:Sovngarde;letter-spacing:0px;white-space:pre;shape-inside:url(#rect100160);fill:#f1edf8;fill-opacity:1;stroke-width:0.264583"
         id="path124419" />
      <path
         d="m 194.15392,-244.20966 c 0,0 1.17968,0 1.17968,-1.00541 0,-1.11937 -1.19309,-1.11266 -1.19309,-1.11266 h -1.36066 v 0.0335 0.20108 l 0.12735,0.13406 v 0.10054 l 0.0268,0.0201 v 0.34854 h 0.0335 v 0.0737 l 0.10724,0.0268 0.12065,0.0201 -0.0268,0.0335 h -0.18097 l -0.0268,0.0536 -0.0134,0.067 v 1.84326 c 0,0 0.007,0.37535 -0.16757,0.4893 v 0.26141 h 0.89817 v -0.26811 c 0,0 -0.18097,-0.0603 -0.15416,-0.42228 v -1.38747 l -0.0469,-0.0402 0.0134,-0.0268 0.0268,-0.007 v -0.42228 l -0.0134,-0.0402 -0.0268,-0.0536 0.007,-0.14076 0.0134,-0.0402 0.0201,0.0268 v -0.0335 -0.33514 h 0.69708 c 0,0 0.56974,0.007 0.58985,0.58984 0,0 0.0737,0.56974 -0.91158,0.51612 h -0.0268 v 0.33514 z"
         style="font-size:25.3333px;line-height:1.25;font-family:Sovngarde;-inkscape-font-specification:Sovngarde;letter-spacing:0px;white-space:pre;shape-inside:url(#rect100160);fill:#f1edf8;fill-opacity:1;stroke-width:0.264583"
         id="path124421" />
      <path
         d="m 195.25965,-243.41203 c 0,0 -0.13406,0.43568 -0.11395,0.58314 0.0134,0.14746 0.78423,0.26141 1.47461,0.17428 0.19438,-0.0268 1.17969,-0.21449 1.17969,-1.28694 0,-0.59654 -0.54963,-0.93168 -0.97861,-0.99871 -0.0469,-0.0134 -0.65687,-0.0804 -0.87136,0.0603 0,0 0.0402,-0.87136 0.24801,-0.87136 0.20778,0 1.28023,0.0469 1.42098,0.0402 0.14746,0 0.28152,-0.60995 0.28152,-0.60995 h -0.40887 c -0.0737,0 -0.0201,0.0536 -0.44238,0.0536 -0.42228,0 -1.03893,0 -1.2065,0 -0.35525,0 -0.45579,1.13947 -0.46919,1.80975 0,0 0.11394,0.16757 0.31503,0.16757 0,0 1.48131,-0.496 1.48131,0.36865 0,0.87806 -1.25342,0.81104 -1.91029,0.50941 z"
         style="font-size:25.3333px;line-height:1.25;font-family:Sovngarde;-inkscape-font-specification:Sovngarde;letter-spacing:0px;white-space:pre;shape-inside:url(#rect100160);fill:#f1edf8;fill-opacity:1;stroke-width:0.264583"
         id="path124423" />
    </g>
  </g>
</svg>
