<?xml version="1.0" encoding="UTF-8" standalone="no"?>
<svg
   height="26.0px"
   width="35.75px"
   version="1.1"
   id="svg10"
   sodipodi:docname="np8.svg"
   inkscape:version="1.1 (c68e22c387, 2021-05-23)"
   xmlns:inkscape="http://www.inkscape.org/namespaces/inkscape"
   xmlns:sodipodi="http://sodipodi.sourceforge.net/DTD/sodipodi-0.dtd"
   xmlns="http://www.w3.org/2000/svg"
   xmlns:svg="http://www.w3.org/2000/svg">
  <defs
     id="defs14">
    <rect
       x="-7.40625"
       y="-0.625"
       width="83.25"
       height="51.21875"
       id="rect2591" />
    <rect
       x="20.461902"
       y="33.322407"
       width="58.601474"
       height="43.884815"
       id="rect62841" />
    <rect
       x="22.185475"
       y="31.863999"
       width="60.899571"
       height="47.464543"
       id="rect54537" />
    <rect
       x="22.273864"
       y="44.901281"
       width="27.577164"
       height="20.064155"
       id="rect51159" />
    <rect
       x="7.9107571"
       y="11.424194"
       width="21.412077"
       height="13.766485"
       id="rect39710" />
    <rect
       x="-24.041631"
       y="-11.313708"
       width="105.53569"
       height="62.57895"
       id="rect36404" />
    <rect
       x="-0.015625"
       y="0.015625"
       width="25.9375"
       height="25.984375"
       id="rect3373" />
  </defs>
  <sodipodi:namedview
     id="namedview12"
     pagecolor="#505050"
     bordercolor="#eeeeee"
     borderopacity="1"
     inkscape:pageshadow="0"
     inkscape:pageopacity="0"
     inkscape:pagecheckerboard="0"
     showgrid="false"
     inkscape:snap-global="true"
     inkscape:zoom="32"
     inkscape:cx="20.484375"
     inkscape:cy="13.75"
     inkscape:window-width="3840"
     inkscape:window-height="2067"
     inkscape:window-x="-12"
     inkscape:window-y="40"
     inkscape:window-maximized="1"
     inkscape:current-layer="g8"
     showguides="true"
     inkscape:snap-intersection-paths="true"
     inkscape:object-paths="true"
     inkscape:snap-midpoints="true"
     inkscape:snap-bbox="true"
     inkscape:bbox-paths="true"
     inkscape:bbox-nodes="true"
     inkscape:snap-bbox-edge-midpoints="true"
     inkscape:snap-bbox-midpoints="true"
     inkscape:guide-bbox="true">
    <inkscape:grid
       type="xygrid"
       id="grid138" />
    <sodipodi:guide
       position="5.3967686,18.138743"
       orientation="0,-1"
       id="guide128248" />
    <sodipodi:guide
       position="5.3967686,7.8613661"
       orientation="0,-1"
       id="guide128250" />
  </sodipodi:namedview>
  <g
     id="g8">
    <g
       id="g127008"
       transform="matrix(2.7929237,0,0,2.7929237,93.053518,299.72482)">
      <path
         d="m -28.079948,-103.99841 c 0,-0.22119 0.167568,-0.27481 0.167568,-0.27481 v -0.2413 h -0.911577 v 0.22119 c 0.167569,0.12065 0.174273,0.35525 0.174273,0.35525 l -0.01341,2.17169 -1.803045,-2.37278 -0.0067,0.007 -0.154165,0.0804 0.04022,0.0469 -0.180975,-0.0804 0.09384,-0.067 0.02681,0.0268 0.08714,-0.0536 v -0.0335 l 0.02011,-0.007 0.05362,-0.28152 v -0.0134 h -0.167568 -0.764117 v 0.22119 c 0.174273,0.0938 0.180975,0.33514 0.180975,0.33514 v 2.4264 c -0.01341,0.4826 -0.180975,0.4759 -0.180975,0.4759 v 0.248 h 0.951794 v -0.2413 c -0.180975,-0.0737 -0.174271,-0.4759 -0.174271,-0.4759 v -1.12606 l -0.04022,0.0201 -0.02681,0.0335 -0.02681,-0.0201 h -0.04022 v -0.0335 l 0.02011,0.0134 v -0.0268 l 0.01341,-0.0201 h 0.05362 l 0.0067,-0.0268 0.04692,-0.0268 v -0.64347 l 1.963912,2.57387 h 0.757413 v -0.2413 c -0.167569,0 -0.174274,-0.4759 -0.174274,-0.4759 v -1.79634 z"
         style="font-size:25.3333px;line-height:1.25;font-family:Sovngarde;-inkscape-font-specification:Sovngarde;letter-spacing:0px;white-space:pre;shape-inside:url(#rect100160);fill:#f1edf8;fill-opacity:1;stroke-width:0.264583"
         id="path124437" />
      <path
         d="m -26.149554,-102.39645 c 0,0 1.179688,0 1.179688,-1.00541 0,-1.11937 -1.193093,-1.11266 -1.193093,-1.11266 h -1.360663 v 0.0335 0.20108 l 0.127354,0.13406 v 0.10054 l 0.02681,0.0201 v 0.34854 h 0.03351 v 0.0737 l 0.107244,0.0268 0.12065,0.0201 -0.02681,0.0335 h -0.180972 l -0.02681,0.0536 -0.01342,0.067 v 1.84326 c 0,0 0.0067,0.37535 -0.167571,0.4893 v 0.26141 h 0.898173 v -0.26811 c 0,0 -0.180975,-0.0603 -0.154164,-0.42228 v -1.38747 l -0.04692,-0.0402 0.01341,-0.0268 0.02681,-0.007 v -0.42228 l -0.01341,-0.0402 -0.02681,-0.0536 0.0067,-0.14076 0.01341,-0.0402 0.02011,0.0268 v -0.0335 -0.33514 h 0.697087 c 0,0 0.569736,0.007 0.589844,0.58984 0,0 0.07373,0.56974 -0.911577,0.51612 h -0.02681 v 0.33514 z"
         style="font-size:25.3333px;line-height:1.25;font-family:Sovngarde;-inkscape-font-specification:Sovngarde;letter-spacing:0px;white-space:pre;shape-inside:url(#rect100160);fill:#f1edf8;fill-opacity:1;stroke-width:0.264583"
         id="path124439" />
      <path
         d="m -24.246928,-102.7584 c -0.107244,0.0536 -0.19438,0.10725 -0.26811,0.16087 -0.281517,0.19438 -0.428978,0.50941 -0.428978,0.81103 0,0.30163 0.201084,0.54963 0.469194,0.73061 0.234597,0.16086 0.509411,0.2413 0.824441,0.2413 0.341841,0 0.623357,-0.0871 0.851251,-0.26141 0.254706,-0.19438 0.382058,-0.44909 0.382058,-0.77752 0,-0.44909 -0.180974,-0.69709 -0.670277,-0.9585 0.469194,-0.19438 0.569736,-0.46919 0.569736,-0.80433 0,-0.27482 -0.12065,-0.49601 -0.368653,-0.66358 -0.221191,-0.15416 -0.469193,-0.22789 -0.750709,-0.22789 -0.301625,0 -0.563033,0.0871 -0.790927,0.25471 -0.248003,0.18767 -0.368653,0.42227 -0.368653,0.71049 0,0.17427 0.08043,0.32844 0.174272,0.46249 0.08043,0.10054 0.140759,0.16087 0.375355,0.32173 z m 0.462491,0.18768 0.355247,0.14076 c 0.368652,0.17427 0.482599,0.26811 0.482599,0.4759 0,0.11394 -0.02011,0.38205 -0.154163,0.46919 -0.154164,0.10054 -0.254705,0.13405 -0.442383,0.14746 -0.294922,0.0335 -0.50941,-0.0603 -0.636763,-0.18768 -0.134055,-0.12735 -0.201083,-0.21449 -0.201083,-0.42897 0,-0.18098 0.288219,-0.4759 0.596546,-0.61666 z m 0.268111,-0.44909 -0.05362,-0.0268 c -0.281516,-0.12735 -0.43568,-0.248 -0.469194,-0.26811 -0.167569,-0.10724 -0.248002,-0.22119 -0.248002,-0.32843 0,-0.067 0.05362,-0.18768 0.174272,-0.27482 0.107244,-0.0737 0.294922,-0.14075 0.442383,-0.14075 0.174272,0 0.395463,0.0804 0.516113,0.18097 0.120649,0.10724 0.180974,0.18098 0.180974,0.35525 0,0.12065 -0.26811,0.38205 -0.542924,0.5027 z"
         style="font-size:25.3333px;line-height:1.25;font-family:Sovngarde;-inkscape-font-specification:Sovngarde;letter-spacing:0px;white-space:pre;shape-inside:url(#rect100160);fill:#f1edf8;fill-opacity:1;stroke-width:0.264583"
         id="path124441" />
    </g>
  </g>
</svg>
