<?xml version="1.0" encoding="UTF-8" standalone="no"?>
<svg
   height="26.0px"
   width="35.75px"
   version="1.1"
   id="svg10"
   sodipodi:docname="npasterix.svg"
   inkscape:version="1.1 (c68e22c387, 2021-05-23)"
   xmlns:inkscape="http://www.inkscape.org/namespaces/inkscape"
   xmlns:sodipodi="http://sodipodi.sourceforge.net/DTD/sodipodi-0.dtd"
   xmlns="http://www.w3.org/2000/svg"
   xmlns:svg="http://www.w3.org/2000/svg">
  <defs
     id="defs14">
    <rect
       x="-7.40625"
       y="-0.625"
       width="83.25"
       height="51.21875"
       id="rect2591" />
    <rect
       x="20.461902"
       y="33.322407"
       width="58.601474"
       height="43.884815"
       id="rect62841" />
    <rect
       x="22.185475"
       y="31.863999"
       width="60.899571"
       height="47.464543"
       id="rect54537" />
    <rect
       x="22.273864"
       y="44.901281"
       width="27.577164"
       height="20.064155"
       id="rect51159" />
    <rect
       x="7.9107571"
       y="11.424194"
       width="21.412077"
       height="13.766485"
       id="rect39710" />
    <rect
       x="-24.041631"
       y="-11.313708"
       width="105.53569"
       height="62.57895"
       id="rect36404" />
    <rect
       x="-0.015625"
       y="0.015625"
       width="25.9375"
       height="25.984375"
       id="rect3373" />
  </defs>
  <sodipodi:namedview
     id="namedview12"
     pagecolor="#505050"
     bordercolor="#eeeeee"
     borderopacity="1"
     inkscape:pageshadow="0"
     inkscape:pageopacity="0"
     inkscape:pagecheckerboard="0"
     showgrid="false"
     inkscape:snap-global="true"
     inkscape:zoom="32"
     inkscape:cx="19.703125"
     inkscape:cy="13.75"
     inkscape:window-width="3840"
     inkscape:window-height="2067"
     inkscape:window-x="-12"
     inkscape:window-y="40"
     inkscape:window-maximized="1"
     inkscape:current-layer="g8"
     showguides="true"
     inkscape:snap-intersection-paths="true"
     inkscape:object-paths="true"
     inkscape:snap-midpoints="true"
     inkscape:snap-bbox="true"
     inkscape:bbox-paths="true"
     inkscape:bbox-nodes="true"
     inkscape:snap-bbox-edge-midpoints="true"
     inkscape:snap-bbox-midpoints="true"
     inkscape:guide-bbox="true">
    <inkscape:grid
       type="xygrid"
       id="grid138" />
    <sodipodi:guide
       position="5.3967686,18.138743"
       orientation="0,-1"
       id="guide128248" />
    <sodipodi:guide
       position="5.3967686,7.8613661"
       orientation="0,-1"
       id="guide128250" />
  </sodipodi:namedview>
  <g
     id="g8">
    <g
       id="g127049"
       transform="matrix(2.7929237,0,0,2.7929237,-159.37952,299.92138)">
      <path
         d="m 63.00371,-103.99841 c 0,-0.22119 0.167568,-0.27481 0.167568,-0.27481 v -0.2413 h -0.911574 v 0.22119 c 0.167569,0.12065 0.17427,0.35525 0.17427,0.35525 l -0.01341,2.17169 -1.803045,-2.37278 -0.0067,0.007 -0.154162,0.0804 0.04022,0.0469 -0.180975,-0.0804 0.09384,-0.067 0.02681,0.0268 0.08714,-0.0536 v -0.0335 l 0.02011,-0.007 0.05362,-0.28152 v -0.0134 h -0.167569 -0.764116 v 0.22119 c 0.17427,0.0938 0.180975,0.33514 0.180975,0.33514 v 2.4264 c -0.01342,0.4826 -0.180975,0.4759 -0.180975,0.4759 v 0.248 h 0.951793 v -0.2413 c -0.180975,-0.0737 -0.174273,-0.4759 -0.174273,-0.4759 v -1.12606 l -0.04022,0.0201 -0.02681,0.0335 -0.02681,-0.0201 h -0.04022 v -0.0335 l 0.02011,0.0134 v -0.0268 l 0.01341,-0.0201 h 0.05362 l 0.0067,-0.0268 0.04692,-0.0268 v -0.64347 l 1.963912,2.57387 h 0.757412 v -0.2413 c -0.167569,0 -0.174271,-0.4759 -0.174271,-0.4759 v -1.79634 z"
         style="font-size:25.3333px;line-height:1.25;font-family:Sovngarde;-inkscape-font-specification:Sovngarde;letter-spacing:0px;white-space:pre;shape-inside:url(#rect100160);fill:#f1edf8;fill-opacity:1;stroke-width:0.264583"
         id="path124487" />
      <path
         d="m 64.934104,-102.39645 c 0,0 1.17969,0 1.17969,-1.00541 0,-1.11937 -1.193093,-1.11266 -1.193093,-1.11266 h -1.360663 v 0.0335 0.20108 l 0.127352,0.13406 v 0.10054 l 0.02681,0.0201 v 0.34854 h 0.03351 v 0.0737 l 0.107244,0.0268 0.12065,0.0201 -0.02681,0.0335 h -0.180975 l -0.02681,0.0536 -0.01341,0.067 v 1.84326 c 0,0 0.0067,0.37535 -0.167568,0.4893 v 0.26141 h 0.89817 v -0.26811 c 0,0 -0.180975,-0.0603 -0.154165,-0.42228 v -1.38747 l -0.04692,-0.0402 0.01341,-0.0268 0.02681,-0.007 v -0.42228 l -0.01341,-0.0402 -0.02681,-0.0536 0.0067,-0.14076 0.01341,-0.0402 0.02011,0.0268 v -0.0335 -0.33514 h 0.697087 c 0,0 0.569736,0.007 0.589844,0.58984 0,0 0.07373,0.56974 -0.911574,0.51612 h -0.02681 v 0.33514 z"
         style="font-size:25.3333px;line-height:1.25;font-family:Sovngarde;-inkscape-font-specification:Sovngarde;letter-spacing:0px;white-space:pre;shape-inside:url(#rect100160);fill:#f1edf8;fill-opacity:1;stroke-width:0.264583"
         id="path124489" />
      <path
         d="m 66.333729,-104.4609 -0.02681,0.15416 0.06703,0.10055 c 0,0 0.254706,-0.0871 0.382058,0.23459 0,0 0.04692,-0.0871 0.01341,-0.13405 0,0 -0.113946,-0.2413 -0.221189,-0.31503 -0.04692,-0.0402 -0.21449,-0.0402 -0.21449,-0.0402 z m -0.127352,0.46919 0.09384,0.12065 0.12065,0.0201 c 0,0 0.100542,-0.248 0.422275,-0.13405 0,0 -0.02681,-0.0938 -0.08714,-0.10054 0,0 -0.254706,-0.0737 -0.382058,-0.0402 -0.06703,0.0134 -0.167569,0.13405 -0.167569,0.13405 z m 0.435679,0.42898 0.14746,-0.0536 0.04692,-0.10724 c 0,0 -0.207786,-0.20779 0.0067,-0.4759 0,0 -0.100541,0 -0.12065,0.0536 0,0 -0.14746,0.248 -0.154162,0.38206 -0.0067,0.0603 0.07373,0.20108 0.07373,0.20108 z m 0.609952,-0.26141 -0.05362,-0.14075 -0.107247,-0.0536 c 0,0 -0.100541,0.13406 -0.368652,-0.0804 0,0 0,0.10054 0.05362,0.12065 0,0 0.140758,0.22119 0.274812,0.2346 0.06033,0.007 0.201083,-0.0804 0.201083,-0.0804 z m 0.01341,-0.52952 -0.12065,-0.0737 -0.12065,0.0335 c 0,0 0.0067,0.26811 -0.335139,0.28822 0,0 0.06703,0.0737 0.12065,0.0603 0,0 0.254706,-0.0402 0.36195,-0.11395 0.05362,-0.0402 0.09384,-0.19438 0.09384,-0.19438 z m -0.408868,-0.30162 -0.140759,0.067 -0.04692,0.10724 c 0,0 0.194382,0.15417 0,0.44238 0,0 0.127355,-0.0402 0.147463,-0.0938 0,0 0.134054,-0.19438 0.134054,-0.32844 0,-0.0603 -0.09384,-0.19438 -0.09384,-0.19438 z"
         style="font-size:25.3333px;line-height:1.25;font-family:Sovngarde;-inkscape-font-specification:Sovngarde;letter-spacing:0px;white-space:pre;shape-inside:url(#rect100160);fill:#f1edf8;fill-opacity:1;stroke-width:0.264583"
         id="path124491" />
    </g>
  </g>
</svg>
