<?xml version="1.0" encoding="UTF-8" standalone="no"?>
<svg
   height="26.0px"
   width="35.75px"
   version="1.1"
   id="svg10"
   sodipodi:docname="npmin.svg"
   inkscape:version="1.1 (c68e22c387, 2021-05-23)"
   xmlns:inkscape="http://www.inkscape.org/namespaces/inkscape"
   xmlns:sodipodi="http://sodipodi.sourceforge.net/DTD/sodipodi-0.dtd"
   xmlns="http://www.w3.org/2000/svg"
   xmlns:svg="http://www.w3.org/2000/svg">
  <defs
     id="defs14">
    <rect
       x="-7.40625"
       y="-0.625"
       width="83.25"
       height="51.21875"
       id="rect2591" />
    <rect
       x="20.461902"
       y="33.322407"
       width="58.601474"
       height="43.884815"
       id="rect62841" />
    <rect
       x="22.185475"
       y="31.863999"
       width="60.899571"
       height="47.464543"
       id="rect54537" />
    <rect
       x="22.273864"
       y="44.901281"
       width="27.577164"
       height="20.064155"
       id="rect51159" />
    <rect
       x="7.9107571"
       y="11.424194"
       width="21.412077"
       height="13.766485"
       id="rect39710" />
    <rect
       x="-24.041631"
       y="-11.313708"
       width="105.53569"
       height="62.57895"
       id="rect36404" />
    <rect
       x="-0.015625"
       y="0.015625"
       width="25.9375"
       height="25.984375"
       id="rect3373" />
  </defs>
  <sodipodi:namedview
     id="namedview12"
     pagecolor="#505050"
     bordercolor="#eeeeee"
     borderopacity="1"
     inkscape:pageshadow="0"
     inkscape:pageopacity="0"
     inkscape:pagecheckerboard="0"
     showgrid="false"
     inkscape:snap-global="true"
     inkscape:zoom="32"
     inkscape:cx="19.703125"
     inkscape:cy="13.75"
     inkscape:window-width="3840"
     inkscape:window-height="2067"
     inkscape:window-x="-12"
     inkscape:window-y="40"
     inkscape:window-maximized="1"
     inkscape:current-layer="g8"
     showguides="true"
     inkscape:snap-intersection-paths="true"
     inkscape:object-paths="true"
     inkscape:snap-midpoints="true"
     inkscape:snap-bbox="true"
     inkscape:bbox-paths="true"
     inkscape:bbox-nodes="true"
     inkscape:snap-bbox-edge-midpoints="true"
     inkscape:snap-bbox-midpoints="true"
     inkscape:guide-bbox="true">
    <inkscape:grid
       type="xygrid"
       id="grid138" />
    <sodipodi:guide
       position="5.3967686,18.138743"
       orientation="0,-1"
       id="guide128248" />
    <sodipodi:guide
       position="5.3967686,7.8613661"
       orientation="0,-1"
       id="guide128250" />
  </sodipodi:namedview>
  <g
     id="g8">
    <g
       id="g127023"
       transform="matrix(2.7929237,0,0,2.7929237,-3.1546584,299.72482)">
      <path
         d="m 6.4928352,-103.99841 c 0,-0.22119 0.1675694,-0.27481 0.1675694,-0.27481 v -0.2413 H 5.748828 v 0.22119 c 0.1675693,0.12065 0.174272,0.35525 0.174272,0.35525 l -0.013406,2.17169 -1.8030447,-2.37278 -0.0067,0.007 -0.1541637,0.0804 0.040216,0.0469 -0.1809747,-0.0804 0.093839,-0.067 0.026811,0.0268 0.087136,-0.0536 v -0.0335 l 0.020108,-0.007 0.053622,-0.28152 v -0.0134 H 3.918972 3.1548564 v 0.22119 c 0.1742721,0.0938 0.1809748,0.33514 0.1809748,0.33514 v 2.4264 c -0.013406,0.4826 -0.1809748,0.4759 -0.1809748,0.4759 v 0.248 h 0.9517933 v -0.2413 c -0.1809747,-0.0737 -0.174272,-0.4759 -0.174272,-0.4759 v -1.12606 l -0.040217,0.0201 -0.026811,0.0335 -0.026811,-0.0201 h -0.040217 v -0.0335 l 0.020108,0.0134 v -0.0268 l 0.013406,-0.0201 h 0.053622 l 0.0067,-0.0268 0.046919,-0.0268 v -0.64347 l 1.9639113,2.57387 h 0.7574129 v -0.2413 c -0.1675694,0 -0.1742721,-0.4759 -0.1742721,-0.4759 v -1.79634 z"
         style="font-size:25.3333px;line-height:1.25;font-family:Sovngarde;-inkscape-font-specification:Sovngarde;letter-spacing:0px;white-space:pre;shape-inside:url(#rect100160);fill:#f1edf8;fill-opacity:1;stroke-width:0.264583"
         id="path124455" />
      <path
         d="m 8.4232307,-102.39645 c 0,0 1.1796871,0 1.1796871,-1.00541 0,-1.11937 -1.1930927,-1.11266 -1.1930927,-1.11266 H 7.049163 v 0.0335 0.20108 l 0.1273526,0.13406 v 0.10054 l 0.026811,0.0201 v 0.34854 h 0.033514 v 0.0737 l 0.1072441,0.0268 0.12065,0.0201 -0.026811,0.0335 H 7.256949 l -0.026811,0.0536 -0.013406,0.067 v 1.84326 c 0,0 0.0067,0.37535 -0.1675694,0.4893 v 0.26141 h 0.898171 v -0.26811 c 0,0 -0.1809748,-0.0603 -0.1541635,-0.42228 v -1.38747 l -0.04692,-0.0402 0.013406,-0.0268 0.026811,-0.007 v -0.42228 l -0.013407,-0.0402 -0.026811,-0.0536 0.0067,-0.14076 0.013407,-0.0402 0.020108,0.0268 v -0.0335 -0.33514 H 8.483552 c 0,0 0.5697355,0.007 0.5898438,0.58984 0,0 0.07373,0.56974 -0.9115766,0.51612 h -0.026811 v 0.33514 z"
         style="font-size:25.3333px;line-height:1.25;font-family:Sovngarde;-inkscape-font-specification:Sovngarde;letter-spacing:0px;white-space:pre;shape-inside:url(#rect100160);fill:#f1edf8;fill-opacity:1;stroke-width:0.264583"
         id="path124457" />
      <path
         d="m 9.7425954,-102.32272 c 0,0 1.5617446,-0.12065 2.1448856,0.0402 0,0 0.06032,-0.28152 -0.04692,-0.44909 0,0 -2.2387246,-0.0402 -2.2320216,0.0469 0.0067,0.0134 0.134055,0.36195 0.134055,0.36195 z"
         style="font-size:25.3333px;line-height:1.25;font-family:Sovngarde;-inkscape-font-specification:Sovngarde;letter-spacing:0px;white-space:pre;shape-inside:url(#rect100160);fill:#f1edf8;fill-opacity:1;stroke-width:0.264583"
         id="path124459" />
    </g>
  </g>
</svg>
