<?xml version="1.0" encoding="UTF-8" standalone="no"?>
<svg
   height="26.0px"
   width="41.75px"
   version="1.1"
   id="svg484"
   sodipodi:docname="Numlk 27fit.svg"
   inkscape:version="1.1 (c68e22c387, 2021-05-23)"
   xmlns:inkscape="http://www.inkscape.org/namespaces/inkscape"
   xmlns:sodipodi="http://sodipodi.sourceforge.net/DTD/sodipodi-0.dtd"
   xmlns="http://www.w3.org/2000/svg"
   xmlns:svg="http://www.w3.org/2000/svg">
  <defs
     id="defs488">
    <rect
       x="-9.5703457"
       y="26.78684"
       width="73.980291"
       height="25.824742"
       id="rect32669" />
    <rect
       x="-7.40625"
       y="-0.625"
       width="83.25"
       height="51.21875"
       id="rect2591" />
    <rect
       x="20.461902"
       y="33.322407"
       width="58.601474"
       height="43.884815"
       id="rect62841" />
    <rect
       x="22.185475"
       y="31.863999"
       width="60.899571"
       height="47.464543"
       id="rect54537" />
    <rect
       x="22.273864"
       y="44.901281"
       width="27.577164"
       height="20.064155"
       id="rect51159" />
    <rect
       x="7.9107571"
       y="11.424194"
       width="21.412077"
       height="13.766485"
       id="rect39710" />
    <rect
       x="-24.041631"
       y="-11.313708"
       width="105.53569"
       height="62.57895"
       id="rect36404" />
    <rect
       x="-0.015625"
       y="0.015625"
       width="25.9375"
       height="25.984375"
       id="rect3373" />
    <rect
       x="-9.5703457"
       y="26.78684"
       width="73.980291"
       height="25.824742"
       id="rect32669-5" />
    <rect
       x="-7.40625"
       y="-0.625"
       width="83.25"
       height="51.21875"
       id="rect2591-7" />
    <rect
       x="20.461902"
       y="33.322407"
       width="58.601474"
       height="43.884815"
       id="rect62841-9" />
    <rect
       x="22.185475"
       y="31.863999"
       width="60.899571"
       height="47.464543"
       id="rect54537-3" />
    <rect
       x="22.273864"
       y="44.901281"
       width="27.577164"
       height="20.064155"
       id="rect51159-5" />
    <rect
       x="7.9107571"
       y="11.424194"
       width="21.412077"
       height="13.766485"
       id="rect39710-3" />
    <rect
       x="-24.041631"
       y="-11.313708"
       width="105.53569"
       height="62.57895"
       id="rect36404-6" />
    <rect
       x="-0.015625"
       y="0.015625"
       width="25.9375"
       height="25.984375"
       id="rect3373-8" />
  </defs>
  <sodipodi:namedview
     id="namedview486"
     pagecolor="#505050"
     bordercolor="#eeeeee"
     borderopacity="1"
     inkscape:pageshadow="0"
     inkscape:pageopacity="0"
     inkscape:pagecheckerboard="0"
     showgrid="false"
     inkscape:zoom="39.497006"
     inkscape:cx="22.419421"
     inkscape:cy="12.380685"
     inkscape:window-width="3840"
     inkscape:window-height="2067"
     inkscape:window-x="-12"
     inkscape:window-y="40"
     inkscape:window-maximized="1"
     inkscape:current-layer="svg484"
     inkscape:snap-bbox="true"
     inkscape:bbox-paths="true"
     inkscape:bbox-nodes="true"
     inkscape:snap-bbox-edge-midpoints="true"
     inkscape:snap-bbox-midpoints="true"
     inkscape:snap-smooth-nodes="true"
     inkscape:snap-midpoints="true"
     inkscape:object-paths="true"
     inkscape:snap-intersection-paths="true"
     inkscape:snap-global="true"
     showguides="true"
     inkscape:guide-bbox="true">
    <sodipodi:guide
       position="3.9874645,8.2664121"
       orientation="0,-1"
       id="guide5231" />
    <sodipodi:guide
       position="3.9874645,17.733617"
       orientation="0,-1"
       id="guide5313" />
  </sodipodi:namedview>
  <g
     transform="matrix(1.0, 0.0, 0.0, 1.0, 0.0, 0.0)"
     id="g482" />
  <text
     xml:space="preserve"
     id="text32667"
     style="line-height:1.25;font-family:Sovngarde;font-size:12px;-inkscape-font-specification:Sovngarde;letter-spacing:0px;white-space:pre;shape-inside:url(#rect32669)" />
  <g
     id="g127342"
     transform="matrix(2.5541265,0,0,2.5541265,242.57546,245.82254)">
    <path
       d="m -90.07477,-92.492652 c 0,-0.221191 0.167569,-0.274814 0.167569,-0.274814 v -0.241298 h -0.911577 v 0.221189 c 0.167568,0.12065 0.174273,0.355248 0.174273,0.355248 l -0.01342,2.171698 -1.803045,-2.372781 -0.0067,0.0067 -0.154165,0.08043 0.04022,0.04692 -0.180975,-0.08043 0.09384,-0.06703 0.02681,0.02681 0.08714,-0.05362 v -0.03351 l 0.02011,-0.0067 0.05362,-0.281517 v -0.01341 h -0.167569 -0.764117 v 0.221189 c 0.174273,0.09384 0.180975,0.33514 0.180975,0.33514 v 2.426401 c -0.01341,0.4826 -0.180975,0.475898 -0.180975,0.475898 v 0.248002 h 0.951794 v -0.2413 c -0.180975,-0.07373 -0.174271,-0.475896 -0.174271,-0.475896 v -1.126066 l -0.04022,0.02011 -0.02681,0.03351 -0.02681,-0.02011 h -0.04022 v -0.03351 l 0.02011,0.01341 v -0.02681 l 0.01342,-0.02011 h 0.05362 l 0.0067,-0.02681 0.04692,-0.02681 V -91.876 l 1.963912,2.573864 h 0.757412 v -0.2413 c -0.167569,0 -0.174273,-0.475896 -0.174273,-0.475896 v -1.796343 z"
       style="font-size:25.3333px;line-height:1.25;font-family:Sovngarde;-inkscape-font-specification:Sovngarde;letter-spacing:0px;white-space:pre;shape-inside:url(#rect107272);fill:#f1edf8;fill-opacity:1;stroke-width:0.264583"
       id="path127071" />
    <path
       d="m -88.743902,-91.500641 v 0.12065 c 0.08713,0.03351 0.08043,0.134053 0.08043,0.134053 v 0.958496 0.04692 c 0,0.04022 0,0.07373 0,0.100542 -0.02011,0.160866 -0.08043,0.435679 -0.435682,0.435679 0,0 -0.408868,0.0067 -0.408868,-0.536221 v -1.005417 c 0,0 -0.0067,-0.100541 0.08043,-0.134053 v -0.12065 h -0.576437 v 0.127352 c 0,0 0.08713,0.04022 0.08713,0.174273 -0.0067,0.134053 -0.0067,1.152874 -0.0067,1.152874 0,0 0.02681,0.737306 0.797629,0.737306 0.844548,0 0.864656,-0.710493 0.864656,-0.710493 l -0.02011,-0.0067 0.02011,-0.04022 v -0.02681 c 0,0 0.0067,-0.971902 0,-1.105956 0,-0.134056 0.08714,-0.174273 0.08714,-0.174273 v -0.127352 z"
       style="font-size:25.3333px;line-height:1.25;font-family:Sovngarde;-inkscape-font-specification:Sovngarde;letter-spacing:0px;white-space:pre;shape-inside:url(#rect107272);fill:#f1edf8;fill-opacity:1;stroke-width:0.264583"
       id="path127073" />
    <path
       d="m -85.153716,-89.677488 v -0.730601 -0.355249 c 0,-0.650168 -0.496004,-0.737303 -0.7306,-0.737303 -0.308329,0 -0.589846,0.113945 -0.683683,0.335137 -0.167569,-0.328435 -0.382058,-0.335137 -0.569735,-0.335137 -0.248002,0 -0.328435,0.100541 -0.355248,0.180975 v -0.100542 c 0,-0.127355 0.07373,-0.154165 0.07373,-0.154165 h -0.221192 l -0.428976,0.09384 c 0.08714,0.05362 0.107243,0.288219 0.107243,0.288219 v 1.26012 0.154165 c -0.0067,0.274812 -0.134054,0.315029 -0.134054,0.315029 v 0.160866 h 0.737304 v -0.167568 c -0.127352,0 -0.140758,-0.308327 -0.140758,-0.308327 v -0.57644 0 c 0,0 -0.09384,-0.723897 0.355245,-0.723897 0.422275,0 0.375357,0.730602 0.375357,0.730602 v 0.56303 0.107246 c -0.0067,0.194379 -0.12065,0.194379 -0.12065,0.194379 v 0.180975 h 0.690385 v -0.180975 c -0.113948,0 -0.12065,-0.194379 -0.12065,-0.194379 v -0.415573 l -0.0067,-0.248002 c 0,-0.01341 0,-0.02681 0,-0.04022 0.0067,-0.09384 0,-0.697087 0.368652,-0.697087 0.41557,0 0.375354,0.730602 0.375354,0.730602 v 0.56303 0.107246 c -0.0067,0.194379 -0.12065,0.194379 -0.12065,0.194379 v 0.180975 h 0.670277 v -0.180975 c -0.113946,0 -0.12065,-0.194379 -0.12065,-0.194379 z m -2.399591,-0.75071 -0.02011,-0.01341 -0.02681,-0.134057 v -0.02011 l 0.01341,0.0067 v -0.01341 l 0.01341,0.12065 h 0.01341 l 0.02011,0.04692 z"
       style="font-size:25.3333px;line-height:1.25;font-family:Sovngarde;-inkscape-font-specification:Sovngarde;letter-spacing:0px;white-space:pre;shape-inside:url(#rect107272);fill:#f1edf8;fill-opacity:1;stroke-width:0.264583"
       id="path127075" />
    <path
       d="m -82.732704,-89.912086 c 0,0 -0.529519,0.160867 -1.018821,0.160867 -0.402166,0 -0.38876,-0.63006 -0.38876,-0.63006 v -1.434394 l -0.03352,0.02011 -0.03351,0.03351 -0.02681,-0.02011 h -0.03351 v -0.03352 l 0.02011,0.01342 v -0.02681 l 0.01341,-0.02011 h 0.05362 v -0.02681 l 0.05362,-0.02681 v -0.522817 c 0,-0.288218 0.127355,-0.341841 0.127355,-0.341841 v -0.241298 h -0.857957 v 0.221189 c 0.154165,0.07373 0.140758,0.33514 0.140758,0.33514 v 2.024237 c 0,0.623356 -0.167568,0.764114 -0.167568,0.764114 l -0.01342,0.36195 h 0.998713 v -0.0067 l 0.911576,0.0067 c 0,0 0.248005,-0.0067 0.469194,0 v -0.609952 z"
       style="font-size:25.3333px;line-height:1.25;font-family:Sovngarde;-inkscape-font-specification:Sovngarde;letter-spacing:0px;white-space:pre;shape-inside:url(#rect107272);fill:#f1edf8;fill-opacity:1;stroke-width:0.264583"
       id="path127077" />
    <path
       d="m -81.804393,-89.985817 v -1.903585 l -0.02681,0.01342 -0.02011,0.03351 -0.02011,-0.01341 h -0.02681 v -0.03351 l 0.01341,0.0067 v -0.02011 l 0.01341,-0.02011 h 0.03351 l 0.0067,-0.02681 0.03351,-0.02681 v -0.77752 c 0,-0.201084 0.07373,-0.254704 0.07373,-0.254704 h -0.08714 l -0.623359,0.160864 c 0.14746,0.09384 0.14746,0.33514 0.14746,0.33514 v 2.339266 0.180975 c -0.0067,0.449085 -0.127351,0.449085 -0.127351,0.449085 v 0.234598 h 0.744005 v -0.234598 c -0.120647,0 -0.134054,-0.442383 -0.134054,-0.442383 z m 1.23331,0.187679 -0.315031,-0.455789 c 0,0 -0.127352,0.01341 -0.341842,-0.248002 l 0.690385,-0.837846 c 0,0 0.06032,-0.07373 0.227894,-0.12065 l -0.0067,-0.174273 h -0.77752 v 0.174273 c 0,0 0.134053,0.06033 0,0.194379 l -0.596548,0.764117 0.308329,0.428977 0.08713,0.01341 c 0,0 -0.0067,0.02011 0,0.02011 0.0067,0 0.07373,0.01341 0.07373,0.01341 l 0.02011,-0.02011 0.01341,0.0067 0.05362,0.02011 -0.02681,0.02011 h -0.160866 v 0.04022 l 0.301622,0.335137 c 0,0 0.04692,0.06703 0.01341,0.107243 l 0.201084,0.21449 h 0.616653 v -0.201083 c 0,0 -0.134053,0.02011 -0.382055,-0.294921 z m -0.516114,-0.201083 -0.02681,-0.01341 0.02681,-0.02011 0.01341,0.02011 0.08043,0.0067 z"
       style="font-size:25.3333px;line-height:1.25;font-family:Sovngarde;-inkscape-font-specification:Sovngarde;letter-spacing:0px;white-space:pre;shape-inside:url(#rect107272);fill:#f1edf8;fill-opacity:1;stroke-width:0.264583"
       id="path127079" />
  </g>
</svg>
