<?xml version="1.0" encoding="UTF-8" standalone="no"?>
<svg
   height="26.0px"
   width="26.0px"
   version="1.1"
   id="svg10050"
   sodipodi:docname="3.svg"
   inkscape:version="1.1 (c68e22c387, 2021-05-23)"
   xmlns:inkscape="http://www.inkscape.org/namespaces/inkscape"
   xmlns:sodipodi="http://sodipodi.sourceforge.net/DTD/sodipodi-0.dtd"
   xmlns="http://www.w3.org/2000/svg"
   xmlns:svg="http://www.w3.org/2000/svg">
  <defs
     id="defs10054">
    <rect
       x="-6.098796"
       y="19.997864"
       width="42.382213"
       height="14.120039"
       id="rect71495" />
    <rect
       x="0"
       y="0"
       width="26"
       height="12.617437"
       id="rect65169" />
  </defs>
  <sodipodi:namedview
     id="namedview10052"
     pagecolor="#505050"
     bordercolor="#eeeeee"
     borderopacity="1"
     inkscape:pageshadow="0"
     inkscape:pageopacity="0"
     inkscape:pagecheckerboard="0"
     showgrid="false"
     inkscape:zoom="45.254834"
     inkscape:cx="11.30266"
     inkscape:cy="16.661204"
     inkscape:window-width="3840"
     inkscape:window-height="2067"
     inkscape:window-x="-12"
     inkscape:window-y="40"
     inkscape:window-maximized="1"
     inkscape:current-layer="g10048"
     inkscape:snap-page="true" />
  <g
     transform="matrix(1.0868056,0,0,1.0868056,-1.1284722,-1.1284722)"
     id="g10048">
    <path
       id="use50081-9"
       style="color:#000000;fill:#f1edf8;fill-rule:evenodd;stroke-width:0.920127;-inkscape-stroke:none"
       d="m 4.3729021,2.9477877 c -0.778176,0 -1.4251194,0.6469469 -1.4251194,1.4251403 v 17.252369 c 0,0.778194 0.6469434,1.426914 1.4251194,1.426914 H 21.625299 c 0.778176,0 1.426917,-0.64872 1.426917,-1.426914 V 11.441005 l -0.143766,0.01391 -0.283949,0.107807 c -0.496007,0.269517 -0.952476,0.337679 -0.952476,0.337679 v 9.724235 c 0,0.03756 -0.0094,0.0466 -0.04674,0.0466 H 14.33435 l -0.01982,0.145714 0.143766,0.32516 -0.150965,-0.02782 -0.127595,-0.143626 0.0035,-0.141888 -0.149157,-0.05564 -0.05571,-0.100504 H 4.3726969 c -0.037419,0 -0.044931,-0.01043 -0.044931,-0.0466 V 10.248449 c 0,0 -0.2947307,-0.3018593 -0.513979,-0.4241334 C 3.5945557,9.7022501 3.2998111,9.2636143 3.2998111,9.2636143 c 0.5391364,0.359415 1.0279546,0.326899 1.0279546,0.326899 V 4.3734844 c 0,-0.037559 0.00765,-0.044862 0.044931,-0.044862 H 21.625094 c 0.03742,0 0.04674,0.00696 0.04674,0.044862 v 7.0644946 0.194053 c 0,0 0.298312,-0.01391 1.164535,-0.366614 L 23.052018,11.13605 V 4.3734844 c 0,-0.7781934 -0.648741,-1.4251403 -1.426917,-1.4251403 z"
       sodipodi:nodetypes="ssssssccccssccccccccsscsccscssccccsss"
       inkscape:tile-x0="76.087601"
       inkscape:tile-y0="-149.40354" />
  </g>
</svg>
