<?xml version="1.0" encoding="UTF-8" standalone="no"?>
<svg
   height="26.0px"
   width="35.75px"
   version="1.1"
   id="svg10"
   sodipodi:docname="1.svg"
   inkscape:version="1.1 (c68e22c387, 2021-05-23)"
   xmlns:inkscape="http://www.inkscape.org/namespaces/inkscape"
   xmlns:sodipodi="http://sodipodi.sourceforge.net/DTD/sodipodi-0.dtd"
   xmlns="http://www.w3.org/2000/svg"
   xmlns:svg="http://www.w3.org/2000/svg">
  <defs
     id="defs14">
    <rect
       x="-7.40625"
       y="-0.625"
       width="83.25"
       height="51.21875"
       id="rect2591" />
    <rect
       x="20.461902"
       y="33.322407"
       width="58.601474"
       height="43.884815"
       id="rect62841" />
    <rect
       x="22.185475"
       y="31.863999"
       width="60.899571"
       height="47.464543"
       id="rect54537" />
    <rect
       x="22.273864"
       y="44.901281"
       width="27.577164"
       height="20.064155"
       id="rect51159" />
    <rect
       x="7.9107571"
       y="11.424194"
       width="21.412077"
       height="13.766485"
       id="rect39710" />
    <rect
       x="-24.041631"
       y="-11.313708"
       width="105.53569"
       height="62.57895"
       id="rect36404" />
    <rect
       x="-0.015625"
       y="0.015625"
       width="25.9375"
       height="25.984375"
       id="rect3373" />
  </defs>
  <sodipodi:namedview
     id="namedview12"
     pagecolor="#505050"
     bordercolor="#eeeeee"
     borderopacity="1"
     inkscape:pageshadow="0"
     inkscape:pageopacity="0"
     inkscape:pagecheckerboard="0"
     showgrid="false"
     inkscape:snap-global="true"
     inkscape:zoom="64"
     inkscape:cx="16.179687"
     inkscape:cy="13.6875"
     inkscape:window-width="3840"
     inkscape:window-height="2067"
     inkscape:window-x="-12"
     inkscape:window-y="40"
     inkscape:window-maximized="1"
     inkscape:current-layer="g8"
     showguides="false"
     inkscape:snap-intersection-paths="true"
     inkscape:object-paths="true"
     inkscape:snap-midpoints="true"
     inkscape:snap-bbox="true"
     inkscape:bbox-paths="true"
     inkscape:bbox-nodes="true"
     inkscape:snap-bbox-edge-midpoints="true"
     inkscape:snap-bbox-midpoints="true">
    <inkscape:grid
       type="xygrid"
       id="grid138" />
  </sodipodi:namedview>
  <g
     id="g8">
    <path
       id="rect17661"
       style="color:#000000;fill:#f1edf8;fill-rule:evenodd;-inkscape-stroke:none"
       d="m 3.7207032,2.075195 c -0.8457263,0 -1.5488282,0.7031019 -1.5488282,1.5488282 V 10.75 v 1.768 9.856023 c 0,0.845727 0.7031019,1.550782 1.5488282,1.550782 H 32.027343 c 0.845727,0 1.550782,-0.705055 1.550782,-1.550782 V 11.305664 l -0.156246,0.01563 -0.308594,0.117187 c -0.539062,0.292969 -1.035156,0.367188 -1.035156,0.367188 v 10.568355 c 0,0.04067 -0.01011,0.05078 -0.05078,0.05078 H 19.325201 l -0.02148,0.158203 0.15625,0.353515 -0.164063,-0.03125 -0.138672,-0.15625 0.0039,-0.154297 -0.16211,-0.06055 -0.06055,-0.109375 H 3.7207032 c -0.040673,0 -0.048828,-0.01011 -0.048828,-0.05078 V 10.008789 c 0,0 -0.3203124,-0.3281252 -0.5585937,-0.4609377 C 2.8750001,9.4150388 2.5546876,8.9384763 2.5546876,8.9384763 3.140625,9.3291013 3.6718751,9.293945 3.671875,9.293945 V 3.6240232 c 0,-0.040673 0.00816,-0.048828 0.048828,-0.048828 h 28.30664 c 0.04067,0 0.05078,0.00816 0.05078,0.048828 v 7.6777348 0.210938 c 0,0 0.324218,-0.01563 1.265625,-0.398438 l 0.234377,-0.140625 V 3.6240232 c 0,-0.8457263 -0.705055,-1.5488282 -1.550782,-1.5488282 H 19.522776 Z"
       sodipodi:nodetypes="ssccssssccccssccccccccsscsccscssccccsscs" />
  </g>
</svg>
